<?xml version="1.0" encoding="utf-8" standalone="no"?>
<!DOCTYPE svg PUBLIC "-//W3C//DTD SVG 1.1//EN"
  "http://www.w3.org/Graphics/SVG/1.1/DTD/svg11.dtd">
<svg xmlns:xlink="http://www.w3.org/1999/xlink" width="849.6pt" height="316.8pt" viewBox="0 0 849.6 316.8" xmlns="http://www.w3.org/2000/svg" version="1.1">
 <metadata>
  <rdf:RDF xmlns:dc="http://purl.org/dc/elements/1.1/" xmlns:cc="http://creativecommons.org/ns#" xmlns:rdf="http://www.w3.org/1999/02/22-rdf-syntax-ns#">
   <cc:Work>
    <dc:type rdf:resource="http://purl.org/dc/dcmitype/StillImage"/>
    <dc:date>2026-04-24T07:33:31.905284</dc:date>
    <dc:format>image/svg+xml</dc:format>
    <dc:creator>
     <cc:Agent>
      <dc:title>Matplotlib v3.8.4, https://matplotlib.org/</dc:title>
     </cc:Agent>
    </dc:creator>
   </cc:Work>
  </rdf:RDF>
 </metadata>
 <defs>
  <style type="text/css">*{stroke-linejoin: round; stroke-linecap: butt}</style>
 </defs>
 <g id="figure_1">
  <g id="patch_1">
   <path d="M 0 316.8 
L 849.6 316.8 
L 849.6 0 
L 0 0 
z
" style="fill: #ffffff"/>
  </g>
  <g id="axes_1">
   <g id="patch_2">
    <path d="M 98.22 273.66 
L 442.940601 273.66 
L 442.940601 56.24 
L 98.22 56.24 
z
" style="fill: #ffffff"/>
   </g>
   <g id="matplotlib.axis_1">
    <g id="xtick_1">
     <g id="line2d_1">
      <path d="M 98.22 273.66 
L 98.22 56.24 
" clip-path="url(#p193c294095)" style="fill: none; stroke: #e6dfd5; stroke-opacity: 0.9; stroke-width: 0.8; stroke-linecap: square"/>
     </g>
     <g id="line2d_2"/>
     <g id="text_1">
      <!-- 0% -->
      <g style="fill: #334e68" transform="translate(89.494766 285.518281) scale(0.11 -0.11)">
       <defs>
        <path id="DejaVuSans-30" d="M 2034 4250 
Q 1547 4250 1301 3770 
Q 1056 3291 1056 2328 
Q 1056 1369 1301 889 
Q 1547 409 2034 409 
Q 2525 409 2770 889 
Q 3016 1369 3016 2328 
Q 3016 3291 2770 3770 
Q 2525 4250 2034 4250 
z
M 2034 4750 
Q 2819 4750 3233 4129 
Q 3647 3509 3647 2328 
Q 3647 1150 3233 529 
Q 2819 -91 2034 -91 
Q 1250 -91 836 529 
Q 422 1150 422 2328 
Q 422 3509 836 4129 
Q 1250 4750 2034 4750 
z
" transform="scale(0.015625)"/>
        <path id="DejaVuSans-25" d="M 4653 2053 
Q 4381 2053 4226 1822 
Q 4072 1591 4072 1178 
Q 4072 772 4226 539 
Q 4381 306 4653 306 
Q 4919 306 5073 539 
Q 5228 772 5228 1178 
Q 5228 1588 5073 1820 
Q 4919 2053 4653 2053 
z
M 4653 2450 
Q 5147 2450 5437 2106 
Q 5728 1763 5728 1178 
Q 5728 594 5436 251 
Q 5144 -91 4653 -91 
Q 4153 -91 3862 251 
Q 3572 594 3572 1178 
Q 3572 1766 3864 2108 
Q 4156 2450 4653 2450 
z
M 1428 4353 
Q 1159 4353 1004 4120 
Q 850 3888 850 3481 
Q 850 3069 1003 2837 
Q 1156 2606 1428 2606 
Q 1700 2606 1854 2837 
Q 2009 3069 2009 3481 
Q 2009 3884 1853 4118 
Q 1697 4353 1428 4353 
z
M 4250 4750 
L 4750 4750 
L 1831 -91 
L 1331 -91 
L 4250 4750 
z
M 1428 4750 
Q 1922 4750 2215 4408 
Q 2509 4066 2509 3481 
Q 2509 2891 2217 2550 
Q 1925 2209 1428 2209 
Q 931 2209 642 2551 
Q 353 2894 353 3481 
Q 353 4063 643 4406 
Q 934 4750 1428 4750 
z
" transform="scale(0.015625)"/>
       </defs>
       <use xlink:href="#DejaVuSans-30"/>
       <use xlink:href="#DejaVuSans-25" x="63.623047"/>
      </g>
     </g>
    </g>
    <g id="xtick_2">
     <g id="line2d_3">
      <path d="M 167.16412 273.66 
L 167.16412 56.24 
" clip-path="url(#p193c294095)" style="fill: none; stroke: #e6dfd5; stroke-opacity: 0.9; stroke-width: 0.8; stroke-linecap: square"/>
     </g>
     <g id="line2d_4"/>
     <g id="text_2">
      <!-- 20% -->
      <g style="fill: #334e68" transform="translate(154.939511 285.518281) scale(0.11 -0.11)">
       <defs>
        <path id="DejaVuSans-32" d="M 1228 531 
L 3431 531 
L 3431 0 
L 469 0 
L 469 531 
Q 828 903 1448 1529 
Q 2069 2156 2228 2338 
Q 2531 2678 2651 2914 
Q 2772 3150 2772 3378 
Q 2772 3750 2511 3984 
Q 2250 4219 1831 4219 
Q 1534 4219 1204 4116 
Q 875 4013 500 3803 
L 500 4441 
Q 881 4594 1212 4672 
Q 1544 4750 1819 4750 
Q 2544 4750 2975 4387 
Q 3406 4025 3406 3419 
Q 3406 3131 3298 2873 
Q 3191 2616 2906 2266 
Q 2828 2175 2409 1742 
Q 1991 1309 1228 531 
z
" transform="scale(0.015625)"/>
       </defs>
       <use xlink:href="#DejaVuSans-32"/>
       <use xlink:href="#DejaVuSans-30" x="63.623047"/>
       <use xlink:href="#DejaVuSans-25" x="127.246094"/>
      </g>
     </g>
    </g>
    <g id="xtick_3">
     <g id="line2d_5">
      <path d="M 236.108241 273.66 
L 236.108241 56.24 
" clip-path="url(#p193c294095)" style="fill: none; stroke: #e6dfd5; stroke-opacity: 0.9; stroke-width: 0.8; stroke-linecap: square"/>
     </g>
     <g id="line2d_6"/>
     <g id="text_3">
      <!-- 40% -->
      <g style="fill: #334e68" transform="translate(223.883631 285.518281) scale(0.11 -0.11)">
       <defs>
        <path id="DejaVuSans-34" d="M 2419 4116 
L 825 1625 
L 2419 1625 
L 2419 4116 
z
M 2253 4666 
L 3047 4666 
L 3047 1625 
L 3713 1625 
L 3713 1100 
L 3047 1100 
L 3047 0 
L 2419 0 
L 2419 1100 
L 313 1100 
L 313 1709 
L 2253 4666 
z
" transform="scale(0.015625)"/>
       </defs>
       <use xlink:href="#DejaVuSans-34"/>
       <use xlink:href="#DejaVuSans-30" x="63.623047"/>
       <use xlink:href="#DejaVuSans-25" x="127.246094"/>
      </g>
     </g>
    </g>
    <g id="xtick_4">
     <g id="line2d_7">
      <path d="M 305.052361 273.66 
L 305.052361 56.24 
" clip-path="url(#p193c294095)" style="fill: none; stroke: #e6dfd5; stroke-opacity: 0.9; stroke-width: 0.8; stroke-linecap: square"/>
     </g>
     <g id="line2d_8"/>
     <g id="text_4">
      <!-- 60% -->
      <g style="fill: #334e68" transform="translate(292.827751 285.518281) scale(0.11 -0.11)">
       <defs>
        <path id="DejaVuSans-36" d="M 2113 2584 
Q 1688 2584 1439 2293 
Q 1191 2003 1191 1497 
Q 1191 994 1439 701 
Q 1688 409 2113 409 
Q 2538 409 2786 701 
Q 3034 994 3034 1497 
Q 3034 2003 2786 2293 
Q 2538 2584 2113 2584 
z
M 3366 4563 
L 3366 3988 
Q 3128 4100 2886 4159 
Q 2644 4219 2406 4219 
Q 1781 4219 1451 3797 
Q 1122 3375 1075 2522 
Q 1259 2794 1537 2939 
Q 1816 3084 2150 3084 
Q 2853 3084 3261 2657 
Q 3669 2231 3669 1497 
Q 3669 778 3244 343 
Q 2819 -91 2113 -91 
Q 1303 -91 875 529 
Q 447 1150 447 2328 
Q 447 3434 972 4092 
Q 1497 4750 2381 4750 
Q 2619 4750 2861 4703 
Q 3103 4656 3366 4563 
z
" transform="scale(0.015625)"/>
       </defs>
       <use xlink:href="#DejaVuSans-36"/>
       <use xlink:href="#DejaVuSans-30" x="63.623047"/>
       <use xlink:href="#DejaVuSans-25" x="127.246094"/>
      </g>
     </g>
    </g>
    <g id="xtick_5">
     <g id="line2d_9">
      <path d="M 373.996481 273.66 
L 373.996481 56.24 
" clip-path="url(#p193c294095)" style="fill: none; stroke: #e6dfd5; stroke-opacity: 0.9; stroke-width: 0.8; stroke-linecap: square"/>
     </g>
     <g id="line2d_10"/>
     <g id="text_5">
      <!-- 80% -->
      <g style="fill: #334e68" transform="translate(361.771872 285.518281) scale(0.11 -0.11)">
       <defs>
        <path id="DejaVuSans-38" d="M 2034 2216 
Q 1584 2216 1326 1975 
Q 1069 1734 1069 1313 
Q 1069 891 1326 650 
Q 1584 409 2034 409 
Q 2484 409 2743 651 
Q 3003 894 3003 1313 
Q 3003 1734 2745 1975 
Q 2488 2216 2034 2216 
z
M 1403 2484 
Q 997 2584 770 2862 
Q 544 3141 544 3541 
Q 544 4100 942 4425 
Q 1341 4750 2034 4750 
Q 2731 4750 3128 4425 
Q 3525 4100 3525 3541 
Q 3525 3141 3298 2862 
Q 3072 2584 2669 2484 
Q 3125 2378 3379 2068 
Q 3634 1759 3634 1313 
Q 3634 634 3220 271 
Q 2806 -91 2034 -91 
Q 1263 -91 848 271 
Q 434 634 434 1313 
Q 434 1759 690 2068 
Q 947 2378 1403 2484 
z
M 1172 3481 
Q 1172 3119 1398 2916 
Q 1625 2713 2034 2713 
Q 2441 2713 2670 2916 
Q 2900 3119 2900 3481 
Q 2900 3844 2670 4047 
Q 2441 4250 2034 4250 
Q 1625 4250 1398 4047 
Q 1172 3844 1172 3481 
z
" transform="scale(0.015625)"/>
       </defs>
       <use xlink:href="#DejaVuSans-38"/>
       <use xlink:href="#DejaVuSans-30" x="63.623047"/>
       <use xlink:href="#DejaVuSans-25" x="127.246094"/>
      </g>
     </g>
    </g>
    <g id="xtick_6">
     <g id="line2d_11">
      <path d="M 442.940601 273.66 
L 442.940601 56.24 
" clip-path="url(#p193c294095)" style="fill: none; stroke: #e6dfd5; stroke-opacity: 0.9; stroke-width: 0.8; stroke-linecap: square"/>
     </g>
     <g id="line2d_12"/>
     <g id="text_6">
      <!-- 100% -->
      <g style="fill: #334e68" transform="translate(427.216617 285.518281) scale(0.11 -0.11)">
       <defs>
        <path id="DejaVuSans-31" d="M 794 531 
L 1825 531 
L 1825 4091 
L 703 3866 
L 703 4441 
L 1819 4666 
L 2450 4666 
L 2450 531 
L 3481 531 
L 3481 0 
L 794 0 
L 794 531 
z
" transform="scale(0.015625)"/>
       </defs>
       <use xlink:href="#DejaVuSans-31"/>
       <use xlink:href="#DejaVuSans-30" x="63.623047"/>
       <use xlink:href="#DejaVuSans-30" x="127.246094"/>
       <use xlink:href="#DejaVuSans-25" x="190.869141"/>
      </g>
     </g>
    </g>
    <g id="text_7">
     <!-- Accepted Share -->
     <g transform="translate(223.409988 300.924062) scale(0.12 -0.12)">
      <defs>
       <path id="DejaVuSans-41" d="M 2188 4044 
L 1331 1722 
L 3047 1722 
L 2188 4044 
z
M 1831 4666 
L 2547 4666 
L 4325 0 
L 3669 0 
L 3244 1197 
L 1141 1197 
L 716 0 
L 50 0 
L 1831 4666 
z
" transform="scale(0.015625)"/>
       <path id="DejaVuSans-63" d="M 3122 3366 
L 3122 2828 
Q 2878 2963 2633 3030 
Q 2388 3097 2138 3097 
Q 1578 3097 1268 2742 
Q 959 2388 959 1747 
Q 959 1106 1268 751 
Q 1578 397 2138 397 
Q 2388 397 2633 464 
Q 2878 531 3122 666 
L 3122 134 
Q 2881 22 2623 -34 
Q 2366 -91 2075 -91 
Q 1284 -91 818 406 
Q 353 903 353 1747 
Q 353 2603 823 3093 
Q 1294 3584 2113 3584 
Q 2378 3584 2631 3529 
Q 2884 3475 3122 3366 
z
" transform="scale(0.015625)"/>
       <path id="DejaVuSans-65" d="M 3597 1894 
L 3597 1613 
L 953 1613 
Q 991 1019 1311 708 
Q 1631 397 2203 397 
Q 2534 397 2845 478 
Q 3156 559 3463 722 
L 3463 178 
Q 3153 47 2828 -22 
Q 2503 -91 2169 -91 
Q 1331 -91 842 396 
Q 353 884 353 1716 
Q 353 2575 817 3079 
Q 1281 3584 2069 3584 
Q 2775 3584 3186 3129 
Q 3597 2675 3597 1894 
z
M 3022 2063 
Q 3016 2534 2758 2815 
Q 2500 3097 2075 3097 
Q 1594 3097 1305 2825 
Q 1016 2553 972 2059 
L 3022 2063 
z
" transform="scale(0.015625)"/>
       <path id="DejaVuSans-70" d="M 1159 525 
L 1159 -1331 
L 581 -1331 
L 581 3500 
L 1159 3500 
L 1159 2969 
Q 1341 3281 1617 3432 
Q 1894 3584 2278 3584 
Q 2916 3584 3314 3078 
Q 3713 2572 3713 1747 
Q 3713 922 3314 415 
Q 2916 -91 2278 -91 
Q 1894 -91 1617 61 
Q 1341 213 1159 525 
z
M 3116 1747 
Q 3116 2381 2855 2742 
Q 2594 3103 2138 3103 
Q 1681 3103 1420 2742 
Q 1159 2381 1159 1747 
Q 1159 1113 1420 752 
Q 1681 391 2138 391 
Q 2594 391 2855 752 
Q 3116 1113 3116 1747 
z
" transform="scale(0.015625)"/>
       <path id="DejaVuSans-74" d="M 1172 4494 
L 1172 3500 
L 2356 3500 
L 2356 3053 
L 1172 3053 
L 1172 1153 
Q 1172 725 1289 603 
Q 1406 481 1766 481 
L 2356 481 
L 2356 0 
L 1766 0 
Q 1100 0 847 248 
Q 594 497 594 1153 
L 594 3053 
L 172 3053 
L 172 3500 
L 594 3500 
L 594 4494 
L 1172 4494 
z
" transform="scale(0.015625)"/>
       <path id="DejaVuSans-64" d="M 2906 2969 
L 2906 4863 
L 3481 4863 
L 3481 0 
L 2906 0 
L 2906 525 
Q 2725 213 2448 61 
Q 2172 -91 1784 -91 
Q 1150 -91 751 415 
Q 353 922 353 1747 
Q 353 2572 751 3078 
Q 1150 3584 1784 3584 
Q 2172 3584 2448 3432 
Q 2725 3281 2906 2969 
z
M 947 1747 
Q 947 1113 1208 752 
Q 1469 391 1925 391 
Q 2381 391 2643 752 
Q 2906 1113 2906 1747 
Q 2906 2381 2643 2742 
Q 2381 3103 1925 3103 
Q 1469 3103 1208 2742 
Q 947 2381 947 1747 
z
" transform="scale(0.015625)"/>
       <path id="DejaVuSans-20" transform="scale(0.015625)"/>
       <path id="DejaVuSans-53" d="M 3425 4513 
L 3425 3897 
Q 3066 4069 2747 4153 
Q 2428 4238 2131 4238 
Q 1616 4238 1336 4038 
Q 1056 3838 1056 3469 
Q 1056 3159 1242 3001 
Q 1428 2844 1947 2747 
L 2328 2669 
Q 3034 2534 3370 2195 
Q 3706 1856 3706 1288 
Q 3706 609 3251 259 
Q 2797 -91 1919 -91 
Q 1588 -91 1214 -16 
Q 841 59 441 206 
L 441 856 
Q 825 641 1194 531 
Q 1563 422 1919 422 
Q 2459 422 2753 634 
Q 3047 847 3047 1241 
Q 3047 1584 2836 1778 
Q 2625 1972 2144 2069 
L 1759 2144 
Q 1053 2284 737 2584 
Q 422 2884 422 3419 
Q 422 4038 858 4394 
Q 1294 4750 2059 4750 
Q 2388 4750 2728 4690 
Q 3069 4631 3425 4513 
z
" transform="scale(0.015625)"/>
       <path id="DejaVuSans-68" d="M 3513 2113 
L 3513 0 
L 2938 0 
L 2938 2094 
Q 2938 2591 2744 2837 
Q 2550 3084 2163 3084 
Q 1697 3084 1428 2787 
Q 1159 2491 1159 1978 
L 1159 0 
L 581 0 
L 581 4863 
L 1159 4863 
L 1159 2956 
Q 1366 3272 1645 3428 
Q 1925 3584 2291 3584 
Q 2894 3584 3203 3211 
Q 3513 2838 3513 2113 
z
" transform="scale(0.015625)"/>
       <path id="DejaVuSans-61" d="M 2194 1759 
Q 1497 1759 1228 1600 
Q 959 1441 959 1056 
Q 959 750 1161 570 
Q 1363 391 1709 391 
Q 2188 391 2477 730 
Q 2766 1069 2766 1631 
L 2766 1759 
L 2194 1759 
z
M 3341 1997 
L 3341 0 
L 2766 0 
L 2766 531 
Q 2569 213 2275 61 
Q 1981 -91 1556 -91 
Q 1019 -91 701 211 
Q 384 513 384 1019 
Q 384 1609 779 1909 
Q 1175 2209 1959 2209 
L 2766 2209 
L 2766 2266 
Q 2766 2663 2505 2880 
Q 2244 3097 1772 3097 
Q 1472 3097 1187 3025 
Q 903 2953 641 2809 
L 641 3341 
Q 956 3463 1253 3523 
Q 1550 3584 1831 3584 
Q 2591 3584 2966 3190 
Q 3341 2797 3341 1997 
z
" transform="scale(0.015625)"/>
       <path id="DejaVuSans-72" d="M 2631 2963 
Q 2534 3019 2420 3045 
Q 2306 3072 2169 3072 
Q 1681 3072 1420 2755 
Q 1159 2438 1159 1844 
L 1159 0 
L 581 0 
L 581 3500 
L 1159 3500 
L 1159 2956 
Q 1341 3275 1631 3429 
Q 1922 3584 2338 3584 
Q 2397 3584 2469 3576 
Q 2541 3569 2628 3553 
L 2631 2963 
z
" transform="scale(0.015625)"/>
      </defs>
      <use xlink:href="#DejaVuSans-41"/>
      <use xlink:href="#DejaVuSans-63" x="66.658203"/>
      <use xlink:href="#DejaVuSans-63" x="121.638672"/>
      <use xlink:href="#DejaVuSans-65" x="176.619141"/>
      <use xlink:href="#DejaVuSans-70" x="238.142578"/>
      <use xlink:href="#DejaVuSans-74" x="301.619141"/>
      <use xlink:href="#DejaVuSans-65" x="340.828125"/>
      <use xlink:href="#DejaVuSans-64" x="402.351562"/>
      <use xlink:href="#DejaVuSans-20" x="465.828125"/>
      <use xlink:href="#DejaVuSans-53" x="497.615234"/>
      <use xlink:href="#DejaVuSans-68" x="561.091797"/>
      <use xlink:href="#DejaVuSans-61" x="624.470703"/>
      <use xlink:href="#DejaVuSans-72" x="685.75"/>
      <use xlink:href="#DejaVuSans-65" x="724.613281"/>
     </g>
    </g>
   </g>
   <g id="matplotlib.axis_2">
    <g id="ytick_1">
     <g id="line2d_13"/>
     <g id="text_8">
      <!-- Hammer -->
      <g style="fill: #334e68" transform="translate(46.986875 241.796253) scale(0.11 -0.11)">
       <defs>
        <path id="DejaVuSans-48" d="M 628 4666 
L 1259 4666 
L 1259 2753 
L 3553 2753 
L 3553 4666 
L 4184 4666 
L 4184 0 
L 3553 0 
L 3553 2222 
L 1259 2222 
L 1259 0 
L 628 0 
L 628 4666 
z
" transform="scale(0.015625)"/>
        <path id="DejaVuSans-6d" d="M 3328 2828 
Q 3544 3216 3844 3400 
Q 4144 3584 4550 3584 
Q 5097 3584 5394 3201 
Q 5691 2819 5691 2113 
L 5691 0 
L 5113 0 
L 5113 2094 
Q 5113 2597 4934 2840 
Q 4756 3084 4391 3084 
Q 3944 3084 3684 2787 
Q 3425 2491 3425 1978 
L 3425 0 
L 2847 0 
L 2847 2094 
Q 2847 2600 2669 2842 
Q 2491 3084 2119 3084 
Q 1678 3084 1418 2786 
Q 1159 2488 1159 1978 
L 1159 0 
L 581 0 
L 581 3500 
L 1159 3500 
L 1159 2956 
Q 1356 3278 1631 3431 
Q 1906 3584 2284 3584 
Q 2666 3584 2933 3390 
Q 3200 3197 3328 2828 
z
" transform="scale(0.015625)"/>
       </defs>
       <use xlink:href="#DejaVuSans-48"/>
       <use xlink:href="#DejaVuSans-61" x="75.195312"/>
       <use xlink:href="#DejaVuSans-6d" x="136.474609"/>
       <use xlink:href="#DejaVuSans-6d" x="233.886719"/>
       <use xlink:href="#DejaVuSans-65" x="331.298828"/>
       <use xlink:href="#DejaVuSans-72" x="392.822266"/>
      </g>
     </g>
    </g>
    <g id="ytick_2">
     <g id="line2d_14"/>
     <g id="text_9">
      <!-- Screwdriver -->
      <g style="fill: #334e68" transform="translate(29.287188 96.462028) scale(0.11 -0.11)">
       <defs>
        <path id="DejaVuSans-77" d="M 269 3500 
L 844 3500 
L 1563 769 
L 2278 3500 
L 2956 3500 
L 3675 769 
L 4391 3500 
L 4966 3500 
L 4050 0 
L 3372 0 
L 2619 2869 
L 1863 0 
L 1184 0 
L 269 3500 
z
" transform="scale(0.015625)"/>
        <path id="DejaVuSans-69" d="M 603 3500 
L 1178 3500 
L 1178 0 
L 603 0 
L 603 3500 
z
M 603 4863 
L 1178 4863 
L 1178 4134 
L 603 4134 
L 603 4863 
z
" transform="scale(0.015625)"/>
        <path id="DejaVuSans-76" d="M 191 3500 
L 800 3500 
L 1894 563 
L 2988 3500 
L 3597 3500 
L 2284 0 
L 1503 0 
L 191 3500 
z
" transform="scale(0.015625)"/>
       </defs>
       <use xlink:href="#DejaVuSans-53"/>
       <use xlink:href="#DejaVuSans-63" x="63.476562"/>
       <use xlink:href="#DejaVuSans-72" x="118.457031"/>
       <use xlink:href="#DejaVuSans-65" x="157.320312"/>
       <use xlink:href="#DejaVuSans-77" x="218.84375"/>
       <use xlink:href="#DejaVuSans-64" x="300.630859"/>
       <use xlink:href="#DejaVuSans-72" x="364.107422"/>
       <use xlink:href="#DejaVuSans-69" x="405.220703"/>
       <use xlink:href="#DejaVuSans-76" x="433.003906"/>
       <use xlink:href="#DejaVuSans-65" x="492.183594"/>
       <use xlink:href="#DejaVuSans-72" x="553.707031"/>
      </g>
     </g>
    </g>
    <g id="text_10">
     <!-- Tool Family -->
     <g transform="translate(22.791563 197.820625) rotate(-90) scale(0.12 -0.12)">
      <defs>
       <path id="DejaVuSans-54" d="M -19 4666 
L 3928 4666 
L 3928 4134 
L 2272 4134 
L 2272 0 
L 1638 0 
L 1638 4134 
L -19 4134 
L -19 4666 
z
" transform="scale(0.015625)"/>
       <path id="DejaVuSans-6f" d="M 1959 3097 
Q 1497 3097 1228 2736 
Q 959 2375 959 1747 
Q 959 1119 1226 758 
Q 1494 397 1959 397 
Q 2419 397 2687 759 
Q 2956 1122 2956 1747 
Q 2956 2369 2687 2733 
Q 2419 3097 1959 3097 
z
M 1959 3584 
Q 2709 3584 3137 3096 
Q 3566 2609 3566 1747 
Q 3566 888 3137 398 
Q 2709 -91 1959 -91 
Q 1206 -91 779 398 
Q 353 888 353 1747 
Q 353 2609 779 3096 
Q 1206 3584 1959 3584 
z
" transform="scale(0.015625)"/>
       <path id="DejaVuSans-6c" d="M 603 4863 
L 1178 4863 
L 1178 0 
L 603 0 
L 603 4863 
z
" transform="scale(0.015625)"/>
       <path id="DejaVuSans-46" d="M 628 4666 
L 3309 4666 
L 3309 4134 
L 1259 4134 
L 1259 2759 
L 3109 2759 
L 3109 2228 
L 1259 2228 
L 1259 0 
L 628 0 
L 628 4666 
z
" transform="scale(0.015625)"/>
       <path id="DejaVuSans-79" d="M 2059 -325 
Q 1816 -950 1584 -1140 
Q 1353 -1331 966 -1331 
L 506 -1331 
L 506 -850 
L 844 -850 
Q 1081 -850 1212 -737 
Q 1344 -625 1503 -206 
L 1606 56 
L 191 3500 
L 800 3500 
L 1894 763 
L 2988 3500 
L 3597 3500 
L 2059 -325 
z
" transform="scale(0.015625)"/>
      </defs>
      <use xlink:href="#DejaVuSans-54"/>
      <use xlink:href="#DejaVuSans-6f" x="44.083984"/>
      <use xlink:href="#DejaVuSans-6f" x="105.265625"/>
      <use xlink:href="#DejaVuSans-6c" x="166.447266"/>
      <use xlink:href="#DejaVuSans-20" x="194.230469"/>
      <use xlink:href="#DejaVuSans-46" x="226.017578"/>
      <use xlink:href="#DejaVuSans-61" x="274.412109"/>
      <use xlink:href="#DejaVuSans-6d" x="335.691406"/>
      <use xlink:href="#DejaVuSans-69" x="433.103516"/>
      <use xlink:href="#DejaVuSans-6c" x="460.886719"/>
      <use xlink:href="#DejaVuSans-79" x="488.669922"/>
     </g>
    </g>
   </g>
   <g id="LineCollection_1">
    <path d="M 98.22 255.057219 
L 442.940601 255.057219 
" clip-path="url(#p193c294095)" style="fill: none; stroke: #d9e2ec; stroke-width: 2"/>
   </g>
   <g id="LineCollection_2">
    <path d="M 98.22 109.722995 
L 442.940601 109.722995 
" clip-path="url(#p193c294095)" style="fill: none; stroke: #d9e2ec; stroke-width: 2"/>
   </g>
   <g id="LineCollection_3">
    <path d="M 98.22 237.617112 
L 442.940601 237.617112 
" clip-path="url(#p193c294095)" style="fill: none; stroke: #d9e2ec; stroke-width: 2"/>
   </g>
   <g id="LineCollection_4">
    <path d="M 98.22 92.282888 
L 442.940601 92.282888 
" clip-path="url(#p193c294095)" style="fill: none; stroke: #d9e2ec; stroke-width: 2"/>
   </g>
   <g id="LineCollection_5">
    <path d="M 98.22 220.177005 
L 442.940601 220.177005 
" clip-path="url(#p193c294095)" style="fill: none; stroke: #d9e2ec; stroke-width: 2"/>
   </g>
   <g id="LineCollection_6">
    <path d="M 98.22 74.842781 
L 442.940601 74.842781 
" clip-path="url(#p193c294095)" style="fill: none; stroke: #d9e2ec; stroke-width: 2"/>
   </g>
   <g id="LineCollection_7">
    <path d="M 98.22 255.057219 
L 442.940601 255.057219 
" clip-path="url(#p193c294095)" style="fill: none; stroke: #355070; stroke-opacity: 0.3; stroke-width: 3"/>
   </g>
   <g id="LineCollection_8">
    <path d="M 98.22 109.722995 
L 442.940601 109.722995 
" clip-path="url(#p193c294095)" style="fill: none; stroke: #355070; stroke-opacity: 0.3; stroke-width: 3"/>
   </g>
   <g id="LineCollection_9">
    <path d="M 98.22 237.617112 
L 442.940601 237.617112 
" clip-path="url(#p193c294095)" style="fill: none; stroke: #6d597a; stroke-opacity: 0.3; stroke-width: 3"/>
   </g>
   <g id="LineCollection_10">
    <path d="M 98.22 92.282888 
L 442.940601 92.282888 
" clip-path="url(#p193c294095)" style="fill: none; stroke: #6d597a; stroke-opacity: 0.3; stroke-width: 3"/>
   </g>
   <g id="LineCollection_11">
    <path d="M 98.22 220.177005 
L 442.940601 220.177005 
" clip-path="url(#p193c294095)" style="fill: none; stroke: #e56b6f; stroke-opacity: 0.3; stroke-width: 3"/>
   </g>
   <g id="LineCollection_12">
    <path d="M 98.22 74.842781 
L 442.940601 74.842781 
" clip-path="url(#p193c294095)" style="fill: none; stroke: #e56b6f; stroke-opacity: 0.3; stroke-width: 3"/>
   </g>
   <g id="patch_3">
    <path d="M 98.22 273.66 
L 98.22 56.24 
" style="fill: none; stroke: #cfd8dc; stroke-width: 0.8; stroke-linejoin: miter; stroke-linecap: square"/>
   </g>
   <g id="patch_4">
    <path d="M 98.22 273.66 
L 442.940601 273.66 
" style="fill: none; stroke: #cfd8dc; stroke-width: 0.8; stroke-linejoin: miter; stroke-linecap: square"/>
   </g>
   <g id="PathCollection_1">
    <defs>
     <path id="C0_0_124ba83e49" d="M 0 4.609772 
C 1.222526 4.609772 2.395145 4.124058 3.259601 3.259601 
C 4.124058 2.395145 4.609772 1.222526 4.609772 -0 
C 4.609772 -1.222526 4.124058 -2.395145 3.259601 -3.259601 
C 2.395145 -4.124058 1.222526 -4.609772 0 -4.609772 
C -1.222526 -4.609772 -2.395145 -4.124058 -3.259601 -3.259601 
C -4.124058 -2.395145 -4.609772 -1.222526 -4.609772 0 
C -4.609772 1.222526 -4.124058 2.395145 -3.259601 3.259601 
C -2.395145 4.124058 -1.222526 4.609772 0 4.609772 
z
"/>
    </defs>
    <g clip-path="url(#p193c294095)">
     <use xlink:href="#C0_0_124ba83e49" x="442.940601" y="255.057219" style="fill: #355070; stroke: #355070"/>
    </g>
    <g clip-path="url(#p193c294095)">
     <use xlink:href="#C0_0_124ba83e49" x="442.940601" y="109.722995" style="fill: #355070; stroke: #355070"/>
    </g>
   </g>
   <g id="text_11">
    <!-- 3/3 -->
    <g style="fill: #243b53" transform="translate(418.444167 258.092532) scale(0.11 -0.11)">
     <defs>
      <path id="DejaVuSans-Bold-33" d="M 2981 2516 
Q 3453 2394 3698 2092 
Q 3944 1791 3944 1325 
Q 3944 631 3412 270 
Q 2881 -91 1863 -91 
Q 1503 -91 1142 -33 
Q 781 25 428 141 
L 428 1069 
Q 766 900 1098 814 
Q 1431 728 1753 728 
Q 2231 728 2486 893 
Q 2741 1059 2741 1369 
Q 2741 1688 2480 1852 
Q 2219 2016 1709 2016 
L 1228 2016 
L 1228 2791 
L 1734 2791 
Q 2188 2791 2409 2933 
Q 2631 3075 2631 3366 
Q 2631 3634 2415 3781 
Q 2200 3928 1806 3928 
Q 1516 3928 1219 3862 
Q 922 3797 628 3669 
L 628 4550 
Q 984 4650 1334 4700 
Q 1684 4750 2022 4750 
Q 2931 4750 3382 4451 
Q 3834 4153 3834 3553 
Q 3834 3144 3618 2883 
Q 3403 2622 2981 2516 
z
" transform="scale(0.015625)"/>
      <path id="DejaVuSans-Bold-2f" d="M 1644 4666 
L 2338 4666 
L 691 -594 
L 0 -594 
L 1644 4666 
z
" transform="scale(0.015625)"/>
     </defs>
     <use xlink:href="#DejaVuSans-Bold-33"/>
     <use xlink:href="#DejaVuSans-Bold-2f" x="69.580078"/>
     <use xlink:href="#DejaVuSans-Bold-33" x="106.103516"/>
    </g>
   </g>
   <g id="text_12">
    <!-- 3/3 -->
    <g style="fill: #243b53" transform="translate(418.444167 112.758307) scale(0.11 -0.11)">
     <use xlink:href="#DejaVuSans-Bold-33"/>
     <use xlink:href="#DejaVuSans-Bold-2f" x="69.580078"/>
     <use xlink:href="#DejaVuSans-Bold-33" x="106.103516"/>
    </g>
   </g>
   <g id="PathCollection_2">
    <defs>
     <path id="C1_0_b7bc93a917" d="M 0 4.609772 
C 1.222526 4.609772 2.395145 4.124058 3.259601 3.259601 
C 4.124058 2.395145 4.609772 1.222526 4.609772 -0 
C 4.609772 -1.222526 4.124058 -2.395145 3.259601 -3.259601 
C 2.395145 -4.124058 1.222526 -4.609772 0 -4.609772 
C -1.222526 -4.609772 -2.395145 -4.124058 -3.259601 -3.259601 
C -4.124058 -2.395145 -4.609772 -1.222526 -4.609772 0 
C -4.609772 1.222526 -4.124058 2.395145 -3.259601 3.259601 
C -2.395145 4.124058 -1.222526 4.609772 0 4.609772 
z
"/>
    </defs>
    <g clip-path="url(#p193c294095)">
     <use xlink:href="#C1_0_b7bc93a917" x="442.940601" y="237.617112" style="fill: #6d597a; stroke: #6d597a"/>
    </g>
    <g clip-path="url(#p193c294095)">
     <use xlink:href="#C1_0_b7bc93a917" x="442.940601" y="92.282888" style="fill: #6d597a; stroke: #6d597a"/>
    </g>
   </g>
   <g id="text_13">
    <!-- 27/27 -->
    <g style="fill: #243b53" transform="translate(403.13698 240.652425) scale(0.11 -0.11)">
     <defs>
      <path id="DejaVuSans-Bold-32" d="M 1844 884 
L 3897 884 
L 3897 0 
L 506 0 
L 506 884 
L 2209 2388 
Q 2438 2594 2547 2791 
Q 2656 2988 2656 3200 
Q 2656 3528 2436 3728 
Q 2216 3928 1850 3928 
Q 1569 3928 1234 3808 
Q 900 3688 519 3450 
L 519 4475 
Q 925 4609 1322 4679 
Q 1719 4750 2100 4750 
Q 2938 4750 3402 4381 
Q 3866 4013 3866 3353 
Q 3866 2972 3669 2642 
Q 3472 2313 2841 1759 
L 1844 884 
z
" transform="scale(0.015625)"/>
      <path id="DejaVuSans-Bold-37" d="M 428 4666 
L 3944 4666 
L 3944 3988 
L 2125 0 
L 953 0 
L 2675 3781 
L 428 3781 
L 428 4666 
z
" transform="scale(0.015625)"/>
     </defs>
     <use xlink:href="#DejaVuSans-Bold-32"/>
     <use xlink:href="#DejaVuSans-Bold-37" x="69.580078"/>
     <use xlink:href="#DejaVuSans-Bold-2f" x="139.160156"/>
     <use xlink:href="#DejaVuSans-Bold-32" x="175.683594"/>
     <use xlink:href="#DejaVuSans-Bold-37" x="245.263672"/>
    </g>
   </g>
   <g id="text_14">
    <!-- 27/27 -->
    <g style="fill: #243b53" transform="translate(403.13698 95.3182) scale(0.11 -0.11)">
     <use xlink:href="#DejaVuSans-Bold-32"/>
     <use xlink:href="#DejaVuSans-Bold-37" x="69.580078"/>
     <use xlink:href="#DejaVuSans-Bold-2f" x="139.160156"/>
     <use xlink:href="#DejaVuSans-Bold-32" x="175.683594"/>
     <use xlink:href="#DejaVuSans-Bold-37" x="245.263672"/>
    </g>
   </g>
   <g id="PathCollection_3">
    <defs>
     <path id="C2_0_48931872bf" d="M 0 4.609772 
C 1.222526 4.609772 2.395145 4.124058 3.259601 3.259601 
C 4.124058 2.395145 4.609772 1.222526 4.609772 -0 
C 4.609772 -1.222526 4.124058 -2.395145 3.259601 -3.259601 
C 2.395145 -4.124058 1.222526 -4.609772 0 -4.609772 
C -1.222526 -4.609772 -2.395145 -4.124058 -3.259601 -3.259601 
C -4.124058 -2.395145 -4.609772 -1.222526 -4.609772 0 
C -4.609772 1.222526 -4.124058 2.395145 -3.259601 3.259601 
C -2.395145 4.124058 -1.222526 4.609772 0 4.609772 
z
"/>
    </defs>
    <g clip-path="url(#p193c294095)">
     <use xlink:href="#C2_0_48931872bf" x="442.940601" y="220.177005" style="fill: #e56b6f; stroke: #e56b6f"/>
    </g>
    <g clip-path="url(#p193c294095)">
     <use xlink:href="#C2_0_48931872bf" x="442.940601" y="74.842781" style="fill: #e56b6f; stroke: #e56b6f"/>
    </g>
   </g>
   <g id="text_15">
    <!-- 27/27 -->
    <g style="fill: #243b53" transform="translate(403.13698 223.212318) scale(0.11 -0.11)">
     <use xlink:href="#DejaVuSans-Bold-32"/>
     <use xlink:href="#DejaVuSans-Bold-37" x="69.580078"/>
     <use xlink:href="#DejaVuSans-Bold-2f" x="139.160156"/>
     <use xlink:href="#DejaVuSans-Bold-32" x="175.683594"/>
     <use xlink:href="#DejaVuSans-Bold-37" x="245.263672"/>
    </g>
   </g>
   <g id="text_16">
    <!-- 27/27 -->
    <g style="fill: #243b53" transform="translate(403.13698 77.878093) scale(0.11 -0.11)">
     <use xlink:href="#DejaVuSans-Bold-32"/>
     <use xlink:href="#DejaVuSans-Bold-37" x="69.580078"/>
     <use xlink:href="#DejaVuSans-Bold-2f" x="139.160156"/>
     <use xlink:href="#DejaVuSans-Bold-32" x="175.683594"/>
     <use xlink:href="#DejaVuSans-Bold-37" x="245.263672"/>
    </g>
   </g>
   <g id="text_17">
    <!-- Accepted Share by Family -->
    <g style="fill: #243b53" transform="translate(98.22 48.24) scale(0.16 -0.16)">
     <defs>
      <path id="DejaVuSans-62" d="M 3116 1747 
Q 3116 2381 2855 2742 
Q 2594 3103 2138 3103 
Q 1681 3103 1420 2742 
Q 1159 2381 1159 1747 
Q 1159 1113 1420 752 
Q 1681 391 2138 391 
Q 2594 391 2855 752 
Q 3116 1113 3116 1747 
z
M 1159 2969 
Q 1341 3281 1617 3432 
Q 1894 3584 2278 3584 
Q 2916 3584 3314 3078 
Q 3713 2572 3713 1747 
Q 3713 922 3314 415 
Q 2916 -91 2278 -91 
Q 1894 -91 1617 61 
Q 1341 213 1159 525 
L 1159 0 
L 581 0 
L 581 4863 
L 1159 4863 
L 1159 2969 
z
" transform="scale(0.015625)"/>
     </defs>
     <use xlink:href="#DejaVuSans-41"/>
     <use xlink:href="#DejaVuSans-63" x="66.658203"/>
     <use xlink:href="#DejaVuSans-63" x="121.638672"/>
     <use xlink:href="#DejaVuSans-65" x="176.619141"/>
     <use xlink:href="#DejaVuSans-70" x="238.142578"/>
     <use xlink:href="#DejaVuSans-74" x="301.619141"/>
     <use xlink:href="#DejaVuSans-65" x="340.828125"/>
     <use xlink:href="#DejaVuSans-64" x="402.351562"/>
     <use xlink:href="#DejaVuSans-20" x="465.828125"/>
     <use xlink:href="#DejaVuSans-53" x="497.615234"/>
     <use xlink:href="#DejaVuSans-68" x="561.091797"/>
     <use xlink:href="#DejaVuSans-61" x="624.470703"/>
     <use xlink:href="#DejaVuSans-72" x="685.75"/>
     <use xlink:href="#DejaVuSans-65" x="724.613281"/>
     <use xlink:href="#DejaVuSans-20" x="786.136719"/>
     <use xlink:href="#DejaVuSans-62" x="817.923828"/>
     <use xlink:href="#DejaVuSans-79" x="881.400391"/>
     <use xlink:href="#DejaVuSans-20" x="940.580078"/>
     <use xlink:href="#DejaVuSans-46" x="972.367188"/>
     <use xlink:href="#DejaVuSans-61" x="1020.761719"/>
     <use xlink:href="#DejaVuSans-6d" x="1082.041016"/>
     <use xlink:href="#DejaVuSans-69" x="1179.453125"/>
     <use xlink:href="#DejaVuSans-6c" x="1207.236328"/>
     <use xlink:href="#DejaVuSans-79" x="1235.019531"/>
    </g>
   </g>
   <g id="legend_1">
    <g id="text_18">
     <!-- Mode -->
     <g transform="translate(373.210914 213.034531) scale(0.11 -0.11)">
      <defs>
       <path id="DejaVuSans-4d" d="M 628 4666 
L 1569 4666 
L 2759 1491 
L 3956 4666 
L 4897 4666 
L 4897 0 
L 4281 0 
L 4281 4097 
L 3078 897 
L 2444 897 
L 1241 4097 
L 1241 0 
L 628 0 
L 628 4666 
z
" transform="scale(0.015625)"/>
      </defs>
      <use xlink:href="#DejaVuSans-4d"/>
      <use xlink:href="#DejaVuSans-6f" x="86.279297"/>
      <use xlink:href="#DejaVuSans-64" x="147.460938"/>
      <use xlink:href="#DejaVuSans-65" x="210.9375"/>
     </g>
    </g>
    <g id="PathCollection_4">
     <path d="M 354.354508 230.902741 
C 355.577034 230.902741 356.749652 230.417026 357.614109 229.55257 
C 358.478565 228.688114 358.96428 227.515495 358.96428 226.292969 
C 358.96428 225.070443 358.478565 223.897824 357.614109 223.033368 
C 356.749652 222.168911 355.577034 221.683197 354.354508 221.683197 
C 353.131982 221.683197 351.959363 222.168911 351.094906 223.033368 
C 350.23045 223.897824 349.744735 225.070443 349.744735 226.292969 
C 349.744735 227.515495 350.23045 228.688114 351.094906 229.55257 
C 351.959363 230.417026 353.131982 230.902741 354.354508 230.902741 
z
" style="fill: #355070; stroke: #355070"/>
    </g>
    <g id="text_19">
     <!-- Predefined -->
     <g transform="translate(374.154508 229.180469) scale(0.11 -0.11)">
      <defs>
       <path id="DejaVuSans-50" d="M 1259 4147 
L 1259 2394 
L 2053 2394 
Q 2494 2394 2734 2622 
Q 2975 2850 2975 3272 
Q 2975 3691 2734 3919 
Q 2494 4147 2053 4147 
L 1259 4147 
z
M 628 4666 
L 2053 4666 
Q 2838 4666 3239 4311 
Q 3641 3956 3641 3272 
Q 3641 2581 3239 2228 
Q 2838 1875 2053 1875 
L 1259 1875 
L 1259 0 
L 628 0 
L 628 4666 
z
" transform="scale(0.015625)"/>
       <path id="DejaVuSans-66" d="M 2375 4863 
L 2375 4384 
L 1825 4384 
Q 1516 4384 1395 4259 
Q 1275 4134 1275 3809 
L 1275 3500 
L 2222 3500 
L 2222 3053 
L 1275 3053 
L 1275 0 
L 697 0 
L 697 3053 
L 147 3053 
L 147 3500 
L 697 3500 
L 697 3744 
Q 697 4328 969 4595 
Q 1241 4863 1831 4863 
L 2375 4863 
z
" transform="scale(0.015625)"/>
       <path id="DejaVuSans-6e" d="M 3513 2113 
L 3513 0 
L 2938 0 
L 2938 2094 
Q 2938 2591 2744 2837 
Q 2550 3084 2163 3084 
Q 1697 3084 1428 2787 
Q 1159 2491 1159 1978 
L 1159 0 
L 581 0 
L 581 3500 
L 1159 3500 
L 1159 2956 
Q 1366 3272 1645 3428 
Q 1925 3584 2291 3584 
Q 2894 3584 3203 3211 
Q 3513 2838 3513 2113 
z
" transform="scale(0.015625)"/>
      </defs>
      <use xlink:href="#DejaVuSans-50"/>
      <use xlink:href="#DejaVuSans-72" x="58.552734"/>
      <use xlink:href="#DejaVuSans-65" x="97.416016"/>
      <use xlink:href="#DejaVuSans-64" x="158.939453"/>
      <use xlink:href="#DejaVuSans-65" x="222.416016"/>
      <use xlink:href="#DejaVuSans-66" x="283.939453"/>
      <use xlink:href="#DejaVuSans-69" x="319.144531"/>
      <use xlink:href="#DejaVuSans-6e" x="346.927734"/>
      <use xlink:href="#DejaVuSans-65" x="410.306641"/>
      <use xlink:href="#DejaVuSans-64" x="471.830078"/>
     </g>
    </g>
    <g id="PathCollection_5">
     <path d="M 354.354508 247.048678 
C 355.577034 247.048678 356.749652 246.562964 357.614109 245.698507 
C 358.478565 244.834051 358.96428 243.661432 358.96428 242.438906 
C 358.96428 241.21638 358.478565 240.043761 357.614109 239.179305 
C 356.749652 238.314849 355.577034 237.829134 354.354508 237.829134 
C 353.131982 237.829134 351.959363 238.314849 351.094906 239.179305 
C 350.23045 240.043761 349.744735 241.21638 349.744735 242.438906 
C 349.744735 243.661432 350.23045 244.834051 351.094906 245.698507 
C 351.959363 246.562964 353.131982 247.048678 354.354508 247.048678 
z
" style="fill: #6d597a; stroke: #6d597a"/>
    </g>
    <g id="text_20">
     <!-- LLM Direct -->
     <g transform="translate(374.154508 245.326406) scale(0.11 -0.11)">
      <defs>
       <path id="DejaVuSans-4c" d="M 628 4666 
L 1259 4666 
L 1259 531 
L 3531 531 
L 3531 0 
L 628 0 
L 628 4666 
z
" transform="scale(0.015625)"/>
       <path id="DejaVuSans-44" d="M 1259 4147 
L 1259 519 
L 2022 519 
Q 2988 519 3436 956 
Q 3884 1394 3884 2338 
Q 3884 3275 3436 3711 
Q 2988 4147 2022 4147 
L 1259 4147 
z
M 628 4666 
L 1925 4666 
Q 3281 4666 3915 4102 
Q 4550 3538 4550 2338 
Q 4550 1131 3912 565 
Q 3275 0 1925 0 
L 628 0 
L 628 4666 
z
" transform="scale(0.015625)"/>
      </defs>
      <use xlink:href="#DejaVuSans-4c"/>
      <use xlink:href="#DejaVuSans-4c" x="55.712891"/>
      <use xlink:href="#DejaVuSans-4d" x="111.425781"/>
      <use xlink:href="#DejaVuSans-20" x="197.705078"/>
      <use xlink:href="#DejaVuSans-44" x="229.492188"/>
      <use xlink:href="#DejaVuSans-69" x="306.494141"/>
      <use xlink:href="#DejaVuSans-72" x="334.277344"/>
      <use xlink:href="#DejaVuSans-65" x="373.140625"/>
      <use xlink:href="#DejaVuSans-63" x="434.664062"/>
      <use xlink:href="#DejaVuSans-74" x="489.644531"/>
     </g>
    </g>
    <g id="PathCollection_6">
     <path d="M 354.354508 263.194616 
C 355.577034 263.194616 356.749652 262.708901 357.614109 261.844445 
C 358.478565 260.979989 358.96428 259.80737 358.96428 258.584844 
C 358.96428 257.362318 358.478565 256.189699 357.614109 255.325243 
C 356.749652 254.460786 355.577034 253.975072 354.354508 253.975072 
C 353.131982 253.975072 351.959363 254.460786 351.094906 255.325243 
C 350.23045 256.189699 349.744735 257.362318 349.744735 258.584844 
C 349.744735 259.80737 350.23045 260.979989 351.094906 261.844445 
C 351.959363 262.708901 353.131982 263.194616 354.354508 263.194616 
z
" style="fill: #e56b6f; stroke: #e56b6f"/>
    </g>
    <g id="text_21">
     <!-- LLM Lie -->
     <g transform="translate(374.154508 261.472344) scale(0.11 -0.11)">
      <use xlink:href="#DejaVuSans-4c"/>
      <use xlink:href="#DejaVuSans-4c" x="55.712891"/>
      <use xlink:href="#DejaVuSans-4d" x="111.425781"/>
      <use xlink:href="#DejaVuSans-20" x="197.705078"/>
      <use xlink:href="#DejaVuSans-4c" x="229.492188"/>
      <use xlink:href="#DejaVuSans-69" x="285.205078"/>
      <use xlink:href="#DejaVuSans-65" x="312.988281"/>
     </g>
    </g>
   </g>
  </g>
  <g id="axes_2">
   <g id="patch_5">
    <path d="M 482.630601 273.66 
L 827.351203 273.66 
L 827.351203 56.24 
L 482.630601 56.24 
z
" style="fill: #ffffff"/>
   </g>
   <g id="matplotlib.axis_3">
    <g id="xtick_7">
     <g id="line2d_15">
      <path d="M 482.630601 273.66 
L 482.630601 56.24 
" clip-path="url(#pa811435999)" style="fill: none; stroke: #e6dfd5; stroke-opacity: 0.9; stroke-width: 0.8; stroke-linecap: square"/>
     </g>
     <g id="line2d_16"/>
     <g id="text_22">
      <!-- 0.00 -->
      <g style="fill: #334e68" transform="translate(470.384508 285.518281) scale(0.11 -0.11)">
       <defs>
        <path id="DejaVuSans-2e" d="M 684 794 
L 1344 794 
L 1344 0 
L 684 0 
L 684 794 
z
" transform="scale(0.015625)"/>
       </defs>
       <use xlink:href="#DejaVuSans-30"/>
       <use xlink:href="#DejaVuSans-2e" x="63.623047"/>
       <use xlink:href="#DejaVuSans-30" x="95.410156"/>
       <use xlink:href="#DejaVuSans-30" x="159.033203"/>
      </g>
     </g>
    </g>
    <g id="xtick_8">
     <g id="line2d_17">
      <path d="M 531.58332 273.66 
L 531.58332 56.24 
" clip-path="url(#pa811435999)" style="fill: none; stroke: #e6dfd5; stroke-opacity: 0.9; stroke-width: 0.8; stroke-linecap: square"/>
     </g>
     <g id="line2d_18"/>
     <g id="text_23">
      <!-- 0.02 -->
      <g style="fill: #334e68" transform="translate(519.337226 285.518281) scale(0.11 -0.11)">
       <use xlink:href="#DejaVuSans-30"/>
       <use xlink:href="#DejaVuSans-2e" x="63.623047"/>
       <use xlink:href="#DejaVuSans-30" x="95.410156"/>
       <use xlink:href="#DejaVuSans-32" x="159.033203"/>
      </g>
     </g>
    </g>
    <g id="xtick_9">
     <g id="line2d_19">
      <path d="M 580.536038 273.66 
L 580.536038 56.24 
" clip-path="url(#pa811435999)" style="fill: none; stroke: #e6dfd5; stroke-opacity: 0.9; stroke-width: 0.8; stroke-linecap: square"/>
     </g>
     <g id="line2d_20"/>
     <g id="text_24">
      <!-- 0.04 -->
      <g style="fill: #334e68" transform="translate(568.289944 285.518281) scale(0.11 -0.11)">
       <use xlink:href="#DejaVuSans-30"/>
       <use xlink:href="#DejaVuSans-2e" x="63.623047"/>
       <use xlink:href="#DejaVuSans-30" x="95.410156"/>
       <use xlink:href="#DejaVuSans-34" x="159.033203"/>
      </g>
     </g>
    </g>
    <g id="xtick_10">
     <g id="line2d_21">
      <path d="M 629.488756 273.66 
L 629.488756 56.24 
" clip-path="url(#pa811435999)" style="fill: none; stroke: #e6dfd5; stroke-opacity: 0.9; stroke-width: 0.8; stroke-linecap: square"/>
     </g>
     <g id="line2d_22"/>
     <g id="text_25">
      <!-- 0.06 -->
      <g style="fill: #334e68" transform="translate(617.242662 285.518281) scale(0.11 -0.11)">
       <use xlink:href="#DejaVuSans-30"/>
       <use xlink:href="#DejaVuSans-2e" x="63.623047"/>
       <use xlink:href="#DejaVuSans-30" x="95.410156"/>
       <use xlink:href="#DejaVuSans-36" x="159.033203"/>
      </g>
     </g>
    </g>
    <g id="xtick_11">
     <g id="line2d_23">
      <path d="M 678.441474 273.66 
L 678.441474 56.24 
" clip-path="url(#pa811435999)" style="fill: none; stroke: #e6dfd5; stroke-opacity: 0.9; stroke-width: 0.8; stroke-linecap: square"/>
     </g>
     <g id="line2d_24"/>
     <g id="text_26">
      <!-- 0.08 -->
      <g style="fill: #334e68" transform="translate(666.195381 285.518281) scale(0.11 -0.11)">
       <use xlink:href="#DejaVuSans-30"/>
       <use xlink:href="#DejaVuSans-2e" x="63.623047"/>
       <use xlink:href="#DejaVuSans-30" x="95.410156"/>
       <use xlink:href="#DejaVuSans-38" x="159.033203"/>
      </g>
     </g>
    </g>
    <g id="xtick_12">
     <g id="line2d_25">
      <path d="M 727.394193 273.66 
L 727.394193 56.24 
" clip-path="url(#pa811435999)" style="fill: none; stroke: #e6dfd5; stroke-opacity: 0.9; stroke-width: 0.8; stroke-linecap: square"/>
     </g>
     <g id="line2d_26"/>
     <g id="text_27">
      <!-- 0.10 -->
      <g style="fill: #334e68" transform="translate(715.148099 285.518281) scale(0.11 -0.11)">
       <use xlink:href="#DejaVuSans-30"/>
       <use xlink:href="#DejaVuSans-2e" x="63.623047"/>
       <use xlink:href="#DejaVuSans-31" x="95.410156"/>
       <use xlink:href="#DejaVuSans-30" x="159.033203"/>
      </g>
     </g>
    </g>
    <g id="xtick_13">
     <g id="line2d_27">
      <path d="M 776.346911 273.66 
L 776.346911 56.24 
" clip-path="url(#pa811435999)" style="fill: none; stroke: #e6dfd5; stroke-opacity: 0.9; stroke-width: 0.8; stroke-linecap: square"/>
     </g>
     <g id="line2d_28"/>
     <g id="text_28">
      <!-- 0.12 -->
      <g style="fill: #334e68" transform="translate(764.100817 285.518281) scale(0.11 -0.11)">
       <use xlink:href="#DejaVuSans-30"/>
       <use xlink:href="#DejaVuSans-2e" x="63.623047"/>
       <use xlink:href="#DejaVuSans-31" x="95.410156"/>
       <use xlink:href="#DejaVuSans-32" x="159.033203"/>
      </g>
     </g>
    </g>
    <g id="xtick_14">
     <g id="line2d_29">
      <path d="M 825.299629 273.66 
L 825.299629 56.24 
" clip-path="url(#pa811435999)" style="fill: none; stroke: #e6dfd5; stroke-opacity: 0.9; stroke-width: 0.8; stroke-linecap: square"/>
     </g>
     <g id="line2d_30"/>
     <g id="text_29">
      <!-- 0.14 -->
      <g style="fill: #334e68" transform="translate(813.053536 285.518281) scale(0.11 -0.11)">
       <use xlink:href="#DejaVuSans-30"/>
       <use xlink:href="#DejaVuSans-2e" x="63.623047"/>
       <use xlink:href="#DejaVuSans-31" x="95.410156"/>
       <use xlink:href="#DejaVuSans-34" x="159.033203"/>
      </g>
     </g>
    </g>
    <g id="text_30">
     <!-- Semantic Target Error (m) -->
     <g transform="translate(577.412777 300.924062) scale(0.12 -0.12)">
      <defs>
       <path id="DejaVuSans-67" d="M 2906 1791 
Q 2906 2416 2648 2759 
Q 2391 3103 1925 3103 
Q 1463 3103 1205 2759 
Q 947 2416 947 1791 
Q 947 1169 1205 825 
Q 1463 481 1925 481 
Q 2391 481 2648 825 
Q 2906 1169 2906 1791 
z
M 3481 434 
Q 3481 -459 3084 -895 
Q 2688 -1331 1869 -1331 
Q 1566 -1331 1297 -1286 
Q 1028 -1241 775 -1147 
L 775 -588 
Q 1028 -725 1275 -790 
Q 1522 -856 1778 -856 
Q 2344 -856 2625 -561 
Q 2906 -266 2906 331 
L 2906 616 
Q 2728 306 2450 153 
Q 2172 0 1784 0 
Q 1141 0 747 490 
Q 353 981 353 1791 
Q 353 2603 747 3093 
Q 1141 3584 1784 3584 
Q 2172 3584 2450 3431 
Q 2728 3278 2906 2969 
L 2906 3500 
L 3481 3500 
L 3481 434 
z
" transform="scale(0.015625)"/>
       <path id="DejaVuSans-45" d="M 628 4666 
L 3578 4666 
L 3578 4134 
L 1259 4134 
L 1259 2753 
L 3481 2753 
L 3481 2222 
L 1259 2222 
L 1259 531 
L 3634 531 
L 3634 0 
L 628 0 
L 628 4666 
z
" transform="scale(0.015625)"/>
       <path id="DejaVuSans-28" d="M 1984 4856 
Q 1566 4138 1362 3434 
Q 1159 2731 1159 2009 
Q 1159 1288 1364 580 
Q 1569 -128 1984 -844 
L 1484 -844 
Q 1016 -109 783 600 
Q 550 1309 550 2009 
Q 550 2706 781 3412 
Q 1013 4119 1484 4856 
L 1984 4856 
z
" transform="scale(0.015625)"/>
       <path id="DejaVuSans-29" d="M 513 4856 
L 1013 4856 
Q 1481 4119 1714 3412 
Q 1947 2706 1947 2009 
Q 1947 1309 1714 600 
Q 1481 -109 1013 -844 
L 513 -844 
Q 928 -128 1133 580 
Q 1338 1288 1338 2009 
Q 1338 2731 1133 3434 
Q 928 4138 513 4856 
z
" transform="scale(0.015625)"/>
      </defs>
      <use xlink:href="#DejaVuSans-53"/>
      <use xlink:href="#DejaVuSans-65" x="63.476562"/>
      <use xlink:href="#DejaVuSans-6d" x="125"/>
      <use xlink:href="#DejaVuSans-61" x="222.412109"/>
      <use xlink:href="#DejaVuSans-6e" x="283.691406"/>
      <use xlink:href="#DejaVuSans-74" x="347.070312"/>
      <use xlink:href="#DejaVuSans-69" x="386.279297"/>
      <use xlink:href="#DejaVuSans-63" x="414.0625"/>
      <use xlink:href="#DejaVuSans-20" x="469.042969"/>
      <use xlink:href="#DejaVuSans-54" x="500.830078"/>
      <use xlink:href="#DejaVuSans-61" x="545.414062"/>
      <use xlink:href="#DejaVuSans-72" x="606.693359"/>
      <use xlink:href="#DejaVuSans-67" x="646.056641"/>
      <use xlink:href="#DejaVuSans-65" x="709.533203"/>
      <use xlink:href="#DejaVuSans-74" x="771.056641"/>
      <use xlink:href="#DejaVuSans-20" x="810.265625"/>
      <use xlink:href="#DejaVuSans-45" x="842.052734"/>
      <use xlink:href="#DejaVuSans-72" x="905.236328"/>
      <use xlink:href="#DejaVuSans-72" x="944.599609"/>
      <use xlink:href="#DejaVuSans-6f" x="983.462891"/>
      <use xlink:href="#DejaVuSans-72" x="1044.644531"/>
      <use xlink:href="#DejaVuSans-20" x="1085.757812"/>
      <use xlink:href="#DejaVuSans-28" x="1117.544922"/>
      <use xlink:href="#DejaVuSans-6d" x="1156.558594"/>
      <use xlink:href="#DejaVuSans-29" x="1253.970703"/>
     </g>
    </g>
   </g>
   <g id="matplotlib.axis_4">
    <g id="ytick_3">
     <g id="line2d_31"/>
    </g>
    <g id="ytick_4">
     <g id="line2d_32"/>
    </g>
   </g>
   <g id="patch_6">
    <path d="M 482.630601 273.66 
L 482.630601 56.24 
" style="fill: none; stroke: #cfd8dc; stroke-width: 0.8; stroke-linejoin: miter; stroke-linecap: square"/>
   </g>
   <g id="patch_7">
    <path d="M 482.630601 273.66 
L 827.351203 273.66 
" style="fill: none; stroke: #cfd8dc; stroke-width: 0.8; stroke-linejoin: miter; stroke-linecap: square"/>
   </g>
   <g id="PathCollection_7">
    <defs>
     <path id="m3ba6137856" d="M 0 4.609772 
C 1.222526 4.609772 2.395145 4.124058 3.259601 3.259601 
C 4.124058 2.395145 4.609772 1.222526 4.609772 0 
C 4.609772 -1.222526 4.124058 -2.395145 3.259601 -3.259601 
C 2.395145 -4.124058 1.222526 -4.609772 0 -4.609772 
C -1.222526 -4.609772 -2.395145 -4.124058 -3.259601 -3.259601 
C -4.124058 -2.395145 -4.609772 -1.222526 -4.609772 0 
C -4.609772 1.222526 -4.124058 2.395145 -3.259601 3.259601 
C -2.395145 4.124058 -1.222526 4.609772 0 4.609772 
z
" style="stroke: #355070"/>
    </defs>
    <g clip-path="url(#pa811435999)">
     <use xlink:href="#m3ba6137856" x="600.624903" y="263.777273" style="fill: #355070; stroke: #355070"/>
     <use xlink:href="#m3ba6137856" x="515.967148" y="118.443048" style="fill: #355070; stroke: #355070"/>
    </g>
   </g>
   <g id="text_31">
    <!-- 0.048 m -->
    <g style="fill: #243b53" transform="translate(605.520175 266.536648) scale(0.1 -0.1)">
     <use xlink:href="#DejaVuSans-30"/>
     <use xlink:href="#DejaVuSans-2e" x="63.623047"/>
     <use xlink:href="#DejaVuSans-30" x="95.410156"/>
     <use xlink:href="#DejaVuSans-34" x="159.033203"/>
     <use xlink:href="#DejaVuSans-38" x="222.65625"/>
     <use xlink:href="#DejaVuSans-20" x="286.279297"/>
     <use xlink:href="#DejaVuSans-6d" x="318.066406"/>
    </g>
   </g>
   <g id="text_32">
    <!-- 0.014 m -->
    <g style="fill: #243b53" transform="translate(520.862419 121.202423) scale(0.1 -0.1)">
     <use xlink:href="#DejaVuSans-30"/>
     <use xlink:href="#DejaVuSans-2e" x="63.623047"/>
     <use xlink:href="#DejaVuSans-30" x="95.410156"/>
     <use xlink:href="#DejaVuSans-31" x="159.033203"/>
     <use xlink:href="#DejaVuSans-34" x="222.65625"/>
     <use xlink:href="#DejaVuSans-20" x="286.279297"/>
     <use xlink:href="#DejaVuSans-6d" x="318.066406"/>
    </g>
   </g>
   <g id="PathCollection_8">
    <defs>
     <path id="m994254d534" d="M 0 4.609772 
C 1.222526 4.609772 2.395145 4.124058 3.259601 3.259601 
C 4.124058 2.395145 4.609772 1.222526 4.609772 0 
C 4.609772 -1.222526 4.124058 -2.395145 3.259601 -3.259601 
C 2.395145 -4.124058 1.222526 -4.609772 0 -4.609772 
C -1.222526 -4.609772 -2.395145 -4.124058 -3.259601 -3.259601 
C -4.124058 -2.395145 -4.609772 -1.222526 -4.609772 0 
C -4.609772 1.222526 -4.124058 2.395145 -3.259601 3.259601 
C -2.395145 4.124058 -1.222526 4.609772 0 4.609772 
z
" style="stroke: #6d597a"/>
    </defs>
    <g clip-path="url(#pa811435999)">
     <use xlink:href="#m994254d534" x="758.407082" y="237.617112" style="fill: #6d597a; stroke: #6d597a"/>
     <use xlink:href="#m994254d534" x="698.605631" y="92.282888" style="fill: #6d597a; stroke: #6d597a"/>
    </g>
   </g>
   <g id="text_33">
    <!-- 0.113 m -->
    <g style="fill: #243b53" transform="translate(763.302354 240.376487) scale(0.1 -0.1)">
     <defs>
      <path id="DejaVuSans-33" d="M 2597 2516 
Q 3050 2419 3304 2112 
Q 3559 1806 3559 1356 
Q 3559 666 3084 287 
Q 2609 -91 1734 -91 
Q 1441 -91 1130 -33 
Q 819 25 488 141 
L 488 750 
Q 750 597 1062 519 
Q 1375 441 1716 441 
Q 2309 441 2620 675 
Q 2931 909 2931 1356 
Q 2931 1769 2642 2001 
Q 2353 2234 1838 2234 
L 1294 2234 
L 1294 2753 
L 1863 2753 
Q 2328 2753 2575 2939 
Q 2822 3125 2822 3475 
Q 2822 3834 2567 4026 
Q 2313 4219 1838 4219 
Q 1578 4219 1281 4162 
Q 984 4106 628 3988 
L 628 4550 
Q 988 4650 1302 4700 
Q 1616 4750 1894 4750 
Q 2613 4750 3031 4423 
Q 3450 4097 3450 3541 
Q 3450 3153 3228 2886 
Q 3006 2619 2597 2516 
z
" transform="scale(0.015625)"/>
     </defs>
     <use xlink:href="#DejaVuSans-30"/>
     <use xlink:href="#DejaVuSans-2e" x="63.623047"/>
     <use xlink:href="#DejaVuSans-31" x="95.410156"/>
     <use xlink:href="#DejaVuSans-31" x="159.033203"/>
     <use xlink:href="#DejaVuSans-33" x="222.65625"/>
     <use xlink:href="#DejaVuSans-20" x="286.279297"/>
     <use xlink:href="#DejaVuSans-6d" x="318.066406"/>
    </g>
   </g>
   <g id="text_34">
    <!-- 0.088 m -->
    <g style="fill: #243b53" transform="translate(703.500903 95.042263) scale(0.1 -0.1)">
     <use xlink:href="#DejaVuSans-30"/>
     <use xlink:href="#DejaVuSans-2e" x="63.623047"/>
     <use xlink:href="#DejaVuSans-30" x="95.410156"/>
     <use xlink:href="#DejaVuSans-38" x="159.033203"/>
     <use xlink:href="#DejaVuSans-38" x="222.65625"/>
     <use xlink:href="#DejaVuSans-20" x="286.279297"/>
     <use xlink:href="#DejaVuSans-6d" x="318.066406"/>
    </g>
   </g>
   <g id="PathCollection_9">
    <defs>
     <path id="m4a0485babc" d="M 0 4.609772 
C 1.222526 4.609772 2.395145 4.124058 3.259601 3.259601 
C 4.124058 2.395145 4.609772 1.222526 4.609772 0 
C 4.609772 -1.222526 4.124058 -2.395145 3.259601 -3.259601 
C 2.395145 -4.124058 1.222526 -4.609772 0 -4.609772 
C -1.222526 -4.609772 -2.395145 -4.124058 -3.259601 -3.259601 
C -4.124058 -2.395145 -4.609772 -1.222526 -4.609772 0 
C -4.609772 1.222526 -4.124058 2.395145 -3.259601 3.259601 
C -2.395145 4.124058 -1.222526 4.609772 0 4.609772 
z
" style="stroke: #e56b6f"/>
    </defs>
    <g clip-path="url(#pa811435999)">
     <use xlink:href="#m4a0485babc" x="482.630606" y="211.456952" style="fill: #e56b6f; stroke: #e56b6f"/>
     <use xlink:href="#m4a0485babc" x="482.630601" y="66.122727" style="fill: #e56b6f; stroke: #e56b6f"/>
    </g>
   </g>
   <g id="text_35">
    <!-- 0.000 m -->
    <g style="fill: #243b53" transform="translate(487.525878 214.216327) scale(0.1 -0.1)">
     <use xlink:href="#DejaVuSans-30"/>
     <use xlink:href="#DejaVuSans-2e" x="63.623047"/>
     <use xlink:href="#DejaVuSans-30" x="95.410156"/>
     <use xlink:href="#DejaVuSans-30" x="159.033203"/>
     <use xlink:href="#DejaVuSans-30" x="222.65625"/>
     <use xlink:href="#DejaVuSans-20" x="286.279297"/>
     <use xlink:href="#DejaVuSans-6d" x="318.066406"/>
    </g>
   </g>
   <g id="text_36">
    <!-- 0.000 m -->
    <g style="fill: #243b53" transform="translate(487.525873 68.882102) scale(0.1 -0.1)">
     <use xlink:href="#DejaVuSans-30"/>
     <use xlink:href="#DejaVuSans-2e" x="63.623047"/>
     <use xlink:href="#DejaVuSans-30" x="95.410156"/>
     <use xlink:href="#DejaVuSans-30" x="159.033203"/>
     <use xlink:href="#DejaVuSans-30" x="222.65625"/>
     <use xlink:href="#DejaVuSans-20" x="286.279297"/>
     <use xlink:href="#DejaVuSans-6d" x="318.066406"/>
    </g>
   </g>
   <g id="text_37">
    <!-- Semantic Target Error by Family -->
    <g style="fill: #243b53" transform="translate(482.630601 48.24) scale(0.16 -0.16)">
     <use xlink:href="#DejaVuSans-53"/>
     <use xlink:href="#DejaVuSans-65" x="63.476562"/>
     <use xlink:href="#DejaVuSans-6d" x="125"/>
     <use xlink:href="#DejaVuSans-61" x="222.412109"/>
     <use xlink:href="#DejaVuSans-6e" x="283.691406"/>
     <use xlink:href="#DejaVuSans-74" x="347.070312"/>
     <use xlink:href="#DejaVuSans-69" x="386.279297"/>
     <use xlink:href="#DejaVuSans-63" x="414.0625"/>
     <use xlink:href="#DejaVuSans-20" x="469.042969"/>
     <use xlink:href="#DejaVuSans-54" x="500.830078"/>
     <use xlink:href="#DejaVuSans-61" x="545.414062"/>
     <use xlink:href="#DejaVuSans-72" x="606.693359"/>
     <use xlink:href="#DejaVuSans-67" x="646.056641"/>
     <use xlink:href="#DejaVuSans-65" x="709.533203"/>
     <use xlink:href="#DejaVuSans-74" x="771.056641"/>
     <use xlink:href="#DejaVuSans-20" x="810.265625"/>
     <use xlink:href="#DejaVuSans-45" x="842.052734"/>
     <use xlink:href="#DejaVuSans-72" x="905.236328"/>
     <use xlink:href="#DejaVuSans-72" x="944.599609"/>
     <use xlink:href="#DejaVuSans-6f" x="983.462891"/>
     <use xlink:href="#DejaVuSans-72" x="1044.644531"/>
     <use xlink:href="#DejaVuSans-20" x="1085.757812"/>
     <use xlink:href="#DejaVuSans-62" x="1117.544922"/>
     <use xlink:href="#DejaVuSans-79" x="1181.021484"/>
     <use xlink:href="#DejaVuSans-20" x="1240.201172"/>
     <use xlink:href="#DejaVuSans-46" x="1271.988281"/>
     <use xlink:href="#DejaVuSans-61" x="1320.382812"/>
     <use xlink:href="#DejaVuSans-6d" x="1381.662109"/>
     <use xlink:href="#DejaVuSans-69" x="1479.074219"/>
     <use xlink:href="#DejaVuSans-6c" x="1506.857422"/>
     <use xlink:href="#DejaVuSans-79" x="1534.640625"/>
    </g>
   </g>
  </g>
  <g id="text_38">
   <!-- Geometry Aggregate Summary -->
   <g style="fill: #243b53" transform="translate(50.976 13.197938) scale(0.132 -0.132)">
    <defs>
     <path id="DejaVuSans-47" d="M 3809 666 
L 3809 1919 
L 2778 1919 
L 2778 2438 
L 4434 2438 
L 4434 434 
Q 4069 175 3628 42 
Q 3188 -91 2688 -91 
Q 1594 -91 976 548 
Q 359 1188 359 2328 
Q 359 3472 976 4111 
Q 1594 4750 2688 4750 
Q 3144 4750 3555 4637 
Q 3966 4525 4313 4306 
L 4313 3634 
Q 3963 3931 3569 4081 
Q 3175 4231 2741 4231 
Q 1884 4231 1454 3753 
Q 1025 3275 1025 2328 
Q 1025 1384 1454 906 
Q 1884 428 2741 428 
Q 3075 428 3337 486 
Q 3600 544 3809 666 
z
" transform="scale(0.015625)"/>
     <path id="DejaVuSans-75" d="M 544 1381 
L 544 3500 
L 1119 3500 
L 1119 1403 
Q 1119 906 1312 657 
Q 1506 409 1894 409 
Q 2359 409 2629 706 
Q 2900 1003 2900 1516 
L 2900 3500 
L 3475 3500 
L 3475 0 
L 2900 0 
L 2900 538 
Q 2691 219 2414 64 
Q 2138 -91 1772 -91 
Q 1169 -91 856 284 
Q 544 659 544 1381 
z
M 1991 3584 
L 1991 3584 
z
" transform="scale(0.015625)"/>
    </defs>
    <use xlink:href="#DejaVuSans-47"/>
    <use xlink:href="#DejaVuSans-65" x="77.490234"/>
    <use xlink:href="#DejaVuSans-6f" x="139.013672"/>
    <use xlink:href="#DejaVuSans-6d" x="200.195312"/>
    <use xlink:href="#DejaVuSans-65" x="297.607422"/>
    <use xlink:href="#DejaVuSans-74" x="359.130859"/>
    <use xlink:href="#DejaVuSans-72" x="398.339844"/>
    <use xlink:href="#DejaVuSans-79" x="439.453125"/>
    <use xlink:href="#DejaVuSans-20" x="498.632812"/>
    <use xlink:href="#DejaVuSans-41" x="530.419922"/>
    <use xlink:href="#DejaVuSans-67" x="598.828125"/>
    <use xlink:href="#DejaVuSans-67" x="662.304688"/>
    <use xlink:href="#DejaVuSans-72" x="725.78125"/>
    <use xlink:href="#DejaVuSans-65" x="764.644531"/>
    <use xlink:href="#DejaVuSans-67" x="826.167969"/>
    <use xlink:href="#DejaVuSans-61" x="889.644531"/>
    <use xlink:href="#DejaVuSans-74" x="950.923828"/>
    <use xlink:href="#DejaVuSans-65" x="990.132812"/>
    <use xlink:href="#DejaVuSans-20" x="1051.65625"/>
    <use xlink:href="#DejaVuSans-53" x="1083.443359"/>
    <use xlink:href="#DejaVuSans-75" x="1146.919922"/>
    <use xlink:href="#DejaVuSans-6d" x="1210.298828"/>
    <use xlink:href="#DejaVuSans-6d" x="1307.710938"/>
    <use xlink:href="#DejaVuSans-61" x="1405.123047"/>
    <use xlink:href="#DejaVuSans-72" x="1466.402344"/>
    <use xlink:href="#DejaVuSans-79" x="1507.515625"/>
   </g>
  </g>
 </g>
 <defs>
  <clipPath id="p193c294095">
   <rect x="98.22" y="56.24" width="344.720601" height="217.42"/>
  </clipPath>
  <clipPath id="pa811435999">
   <rect x="482.630601" y="56.24" width="344.720601" height="217.42"/>
  </clipPath>
 </defs>
</svg>
