<?xml version="1.0" encoding="utf-8" standalone="no"?>
<!DOCTYPE svg PUBLIC "-//W3C//DTD SVG 1.1//EN"
  "http://www.w3.org/Graphics/SVG/1.1/DTD/svg11.dtd">
<svg xmlns:xlink="http://www.w3.org/1999/xlink" width="777.6pt" height="532.8pt" viewBox="0 0 777.6 532.8" xmlns="http://www.w3.org/2000/svg" version="1.1">
 <metadata>
  <rdf:RDF xmlns:dc="http://purl.org/dc/elements/1.1/" xmlns:cc="http://creativecommons.org/ns#" xmlns:rdf="http://www.w3.org/1999/02/22-rdf-syntax-ns#">
   <cc:Work>
    <dc:type rdf:resource="http://purl.org/dc/dcmitype/StillImage"/>
    <dc:date>2026-04-24T07:33:31.975600</dc:date>
    <dc:format>image/svg+xml</dc:format>
    <dc:creator>
     <cc:Agent>
      <dc:title>Matplotlib v3.8.4, https://matplotlib.org/</dc:title>
     </cc:Agent>
    </dc:creator>
   </cc:Work>
  </rdf:RDF>
 </metadata>
 <defs>
  <style type="text/css">*{stroke-linejoin: round; stroke-linecap: butt}</style>
 </defs>
 <g id="figure_1">
  <g id="patch_1">
   <path d="M 0 532.8 
L 777.6 532.8 
L 777.6 0 
L 0 0 
z
" style="fill: #ffffff"/>
  </g>
  <g id="axes_1">
   <g id="patch_2">
    <path d="M 56.73 242.34 
L 367.92 242.34 
L 367.92 56.24 
L 56.73 56.24 
z
" style="fill: #ffffff"/>
   </g>
   <g id="matplotlib.axis_1">
    <g id="xtick_1">
     <g id="line2d_1">
      <path d="M 90.568001 242.34 
L 90.568001 56.24 
" clip-path="url(#pff6fbff898)" style="fill: none; stroke: #e6dfd5; stroke-opacity: 0.9; stroke-width: 0.8; stroke-linecap: square"/>
     </g>
     <g id="line2d_2"/>
     <g id="text_1">
      <!-- −0.20 -->
      <g style="fill: #334e68" transform="translate(73.713079 254.198281) scale(0.11 -0.11)">
       <defs>
        <path id="DejaVuSans-2212" d="M 678 2272 
L 4684 2272 
L 4684 1741 
L 678 1741 
L 678 2272 
z
" transform="scale(0.015625)"/>
        <path id="DejaVuSans-30" d="M 2034 4250 
Q 1547 4250 1301 3770 
Q 1056 3291 1056 2328 
Q 1056 1369 1301 889 
Q 1547 409 2034 409 
Q 2525 409 2770 889 
Q 3016 1369 3016 2328 
Q 3016 3291 2770 3770 
Q 2525 4250 2034 4250 
z
M 2034 4750 
Q 2819 4750 3233 4129 
Q 3647 3509 3647 2328 
Q 3647 1150 3233 529 
Q 2819 -91 2034 -91 
Q 1250 -91 836 529 
Q 422 1150 422 2328 
Q 422 3509 836 4129 
Q 1250 4750 2034 4750 
z
" transform="scale(0.015625)"/>
        <path id="DejaVuSans-2e" d="M 684 794 
L 1344 794 
L 1344 0 
L 684 0 
L 684 794 
z
" transform="scale(0.015625)"/>
        <path id="DejaVuSans-32" d="M 1228 531 
L 3431 531 
L 3431 0 
L 469 0 
L 469 531 
Q 828 903 1448 1529 
Q 2069 2156 2228 2338 
Q 2531 2678 2651 2914 
Q 2772 3150 2772 3378 
Q 2772 3750 2511 3984 
Q 2250 4219 1831 4219 
Q 1534 4219 1204 4116 
Q 875 4013 500 3803 
L 500 4441 
Q 881 4594 1212 4672 
Q 1544 4750 1819 4750 
Q 2544 4750 2975 4387 
Q 3406 4025 3406 3419 
Q 3406 3131 3298 2873 
Q 3191 2616 2906 2266 
Q 2828 2175 2409 1742 
Q 1991 1309 1228 531 
z
" transform="scale(0.015625)"/>
       </defs>
       <use xlink:href="#DejaVuSans-2212"/>
       <use xlink:href="#DejaVuSans-30" x="83.789062"/>
       <use xlink:href="#DejaVuSans-2e" x="147.412109"/>
       <use xlink:href="#DejaVuSans-32" x="179.199219"/>
       <use xlink:href="#DejaVuSans-30" x="242.822266"/>
      </g>
     </g>
    </g>
    <g id="xtick_2">
     <g id="line2d_3">
      <path d="M 133.956304 242.34 
L 133.956304 56.24 
" clip-path="url(#pff6fbff898)" style="fill: none; stroke: #e6dfd5; stroke-opacity: 0.9; stroke-width: 0.8; stroke-linecap: square"/>
     </g>
     <g id="line2d_4"/>
     <g id="text_2">
      <!-- −0.15 -->
      <g style="fill: #334e68" transform="translate(117.101382 254.198281) scale(0.11 -0.11)">
       <defs>
        <path id="DejaVuSans-31" d="M 794 531 
L 1825 531 
L 1825 4091 
L 703 3866 
L 703 4441 
L 1819 4666 
L 2450 4666 
L 2450 531 
L 3481 531 
L 3481 0 
L 794 0 
L 794 531 
z
" transform="scale(0.015625)"/>
        <path id="DejaVuSans-35" d="M 691 4666 
L 3169 4666 
L 3169 4134 
L 1269 4134 
L 1269 2991 
Q 1406 3038 1543 3061 
Q 1681 3084 1819 3084 
Q 2600 3084 3056 2656 
Q 3513 2228 3513 1497 
Q 3513 744 3044 326 
Q 2575 -91 1722 -91 
Q 1428 -91 1123 -41 
Q 819 9 494 109 
L 494 744 
Q 775 591 1075 516 
Q 1375 441 1709 441 
Q 2250 441 2565 725 
Q 2881 1009 2881 1497 
Q 2881 1984 2565 2268 
Q 2250 2553 1709 2553 
Q 1456 2553 1204 2497 
Q 953 2441 691 2322 
L 691 4666 
z
" transform="scale(0.015625)"/>
       </defs>
       <use xlink:href="#DejaVuSans-2212"/>
       <use xlink:href="#DejaVuSans-30" x="83.789062"/>
       <use xlink:href="#DejaVuSans-2e" x="147.412109"/>
       <use xlink:href="#DejaVuSans-31" x="179.199219"/>
       <use xlink:href="#DejaVuSans-35" x="242.822266"/>
      </g>
     </g>
    </g>
    <g id="xtick_3">
     <g id="line2d_5">
      <path d="M 177.344607 242.34 
L 177.344607 56.24 
" clip-path="url(#pff6fbff898)" style="fill: none; stroke: #e6dfd5; stroke-opacity: 0.9; stroke-width: 0.8; stroke-linecap: square"/>
     </g>
     <g id="line2d_6"/>
     <g id="text_3">
      <!-- −0.10 -->
      <g style="fill: #334e68" transform="translate(160.489686 254.198281) scale(0.11 -0.11)">
       <use xlink:href="#DejaVuSans-2212"/>
       <use xlink:href="#DejaVuSans-30" x="83.789062"/>
       <use xlink:href="#DejaVuSans-2e" x="147.412109"/>
       <use xlink:href="#DejaVuSans-31" x="179.199219"/>
       <use xlink:href="#DejaVuSans-30" x="242.822266"/>
      </g>
     </g>
    </g>
    <g id="xtick_4">
     <g id="line2d_7">
      <path d="M 220.732911 242.34 
L 220.732911 56.24 
" clip-path="url(#pff6fbff898)" style="fill: none; stroke: #e6dfd5; stroke-opacity: 0.9; stroke-width: 0.8; stroke-linecap: square"/>
     </g>
     <g id="line2d_8"/>
     <g id="text_4">
      <!-- −0.05 -->
      <g style="fill: #334e68" transform="translate(203.877989 254.198281) scale(0.11 -0.11)">
       <use xlink:href="#DejaVuSans-2212"/>
       <use xlink:href="#DejaVuSans-30" x="83.789062"/>
       <use xlink:href="#DejaVuSans-2e" x="147.412109"/>
       <use xlink:href="#DejaVuSans-30" x="179.199219"/>
       <use xlink:href="#DejaVuSans-35" x="242.822266"/>
      </g>
     </g>
    </g>
    <g id="xtick_5">
     <g id="line2d_9">
      <path d="M 264.121214 242.34 
L 264.121214 56.24 
" clip-path="url(#pff6fbff898)" style="fill: none; stroke: #e6dfd5; stroke-opacity: 0.9; stroke-width: 0.8; stroke-linecap: square"/>
     </g>
     <g id="line2d_10"/>
     <g id="text_5">
      <!-- 0.00 -->
      <g style="fill: #334e68" transform="translate(251.87512 254.198281) scale(0.11 -0.11)">
       <use xlink:href="#DejaVuSans-30"/>
       <use xlink:href="#DejaVuSans-2e" x="63.623047"/>
       <use xlink:href="#DejaVuSans-30" x="95.410156"/>
       <use xlink:href="#DejaVuSans-30" x="159.033203"/>
      </g>
     </g>
    </g>
    <g id="xtick_6">
     <g id="line2d_11">
      <path d="M 307.509517 242.34 
L 307.509517 56.24 
" clip-path="url(#pff6fbff898)" style="fill: none; stroke: #e6dfd5; stroke-opacity: 0.9; stroke-width: 0.8; stroke-linecap: square"/>
     </g>
     <g id="line2d_12"/>
     <g id="text_6">
      <!-- 0.05 -->
      <g style="fill: #334e68" transform="translate(295.263423 254.198281) scale(0.11 -0.11)">
       <use xlink:href="#DejaVuSans-30"/>
       <use xlink:href="#DejaVuSans-2e" x="63.623047"/>
       <use xlink:href="#DejaVuSans-30" x="95.410156"/>
       <use xlink:href="#DejaVuSans-35" x="159.033203"/>
      </g>
     </g>
    </g>
    <g id="xtick_7">
     <g id="line2d_13">
      <path d="M 350.89782 242.34 
L 350.89782 56.24 
" clip-path="url(#pff6fbff898)" style="fill: none; stroke: #e6dfd5; stroke-opacity: 0.9; stroke-width: 0.8; stroke-linecap: square"/>
     </g>
     <g id="line2d_14"/>
     <g id="text_7">
      <!-- 0.10 -->
      <g style="fill: #334e68" transform="translate(338.651726 254.198281) scale(0.11 -0.11)">
       <use xlink:href="#DejaVuSans-30"/>
       <use xlink:href="#DejaVuSans-2e" x="63.623047"/>
       <use xlink:href="#DejaVuSans-31" x="95.410156"/>
       <use xlink:href="#DejaVuSans-30" x="159.033203"/>
      </g>
     </g>
    </g>
    <g id="text_8">
     <!-- X (m) -->
     <g transform="translate(195.781875 269.604063) scale(0.12 -0.12)">
      <defs>
       <path id="DejaVuSans-58" d="M 403 4666 
L 1081 4666 
L 2241 2931 
L 3406 4666 
L 4084 4666 
L 2584 2425 
L 4184 0 
L 3506 0 
L 2194 1984 
L 872 0 
L 191 0 
L 1856 2491 
L 403 4666 
z
" transform="scale(0.015625)"/>
       <path id="DejaVuSans-20" transform="scale(0.015625)"/>
       <path id="DejaVuSans-28" d="M 1984 4856 
Q 1566 4138 1362 3434 
Q 1159 2731 1159 2009 
Q 1159 1288 1364 580 
Q 1569 -128 1984 -844 
L 1484 -844 
Q 1016 -109 783 600 
Q 550 1309 550 2009 
Q 550 2706 781 3412 
Q 1013 4119 1484 4856 
L 1984 4856 
z
" transform="scale(0.015625)"/>
       <path id="DejaVuSans-6d" d="M 3328 2828 
Q 3544 3216 3844 3400 
Q 4144 3584 4550 3584 
Q 5097 3584 5394 3201 
Q 5691 2819 5691 2113 
L 5691 0 
L 5113 0 
L 5113 2094 
Q 5113 2597 4934 2840 
Q 4756 3084 4391 3084 
Q 3944 3084 3684 2787 
Q 3425 2491 3425 1978 
L 3425 0 
L 2847 0 
L 2847 2094 
Q 2847 2600 2669 2842 
Q 2491 3084 2119 3084 
Q 1678 3084 1418 2786 
Q 1159 2488 1159 1978 
L 1159 0 
L 581 0 
L 581 3500 
L 1159 3500 
L 1159 2956 
Q 1356 3278 1631 3431 
Q 1906 3584 2284 3584 
Q 2666 3584 2933 3390 
Q 3200 3197 3328 2828 
z
" transform="scale(0.015625)"/>
       <path id="DejaVuSans-29" d="M 513 4856 
L 1013 4856 
Q 1481 4119 1714 3412 
Q 1947 2706 1947 2009 
Q 1947 1309 1714 600 
Q 1481 -109 1013 -844 
L 513 -844 
Q 928 -128 1133 580 
Q 1338 1288 1338 2009 
Q 1338 2731 1133 3434 
Q 928 4138 513 4856 
z
" transform="scale(0.015625)"/>
      </defs>
      <use xlink:href="#DejaVuSans-58"/>
      <use xlink:href="#DejaVuSans-20" x="68.505859"/>
      <use xlink:href="#DejaVuSans-28" x="100.292969"/>
      <use xlink:href="#DejaVuSans-6d" x="139.306641"/>
      <use xlink:href="#DejaVuSans-29" x="236.71875"/>
     </g>
    </g>
   </g>
   <g id="matplotlib.axis_2">
    <g id="ytick_1">
     <g id="line2d_15"/>
     <g id="text_9">
      <!-- 0.04 -->
      <g style="fill: #334e68" transform="translate(28.737813 242.796457) scale(0.11 -0.11)">
       <defs>
        <path id="DejaVuSans-34" d="M 2419 4116 
L 825 1625 
L 2419 1625 
L 2419 4116 
z
M 2253 4666 
L 3047 4666 
L 3047 1625 
L 3713 1625 
L 3713 1100 
L 3047 1100 
L 3047 0 
L 2419 0 
L 2419 1100 
L 313 1100 
L 313 1709 
L 2253 4666 
z
" transform="scale(0.015625)"/>
       </defs>
       <use xlink:href="#DejaVuSans-30"/>
       <use xlink:href="#DejaVuSans-2e" x="63.623047"/>
       <use xlink:href="#DejaVuSans-30" x="95.410156"/>
       <use xlink:href="#DejaVuSans-34" x="159.033203"/>
      </g>
     </g>
    </g>
    <g id="ytick_2">
     <g id="line2d_16"/>
     <g id="text_10">
      <!-- 0.06 -->
      <g style="fill: #334e68" transform="translate(28.737813 206.207192) scale(0.11 -0.11)">
       <defs>
        <path id="DejaVuSans-36" d="M 2113 2584 
Q 1688 2584 1439 2293 
Q 1191 2003 1191 1497 
Q 1191 994 1439 701 
Q 1688 409 2113 409 
Q 2538 409 2786 701 
Q 3034 994 3034 1497 
Q 3034 2003 2786 2293 
Q 2538 2584 2113 2584 
z
M 3366 4563 
L 3366 3988 
Q 3128 4100 2886 4159 
Q 2644 4219 2406 4219 
Q 1781 4219 1451 3797 
Q 1122 3375 1075 2522 
Q 1259 2794 1537 2939 
Q 1816 3084 2150 3084 
Q 2853 3084 3261 2657 
Q 3669 2231 3669 1497 
Q 3669 778 3244 343 
Q 2819 -91 2113 -91 
Q 1303 -91 875 529 
Q 447 1150 447 2328 
Q 447 3434 972 4092 
Q 1497 4750 2381 4750 
Q 2619 4750 2861 4703 
Q 3103 4656 3366 4563 
z
" transform="scale(0.015625)"/>
       </defs>
       <use xlink:href="#DejaVuSans-30"/>
       <use xlink:href="#DejaVuSans-2e" x="63.623047"/>
       <use xlink:href="#DejaVuSans-30" x="95.410156"/>
       <use xlink:href="#DejaVuSans-36" x="159.033203"/>
      </g>
     </g>
    </g>
    <g id="ytick_3">
     <g id="line2d_17"/>
     <g id="text_11">
      <!-- 0.08 -->
      <g style="fill: #334e68" transform="translate(28.737813 169.617926) scale(0.11 -0.11)">
       <defs>
        <path id="DejaVuSans-38" d="M 2034 2216 
Q 1584 2216 1326 1975 
Q 1069 1734 1069 1313 
Q 1069 891 1326 650 
Q 1584 409 2034 409 
Q 2484 409 2743 651 
Q 3003 894 3003 1313 
Q 3003 1734 2745 1975 
Q 2488 2216 2034 2216 
z
M 1403 2484 
Q 997 2584 770 2862 
Q 544 3141 544 3541 
Q 544 4100 942 4425 
Q 1341 4750 2034 4750 
Q 2731 4750 3128 4425 
Q 3525 4100 3525 3541 
Q 3525 3141 3298 2862 
Q 3072 2584 2669 2484 
Q 3125 2378 3379 2068 
Q 3634 1759 3634 1313 
Q 3634 634 3220 271 
Q 2806 -91 2034 -91 
Q 1263 -91 848 271 
Q 434 634 434 1313 
Q 434 1759 690 2068 
Q 947 2378 1403 2484 
z
M 1172 3481 
Q 1172 3119 1398 2916 
Q 1625 2713 2034 2713 
Q 2441 2713 2670 2916 
Q 2900 3119 2900 3481 
Q 2900 3844 2670 4047 
Q 2441 4250 2034 4250 
Q 1625 4250 1398 4047 
Q 1172 3844 1172 3481 
z
" transform="scale(0.015625)"/>
       </defs>
       <use xlink:href="#DejaVuSans-30"/>
       <use xlink:href="#DejaVuSans-2e" x="63.623047"/>
       <use xlink:href="#DejaVuSans-30" x="95.410156"/>
       <use xlink:href="#DejaVuSans-38" x="159.033203"/>
      </g>
     </g>
    </g>
    <g id="ytick_4">
     <g id="line2d_18"/>
     <g id="text_12">
      <!-- 0.10 -->
      <g style="fill: #334e68" transform="translate(28.737813 133.028661) scale(0.11 -0.11)">
       <use xlink:href="#DejaVuSans-30"/>
       <use xlink:href="#DejaVuSans-2e" x="63.623047"/>
       <use xlink:href="#DejaVuSans-31" x="95.410156"/>
       <use xlink:href="#DejaVuSans-30" x="159.033203"/>
      </g>
     </g>
    </g>
    <g id="ytick_5">
     <g id="line2d_19"/>
     <g id="text_13">
      <!-- 0.12 -->
      <g style="fill: #334e68" transform="translate(28.737813 96.439395) scale(0.11 -0.11)">
       <use xlink:href="#DejaVuSans-30"/>
       <use xlink:href="#DejaVuSans-2e" x="63.623047"/>
       <use xlink:href="#DejaVuSans-31" x="95.410156"/>
       <use xlink:href="#DejaVuSans-32" x="159.033203"/>
      </g>
     </g>
    </g>
    <g id="text_14">
     <!-- Y (m) -->
     <g transform="translate(22.242188 165.387813) rotate(-90) scale(0.12 -0.12)">
      <defs>
       <path id="DejaVuSans-59" d="M -13 4666 
L 666 4666 
L 1959 2747 
L 3244 4666 
L 3922 4666 
L 2272 2222 
L 2272 0 
L 1638 0 
L 1638 2222 
L -13 4666 
z
" transform="scale(0.015625)"/>
      </defs>
      <use xlink:href="#DejaVuSans-59"/>
      <use xlink:href="#DejaVuSans-20" x="61.083984"/>
      <use xlink:href="#DejaVuSans-28" x="92.871094"/>
      <use xlink:href="#DejaVuSans-6d" x="131.884766"/>
      <use xlink:href="#DejaVuSans-29" x="229.296875"/>
     </g>
    </g>
   </g>
   <g id="PathCollection_1">
    <defs>
     <path id="mfc63553d08" d="M 0 2.12132 
C 0.562581 2.12132 1.102195 1.897805 1.5 1.5 
C 1.897805 1.102195 2.12132 0.562581 2.12132 0 
C 2.12132 -0.562581 1.897805 -1.102195 1.5 -1.5 
C 1.102195 -1.897805 0.562581 -2.12132 0 -2.12132 
C -0.562581 -2.12132 -1.102195 -1.897805 -1.5 -1.5 
C -1.897805 -1.102195 -2.12132 -0.562581 -2.12132 0 
C -2.12132 0.562581 -1.897805 1.102195 -1.5 1.5 
C -1.102195 1.897805 -0.562581 2.12132 0 2.12132 
z
" style="stroke: #355070; stroke-opacity: 0.7"/>
    </defs>
    <g clip-path="url(#pff6fbff898)">
     <use xlink:href="#mfc63553d08" x="326.838241" y="143.966556" style="fill: #355070; fill-opacity: 0.7; stroke: #355070; stroke-opacity: 0.7"/>
    </g>
   </g>
   <g id="PathCollection_2">
    <defs>
     <path id="m308523570d" d="M 0 2.12132 
C 0.562581 2.12132 1.102195 1.897805 1.5 1.5 
C 1.897805 1.102195 2.12132 0.562581 2.12132 0 
C 2.12132 -0.562581 1.897805 -1.102195 1.5 -1.5 
C 1.102195 -1.897805 0.562581 -2.12132 0 -2.12132 
C -0.562581 -2.12132 -1.102195 -1.897805 -1.5 -1.5 
C -1.897805 -1.102195 -2.12132 -0.562581 -2.12132 0 
C -2.12132 0.562581 -1.897805 1.102195 -1.5 1.5 
C -1.102195 1.897805 -0.562581 2.12132 0 2.12132 
z
" style="stroke: #e56b6f; stroke-opacity: 0.7"/>
    </defs>
    <g clip-path="url(#pff6fbff898)">
     <use xlink:href="#m308523570d" x="353.775" y="163.825738" style="fill: #e56b6f; fill-opacity: 0.7; stroke: #e56b6f; stroke-opacity: 0.7"/>
    </g>
   </g>
   <g id="PathCollection_3">
    <defs>
     <path id="mec99dccd3a" d="M 0 2.12132 
C 0.562581 2.12132 1.102195 1.897805 1.5 1.5 
C 1.897805 1.102195 2.12132 0.562581 2.12132 0 
C 2.12132 -0.562581 1.897805 -1.102195 1.5 -1.5 
C 1.102195 -1.897805 0.562581 -2.12132 0 -2.12132 
C -0.562581 -2.12132 -1.102195 -1.897805 -1.5 -1.5 
C -1.897805 -1.102195 -2.12132 -0.562581 -2.12132 0 
C -2.12132 0.562581 -1.897805 1.102195 -1.5 1.5 
C -1.102195 1.897805 -0.562581 2.12132 0 2.12132 
z
" style="stroke: #6d597a; stroke-opacity: 0.7"/>
    </defs>
    <g clip-path="url(#pff6fbff898)">
     <use xlink:href="#mec99dccd3a" x="228.573664" y="199.010547" style="fill: #6d597a; fill-opacity: 0.7; stroke: #6d597a; stroke-opacity: 0.7"/>
    </g>
   </g>
   <g id="line2d_20">
    <path d="M 326.838241 143.966556 
L 320.170503 127.163675 
L 322.622762 144.148936 
L 323.121962 141.452185 
L 323.373882 135.8622 
L 321.798758 129.623841 
L 316.582306 127.549362 
L 315.055228 114.009507 
L 315.486346 115.719081 
L 313.417169 101.91697 
L 309.526068 81.321963 
L 305.419733 64.699091 
L 284.607802 83.031391 
L 250.334349 99.968981 
L 218.668375 128.546403 
L 203.187544 173.549534 
L 186.569953 175.771736 
L 192.26408 166.813553 
L 205.425965 148.32751 
L 211.965149 158.444851 
L 197.933666 162.768685 
L 185.851499 190.290902 
L 181.209872 177.549959 
L 187.146615 182.630612 
L 203.226363 153.056571 
L 208.307504 132.622196 
L 194.094273 184.174841 
L 180.349606 176.886124 
L 184.220998 174.407744 
L 192.560785 174.871684 
L 207.302588 141.017101 
L 207.800134 173.586251 
L 193.250176 201.627991 
L 181.866228 178.483247 
L 188.141129 180.787726 
L 206.402766 160.5684 
L 211.929912 137.511465 
" clip-path="url(#pff6fbff898)" style="fill: none; stroke: #355070; stroke-width: 2.4; stroke-linecap: square"/>
   </g>
   <g id="line2d_21">
    <path d="M 353.775 163.825738 
L 339.247586 167.875973 
L 324.761372 171.914721 
L 310.455437 175.903207 
L 296.468118 179.802863 
L 282.963548 183.567929 
L 270.055168 187.166777 
L 257.867698 190.564637 
L 246.517542 193.729053 
L 236.167737 196.614573 
L 226.87507 199.205363 
L 218.728769 201.476547 
L 211.80762 203.406159 
L 206.246121 204.956701 
L 202.035831 206.130528 
L 199.217156 206.916373 
L 197.81745 207.30661 
" clip-path="url(#pff6fbff898)" style="fill: none; stroke: #e56b6f; stroke-width: 2.4; stroke-linecap: square"/>
   </g>
   <g id="line2d_22">
    <path d="M 228.573664 199.010547 
L 155.380016 216.445728 
L 95.772187 225.163319 
L 70.875 233.880909 
" clip-path="url(#pff6fbff898)" style="fill: none; stroke: #6d597a; stroke-width: 2.4; stroke-linecap: square"/>
   </g>
   <g id="patch_3">
    <path d="M 56.73 242.34 
L 56.73 56.24 
" style="fill: none; stroke: #cfd8dc; stroke-width: 0.8; stroke-linejoin: miter; stroke-linecap: square"/>
   </g>
   <g id="patch_4">
    <path d="M 56.73 242.34 
L 367.92 242.34 
" style="fill: none; stroke: #cfd8dc; stroke-width: 0.8; stroke-linejoin: miter; stroke-linecap: square"/>
   </g>
   <g id="PathCollection_4">
    <defs>
     <path id="m6028466d79" d="M 0 3 
C 0.795609 3 1.55874 2.683901 2.12132 2.12132 
C 2.683901 1.55874 3 0.795609 3 0 
C 3 -0.795609 2.683901 -1.55874 2.12132 -2.12132 
C 1.55874 -2.683901 0.795609 -3 0 -3 
C -0.795609 -3 -1.55874 -2.683901 -2.12132 -2.12132 
C -2.683901 -1.55874 -3 -0.795609 -3 0 
C -3 0.795609 -2.683901 1.55874 -2.12132 2.12132 
C -1.55874 2.683901 -0.795609 3 0 3 
z
" style="stroke: #ffffff; stroke-width: 0.8"/>
    </defs>
    <g clip-path="url(#pff6fbff898)">
     <use xlink:href="#m6028466d79" x="211.929912" y="137.511465" style="fill: #355070; stroke: #ffffff; stroke-width: 0.8"/>
    </g>
   </g>
   <g id="PathCollection_5">
    <defs>
     <path id="m55ef55a91d" d="M 0 3 
C 0.795609 3 1.55874 2.683901 2.12132 2.12132 
C 2.683901 1.55874 3 0.795609 3 0 
C 3 -0.795609 2.683901 -1.55874 2.12132 -2.12132 
C 1.55874 -2.683901 0.795609 -3 0 -3 
C -0.795609 -3 -1.55874 -2.683901 -2.12132 -2.12132 
C -2.683901 -1.55874 -3 -0.795609 -3 0 
C -3 0.795609 -2.683901 1.55874 -2.12132 2.12132 
C -1.55874 2.683901 -0.795609 3 0 3 
z
" style="stroke: #ffffff; stroke-width: 0.8"/>
    </defs>
    <g clip-path="url(#pff6fbff898)">
     <use xlink:href="#m55ef55a91d" x="197.81745" y="207.30661" style="fill: #e56b6f; stroke: #ffffff; stroke-width: 0.8"/>
    </g>
   </g>
   <g id="PathCollection_6">
    <defs>
     <path id="m018e48514a" d="M 0 3 
C 0.795609 3 1.55874 2.683901 2.12132 2.12132 
C 2.683901 1.55874 3 0.795609 3 0 
C 3 -0.795609 2.683901 -1.55874 2.12132 -2.12132 
C 1.55874 -2.683901 0.795609 -3 0 -3 
C -0.795609 -3 -1.55874 -2.683901 -2.12132 -2.12132 
C -2.683901 -1.55874 -3 -0.795609 -3 0 
C -3 0.795609 -2.683901 1.55874 -2.12132 2.12132 
C -1.55874 2.683901 -0.795609 3 0 3 
z
" style="stroke: #ffffff; stroke-width: 0.8"/>
    </defs>
    <g clip-path="url(#pff6fbff898)">
     <use xlink:href="#m018e48514a" x="70.875" y="233.880909" style="fill: #6d597a; stroke: #ffffff; stroke-width: 0.8"/>
    </g>
   </g>
   <g id="text_15">
    <!-- Hammer: claw hammer Top View -->
    <g style="fill: #243b53" transform="translate(56.73 48.24) scale(0.12 -0.12)">
     <defs>
      <path id="DejaVuSans-48" d="M 628 4666 
L 1259 4666 
L 1259 2753 
L 3553 2753 
L 3553 4666 
L 4184 4666 
L 4184 0 
L 3553 0 
L 3553 2222 
L 1259 2222 
L 1259 0 
L 628 0 
L 628 4666 
z
" transform="scale(0.015625)"/>
      <path id="DejaVuSans-61" d="M 2194 1759 
Q 1497 1759 1228 1600 
Q 959 1441 959 1056 
Q 959 750 1161 570 
Q 1363 391 1709 391 
Q 2188 391 2477 730 
Q 2766 1069 2766 1631 
L 2766 1759 
L 2194 1759 
z
M 3341 1997 
L 3341 0 
L 2766 0 
L 2766 531 
Q 2569 213 2275 61 
Q 1981 -91 1556 -91 
Q 1019 -91 701 211 
Q 384 513 384 1019 
Q 384 1609 779 1909 
Q 1175 2209 1959 2209 
L 2766 2209 
L 2766 2266 
Q 2766 2663 2505 2880 
Q 2244 3097 1772 3097 
Q 1472 3097 1187 3025 
Q 903 2953 641 2809 
L 641 3341 
Q 956 3463 1253 3523 
Q 1550 3584 1831 3584 
Q 2591 3584 2966 3190 
Q 3341 2797 3341 1997 
z
" transform="scale(0.015625)"/>
      <path id="DejaVuSans-65" d="M 3597 1894 
L 3597 1613 
L 953 1613 
Q 991 1019 1311 708 
Q 1631 397 2203 397 
Q 2534 397 2845 478 
Q 3156 559 3463 722 
L 3463 178 
Q 3153 47 2828 -22 
Q 2503 -91 2169 -91 
Q 1331 -91 842 396 
Q 353 884 353 1716 
Q 353 2575 817 3079 
Q 1281 3584 2069 3584 
Q 2775 3584 3186 3129 
Q 3597 2675 3597 1894 
z
M 3022 2063 
Q 3016 2534 2758 2815 
Q 2500 3097 2075 3097 
Q 1594 3097 1305 2825 
Q 1016 2553 972 2059 
L 3022 2063 
z
" transform="scale(0.015625)"/>
      <path id="DejaVuSans-72" d="M 2631 2963 
Q 2534 3019 2420 3045 
Q 2306 3072 2169 3072 
Q 1681 3072 1420 2755 
Q 1159 2438 1159 1844 
L 1159 0 
L 581 0 
L 581 3500 
L 1159 3500 
L 1159 2956 
Q 1341 3275 1631 3429 
Q 1922 3584 2338 3584 
Q 2397 3584 2469 3576 
Q 2541 3569 2628 3553 
L 2631 2963 
z
" transform="scale(0.015625)"/>
      <path id="DejaVuSans-3a" d="M 750 794 
L 1409 794 
L 1409 0 
L 750 0 
L 750 794 
z
M 750 3309 
L 1409 3309 
L 1409 2516 
L 750 2516 
L 750 3309 
z
" transform="scale(0.015625)"/>
      <path id="DejaVuSans-63" d="M 3122 3366 
L 3122 2828 
Q 2878 2963 2633 3030 
Q 2388 3097 2138 3097 
Q 1578 3097 1268 2742 
Q 959 2388 959 1747 
Q 959 1106 1268 751 
Q 1578 397 2138 397 
Q 2388 397 2633 464 
Q 2878 531 3122 666 
L 3122 134 
Q 2881 22 2623 -34 
Q 2366 -91 2075 -91 
Q 1284 -91 818 406 
Q 353 903 353 1747 
Q 353 2603 823 3093 
Q 1294 3584 2113 3584 
Q 2378 3584 2631 3529 
Q 2884 3475 3122 3366 
z
" transform="scale(0.015625)"/>
      <path id="DejaVuSans-6c" d="M 603 4863 
L 1178 4863 
L 1178 0 
L 603 0 
L 603 4863 
z
" transform="scale(0.015625)"/>
      <path id="DejaVuSans-77" d="M 269 3500 
L 844 3500 
L 1563 769 
L 2278 3500 
L 2956 3500 
L 3675 769 
L 4391 3500 
L 4966 3500 
L 4050 0 
L 3372 0 
L 2619 2869 
L 1863 0 
L 1184 0 
L 269 3500 
z
" transform="scale(0.015625)"/>
      <path id="DejaVuSans-68" d="M 3513 2113 
L 3513 0 
L 2938 0 
L 2938 2094 
Q 2938 2591 2744 2837 
Q 2550 3084 2163 3084 
Q 1697 3084 1428 2787 
Q 1159 2491 1159 1978 
L 1159 0 
L 581 0 
L 581 4863 
L 1159 4863 
L 1159 2956 
Q 1366 3272 1645 3428 
Q 1925 3584 2291 3584 
Q 2894 3584 3203 3211 
Q 3513 2838 3513 2113 
z
" transform="scale(0.015625)"/>
      <path id="DejaVuSans-54" d="M -19 4666 
L 3928 4666 
L 3928 4134 
L 2272 4134 
L 2272 0 
L 1638 0 
L 1638 4134 
L -19 4134 
L -19 4666 
z
" transform="scale(0.015625)"/>
      <path id="DejaVuSans-6f" d="M 1959 3097 
Q 1497 3097 1228 2736 
Q 959 2375 959 1747 
Q 959 1119 1226 758 
Q 1494 397 1959 397 
Q 2419 397 2687 759 
Q 2956 1122 2956 1747 
Q 2956 2369 2687 2733 
Q 2419 3097 1959 3097 
z
M 1959 3584 
Q 2709 3584 3137 3096 
Q 3566 2609 3566 1747 
Q 3566 888 3137 398 
Q 2709 -91 1959 -91 
Q 1206 -91 779 398 
Q 353 888 353 1747 
Q 353 2609 779 3096 
Q 1206 3584 1959 3584 
z
" transform="scale(0.015625)"/>
      <path id="DejaVuSans-70" d="M 1159 525 
L 1159 -1331 
L 581 -1331 
L 581 3500 
L 1159 3500 
L 1159 2969 
Q 1341 3281 1617 3432 
Q 1894 3584 2278 3584 
Q 2916 3584 3314 3078 
Q 3713 2572 3713 1747 
Q 3713 922 3314 415 
Q 2916 -91 2278 -91 
Q 1894 -91 1617 61 
Q 1341 213 1159 525 
z
M 3116 1747 
Q 3116 2381 2855 2742 
Q 2594 3103 2138 3103 
Q 1681 3103 1420 2742 
Q 1159 2381 1159 1747 
Q 1159 1113 1420 752 
Q 1681 391 2138 391 
Q 2594 391 2855 752 
Q 3116 1113 3116 1747 
z
" transform="scale(0.015625)"/>
      <path id="DejaVuSans-56" d="M 1831 0 
L 50 4666 
L 709 4666 
L 2188 738 
L 3669 4666 
L 4325 4666 
L 2547 0 
L 1831 0 
z
" transform="scale(0.015625)"/>
      <path id="DejaVuSans-69" d="M 603 3500 
L 1178 3500 
L 1178 0 
L 603 0 
L 603 3500 
z
M 603 4863 
L 1178 4863 
L 1178 4134 
L 603 4134 
L 603 4863 
z
" transform="scale(0.015625)"/>
     </defs>
     <use xlink:href="#DejaVuSans-48"/>
     <use xlink:href="#DejaVuSans-61" x="75.195312"/>
     <use xlink:href="#DejaVuSans-6d" x="136.474609"/>
     <use xlink:href="#DejaVuSans-6d" x="233.886719"/>
     <use xlink:href="#DejaVuSans-65" x="331.298828"/>
     <use xlink:href="#DejaVuSans-72" x="392.822266"/>
     <use xlink:href="#DejaVuSans-3a" x="432.185547"/>
     <use xlink:href="#DejaVuSans-20" x="465.876953"/>
     <use xlink:href="#DejaVuSans-63" x="497.664062"/>
     <use xlink:href="#DejaVuSans-6c" x="552.644531"/>
     <use xlink:href="#DejaVuSans-61" x="580.427734"/>
     <use xlink:href="#DejaVuSans-77" x="641.707031"/>
     <use xlink:href="#DejaVuSans-20" x="723.494141"/>
     <use xlink:href="#DejaVuSans-68" x="755.28125"/>
     <use xlink:href="#DejaVuSans-61" x="818.660156"/>
     <use xlink:href="#DejaVuSans-6d" x="879.939453"/>
     <use xlink:href="#DejaVuSans-6d" x="977.351562"/>
     <use xlink:href="#DejaVuSans-65" x="1074.763672"/>
     <use xlink:href="#DejaVuSans-72" x="1136.287109"/>
     <use xlink:href="#DejaVuSans-20" x="1177.400391"/>
     <use xlink:href="#DejaVuSans-54" x="1209.1875"/>
     <use xlink:href="#DejaVuSans-6f" x="1253.271484"/>
     <use xlink:href="#DejaVuSans-70" x="1314.453125"/>
     <use xlink:href="#DejaVuSans-20" x="1377.929688"/>
     <use xlink:href="#DejaVuSans-56" x="1409.716797"/>
     <use xlink:href="#DejaVuSans-69" x="1475.875"/>
     <use xlink:href="#DejaVuSans-65" x="1503.658203"/>
     <use xlink:href="#DejaVuSans-77" x="1565.181641"/>
    </g>
   </g>
   <g id="PathCollection_7">
    <defs>
     <path id="mf592b4ef58" d="M -2.371708 4.743416 
L 0 2.371708 
L 2.371708 4.743416 
L 4.743416 2.371708 
L 2.371708 0 
L 4.743416 -2.371708 
L 2.371708 -4.743416 
L 0 -2.371708 
L -2.371708 -4.743416 
L -4.743416 -2.371708 
L -2.371708 0 
L -4.743416 2.371708 
z
" style="stroke: #ffffff; stroke-width: 0.8"/>
    </defs>
    <g clip-path="url(#pff6fbff898)">
     <use xlink:href="#mf592b4ef58" x="70.875" y="233.880909" style="fill: #f4a261; stroke: #ffffff; stroke-width: 0.8"/>
    </g>
   </g>
  </g>
  <g id="axes_2">
   <g id="patch_5">
    <path d="M 445.845 242.34 
L 757.035 242.34 
L 757.035 56.24 
L 445.845 56.24 
z
" style="fill: #ffffff"/>
   </g>
   <g id="matplotlib.axis_3">
    <g id="xtick_8">
     <g id="line2d_23">
      <path d="M 479.683001 242.34 
L 479.683001 56.24 
" clip-path="url(#p354154b4db)" style="fill: none; stroke: #e6dfd5; stroke-opacity: 0.9; stroke-width: 0.8; stroke-linecap: square"/>
     </g>
     <g id="line2d_24"/>
     <g id="text_16">
      <!-- −0.20 -->
      <g style="fill: #334e68" transform="translate(462.828079 254.198281) scale(0.11 -0.11)">
       <use xlink:href="#DejaVuSans-2212"/>
       <use xlink:href="#DejaVuSans-30" x="83.789062"/>
       <use xlink:href="#DejaVuSans-2e" x="147.412109"/>
       <use xlink:href="#DejaVuSans-32" x="179.199219"/>
       <use xlink:href="#DejaVuSans-30" x="242.822266"/>
      </g>
     </g>
    </g>
    <g id="xtick_9">
     <g id="line2d_25">
      <path d="M 523.071304 242.34 
L 523.071304 56.24 
" clip-path="url(#p354154b4db)" style="fill: none; stroke: #e6dfd5; stroke-opacity: 0.9; stroke-width: 0.8; stroke-linecap: square"/>
     </g>
     <g id="line2d_26"/>
     <g id="text_17">
      <!-- −0.15 -->
      <g style="fill: #334e68" transform="translate(506.216382 254.198281) scale(0.11 -0.11)">
       <use xlink:href="#DejaVuSans-2212"/>
       <use xlink:href="#DejaVuSans-30" x="83.789062"/>
       <use xlink:href="#DejaVuSans-2e" x="147.412109"/>
       <use xlink:href="#DejaVuSans-31" x="179.199219"/>
       <use xlink:href="#DejaVuSans-35" x="242.822266"/>
      </g>
     </g>
    </g>
    <g id="xtick_10">
     <g id="line2d_27">
      <path d="M 566.459607 242.34 
L 566.459607 56.24 
" clip-path="url(#p354154b4db)" style="fill: none; stroke: #e6dfd5; stroke-opacity: 0.9; stroke-width: 0.8; stroke-linecap: square"/>
     </g>
     <g id="line2d_28"/>
     <g id="text_18">
      <!-- −0.10 -->
      <g style="fill: #334e68" transform="translate(549.604686 254.198281) scale(0.11 -0.11)">
       <use xlink:href="#DejaVuSans-2212"/>
       <use xlink:href="#DejaVuSans-30" x="83.789062"/>
       <use xlink:href="#DejaVuSans-2e" x="147.412109"/>
       <use xlink:href="#DejaVuSans-31" x="179.199219"/>
       <use xlink:href="#DejaVuSans-30" x="242.822266"/>
      </g>
     </g>
    </g>
    <g id="xtick_11">
     <g id="line2d_29">
      <path d="M 609.847911 242.34 
L 609.847911 56.24 
" clip-path="url(#p354154b4db)" style="fill: none; stroke: #e6dfd5; stroke-opacity: 0.9; stroke-width: 0.8; stroke-linecap: square"/>
     </g>
     <g id="line2d_30"/>
     <g id="text_19">
      <!-- −0.05 -->
      <g style="fill: #334e68" transform="translate(592.992989 254.198281) scale(0.11 -0.11)">
       <use xlink:href="#DejaVuSans-2212"/>
       <use xlink:href="#DejaVuSans-30" x="83.789062"/>
       <use xlink:href="#DejaVuSans-2e" x="147.412109"/>
       <use xlink:href="#DejaVuSans-30" x="179.199219"/>
       <use xlink:href="#DejaVuSans-35" x="242.822266"/>
      </g>
     </g>
    </g>
    <g id="xtick_12">
     <g id="line2d_31">
      <path d="M 653.236214 242.34 
L 653.236214 56.24 
" clip-path="url(#p354154b4db)" style="fill: none; stroke: #e6dfd5; stroke-opacity: 0.9; stroke-width: 0.8; stroke-linecap: square"/>
     </g>
     <g id="line2d_32"/>
     <g id="text_20">
      <!-- 0.00 -->
      <g style="fill: #334e68" transform="translate(640.99012 254.198281) scale(0.11 -0.11)">
       <use xlink:href="#DejaVuSans-30"/>
       <use xlink:href="#DejaVuSans-2e" x="63.623047"/>
       <use xlink:href="#DejaVuSans-30" x="95.410156"/>
       <use xlink:href="#DejaVuSans-30" x="159.033203"/>
      </g>
     </g>
    </g>
    <g id="xtick_13">
     <g id="line2d_33">
      <path d="M 696.624517 242.34 
L 696.624517 56.24 
" clip-path="url(#p354154b4db)" style="fill: none; stroke: #e6dfd5; stroke-opacity: 0.9; stroke-width: 0.8; stroke-linecap: square"/>
     </g>
     <g id="line2d_34"/>
     <g id="text_21">
      <!-- 0.05 -->
      <g style="fill: #334e68" transform="translate(684.378423 254.198281) scale(0.11 -0.11)">
       <use xlink:href="#DejaVuSans-30"/>
       <use xlink:href="#DejaVuSans-2e" x="63.623047"/>
       <use xlink:href="#DejaVuSans-30" x="95.410156"/>
       <use xlink:href="#DejaVuSans-35" x="159.033203"/>
      </g>
     </g>
    </g>
    <g id="xtick_14">
     <g id="line2d_35">
      <path d="M 740.01282 242.34 
L 740.01282 56.24 
" clip-path="url(#p354154b4db)" style="fill: none; stroke: #e6dfd5; stroke-opacity: 0.9; stroke-width: 0.8; stroke-linecap: square"/>
     </g>
     <g id="line2d_36"/>
     <g id="text_22">
      <!-- 0.10 -->
      <g style="fill: #334e68" transform="translate(727.766726 254.198281) scale(0.11 -0.11)">
       <use xlink:href="#DejaVuSans-30"/>
       <use xlink:href="#DejaVuSans-2e" x="63.623047"/>
       <use xlink:href="#DejaVuSans-31" x="95.410156"/>
       <use xlink:href="#DejaVuSans-30" x="159.033203"/>
      </g>
     </g>
    </g>
    <g id="text_23">
     <!-- X (m) -->
     <g transform="translate(584.896875 269.604063) scale(0.12 -0.12)">
      <use xlink:href="#DejaVuSans-58"/>
      <use xlink:href="#DejaVuSans-20" x="68.505859"/>
      <use xlink:href="#DejaVuSans-28" x="100.292969"/>
      <use xlink:href="#DejaVuSans-6d" x="139.306641"/>
      <use xlink:href="#DejaVuSans-29" x="236.71875"/>
     </g>
    </g>
   </g>
   <g id="matplotlib.axis_4">
    <g id="ytick_6">
     <g id="line2d_37"/>
     <g id="text_24">
      <!-- 0.55 -->
      <g style="fill: #334e68" transform="translate(417.852813 225.361749) scale(0.11 -0.11)">
       <use xlink:href="#DejaVuSans-30"/>
       <use xlink:href="#DejaVuSans-2e" x="63.623047"/>
       <use xlink:href="#DejaVuSans-35" x="95.410156"/>
       <use xlink:href="#DejaVuSans-35" x="159.033203"/>
      </g>
     </g>
    </g>
    <g id="ytick_7">
     <g id="line2d_38"/>
     <g id="text_25">
      <!-- 0.60 -->
      <g style="fill: #334e68" transform="translate(417.852813 184.897288) scale(0.11 -0.11)">
       <use xlink:href="#DejaVuSans-30"/>
       <use xlink:href="#DejaVuSans-2e" x="63.623047"/>
       <use xlink:href="#DejaVuSans-36" x="95.410156"/>
       <use xlink:href="#DejaVuSans-30" x="159.033203"/>
      </g>
     </g>
    </g>
    <g id="ytick_8">
     <g id="line2d_39"/>
     <g id="text_26">
      <!-- 0.65 -->
      <g style="fill: #334e68" transform="translate(417.852813 144.432828) scale(0.11 -0.11)">
       <use xlink:href="#DejaVuSans-30"/>
       <use xlink:href="#DejaVuSans-2e" x="63.623047"/>
       <use xlink:href="#DejaVuSans-36" x="95.410156"/>
       <use xlink:href="#DejaVuSans-35" x="159.033203"/>
      </g>
     </g>
    </g>
    <g id="ytick_9">
     <g id="line2d_40"/>
     <g id="text_27">
      <!-- 0.70 -->
      <g style="fill: #334e68" transform="translate(417.852813 103.968367) scale(0.11 -0.11)">
       <defs>
        <path id="DejaVuSans-37" d="M 525 4666 
L 3525 4666 
L 3525 4397 
L 1831 0 
L 1172 0 
L 2766 4134 
L 525 4134 
L 525 4666 
z
" transform="scale(0.015625)"/>
       </defs>
       <use xlink:href="#DejaVuSans-30"/>
       <use xlink:href="#DejaVuSans-2e" x="63.623047"/>
       <use xlink:href="#DejaVuSans-37" x="95.410156"/>
       <use xlink:href="#DejaVuSans-30" x="159.033203"/>
      </g>
     </g>
    </g>
    <g id="ytick_10">
     <g id="line2d_41"/>
     <g id="text_28">
      <!-- 0.75 -->
      <g style="fill: #334e68" transform="translate(417.852813 63.503906) scale(0.11 -0.11)">
       <use xlink:href="#DejaVuSans-30"/>
       <use xlink:href="#DejaVuSans-2e" x="63.623047"/>
       <use xlink:href="#DejaVuSans-37" x="95.410156"/>
       <use xlink:href="#DejaVuSans-35" x="159.033203"/>
      </g>
     </g>
    </g>
    <g id="text_29">
     <!-- Z (m) -->
     <g transform="translate(411.357188 165.833125) rotate(-90) scale(0.12 -0.12)">
      <defs>
       <path id="DejaVuSans-5a" d="M 359 4666 
L 4025 4666 
L 4025 4184 
L 1075 531 
L 4097 531 
L 4097 0 
L 288 0 
L 288 481 
L 3238 4134 
L 359 4134 
L 359 4666 
z
" transform="scale(0.015625)"/>
      </defs>
      <use xlink:href="#DejaVuSans-5a"/>
      <use xlink:href="#DejaVuSans-20" x="68.505859"/>
      <use xlink:href="#DejaVuSans-28" x="100.292969"/>
      <use xlink:href="#DejaVuSans-6d" x="139.306641"/>
      <use xlink:href="#DejaVuSans-29" x="236.71875"/>
     </g>
    </g>
   </g>
   <g id="PathCollection_8">
    <g clip-path="url(#p354154b4db)">
     <use xlink:href="#mfc63553d08" x="715.953241" y="139.914267" style="fill: #355070; fill-opacity: 0.7; stroke: #355070; stroke-opacity: 0.7"/>
    </g>
   </g>
   <g id="PathCollection_9">
    <g clip-path="url(#p354154b4db)">
     <use xlink:href="#m308523570d" x="742.89" y="65.11107" style="fill: #e56b6f; fill-opacity: 0.7; stroke: #e56b6f; stroke-opacity: 0.7"/>
    </g>
   </g>
   <g id="PathCollection_10">
    <g clip-path="url(#p354154b4db)">
     <use xlink:href="#mec99dccd3a" x="617.688664" y="231.453041" style="fill: #6d597a; fill-opacity: 0.7; stroke: #6d597a; stroke-opacity: 0.7"/>
    </g>
   </g>
   <g id="line2d_42">
    <path d="M 715.953241 139.914267 
L 709.285503 117.473605 
L 711.737762 105.127422 
L 712.236962 100.831701 
L 712.488882 83.543646 
L 710.913758 72.309872 
L 705.697306 65.242136 
L 704.170228 65.950507 
L 704.601346 64.699091 
L 702.532169 69.169578 
L 698.641068 69.617182 
L 694.534733 68.611674 
L 673.722802 69.269048 
L 639.449349 77.787199 
L 607.783375 89.245166 
L 592.302544 95.432397 
L 575.684953 112.689809 
L 581.37908 111.272317 
L 594.540965 92.892822 
L 601.080149 86.557907 
L 587.048666 99.737679 
L 574.966499 132.408932 
L 570.324872 150.76992 
L 576.261615 135.216617 
L 592.341363 99.83995 
L 597.422504 87.062765 
L 583.209273 109.625873 
L 569.464606 160.719702 
L 573.335998 149.33302 
L 581.675785 117.32027 
L 596.417588 88.873129 
L 596.915134 94.673959 
L 582.365176 132.725354 
L 570.981228 159.202941 
L 577.256129 138.34418 
L 595.517766 104.963313 
L 601.044912 92.549108 
" clip-path="url(#p354154b4db)" style="fill: none; stroke: #355070; stroke-width: 2.4; stroke-linecap: square"/>
   </g>
   <g id="line2d_43">
    <path d="M 742.89 65.11107 
L 728.362586 64.810702 
L 713.876372 65.859273 
L 699.570437 68.246571 
L 685.583118 71.949723 
L 672.078548 76.994965 
L 659.170168 83.26758 
L 646.982698 90.706693 
L 635.632542 99.241478 
L 625.282737 108.835388 
L 615.99007 119.341344 
L 607.843769 130.658269 
L 600.92262 142.677013 
L 595.361121 155.305145 
L 591.150831 168.386221 
L 588.332156 180.718148 
L 586.93245 180.718148 
" clip-path="url(#p354154b4db)" style="fill: none; stroke: #e56b6f; stroke-width: 2.4; stroke-linecap: square"/>
   </g>
   <g id="line2d_44">
    <path d="M 617.688664 231.453041 
L 544.495016 232.262331 
L 484.887187 233.07162 
L 459.99 233.880909 
" clip-path="url(#p354154b4db)" style="fill: none; stroke: #6d597a; stroke-width: 2.4; stroke-linecap: square"/>
   </g>
   <g id="patch_6">
    <path d="M 445.845 242.34 
L 445.845 56.24 
" style="fill: none; stroke: #cfd8dc; stroke-width: 0.8; stroke-linejoin: miter; stroke-linecap: square"/>
   </g>
   <g id="patch_7">
    <path d="M 445.845 242.34 
L 757.035 242.34 
" style="fill: none; stroke: #cfd8dc; stroke-width: 0.8; stroke-linejoin: miter; stroke-linecap: square"/>
   </g>
   <g id="PathCollection_11">
    <g clip-path="url(#p354154b4db)">
     <use xlink:href="#m6028466d79" x="601.044912" y="92.549108" style="fill: #355070; stroke: #ffffff; stroke-width: 0.8"/>
    </g>
   </g>
   <g id="PathCollection_12">
    <g clip-path="url(#p354154b4db)">
     <use xlink:href="#m55ef55a91d" x="586.93245" y="180.718148" style="fill: #e56b6f; stroke: #ffffff; stroke-width: 0.8"/>
    </g>
   </g>
   <g id="PathCollection_13">
    <g clip-path="url(#p354154b4db)">
     <use xlink:href="#m018e48514a" x="459.99" y="233.880909" style="fill: #6d597a; stroke: #ffffff; stroke-width: 0.8"/>
    </g>
   </g>
   <g id="text_30">
    <!-- Hammer: claw hammer Side View -->
    <g style="fill: #243b53" transform="translate(445.845 48.24) scale(0.12 -0.12)">
     <defs>
      <path id="DejaVuSans-53" d="M 3425 4513 
L 3425 3897 
Q 3066 4069 2747 4153 
Q 2428 4238 2131 4238 
Q 1616 4238 1336 4038 
Q 1056 3838 1056 3469 
Q 1056 3159 1242 3001 
Q 1428 2844 1947 2747 
L 2328 2669 
Q 3034 2534 3370 2195 
Q 3706 1856 3706 1288 
Q 3706 609 3251 259 
Q 2797 -91 1919 -91 
Q 1588 -91 1214 -16 
Q 841 59 441 206 
L 441 856 
Q 825 641 1194 531 
Q 1563 422 1919 422 
Q 2459 422 2753 634 
Q 3047 847 3047 1241 
Q 3047 1584 2836 1778 
Q 2625 1972 2144 2069 
L 1759 2144 
Q 1053 2284 737 2584 
Q 422 2884 422 3419 
Q 422 4038 858 4394 
Q 1294 4750 2059 4750 
Q 2388 4750 2728 4690 
Q 3069 4631 3425 4513 
z
" transform="scale(0.015625)"/>
      <path id="DejaVuSans-64" d="M 2906 2969 
L 2906 4863 
L 3481 4863 
L 3481 0 
L 2906 0 
L 2906 525 
Q 2725 213 2448 61 
Q 2172 -91 1784 -91 
Q 1150 -91 751 415 
Q 353 922 353 1747 
Q 353 2572 751 3078 
Q 1150 3584 1784 3584 
Q 2172 3584 2448 3432 
Q 2725 3281 2906 2969 
z
M 947 1747 
Q 947 1113 1208 752 
Q 1469 391 1925 391 
Q 2381 391 2643 752 
Q 2906 1113 2906 1747 
Q 2906 2381 2643 2742 
Q 2381 3103 1925 3103 
Q 1469 3103 1208 2742 
Q 947 2381 947 1747 
z
" transform="scale(0.015625)"/>
     </defs>
     <use xlink:href="#DejaVuSans-48"/>
     <use xlink:href="#DejaVuSans-61" x="75.195312"/>
     <use xlink:href="#DejaVuSans-6d" x="136.474609"/>
     <use xlink:href="#DejaVuSans-6d" x="233.886719"/>
     <use xlink:href="#DejaVuSans-65" x="331.298828"/>
     <use xlink:href="#DejaVuSans-72" x="392.822266"/>
     <use xlink:href="#DejaVuSans-3a" x="432.185547"/>
     <use xlink:href="#DejaVuSans-20" x="465.876953"/>
     <use xlink:href="#DejaVuSans-63" x="497.664062"/>
     <use xlink:href="#DejaVuSans-6c" x="552.644531"/>
     <use xlink:href="#DejaVuSans-61" x="580.427734"/>
     <use xlink:href="#DejaVuSans-77" x="641.707031"/>
     <use xlink:href="#DejaVuSans-20" x="723.494141"/>
     <use xlink:href="#DejaVuSans-68" x="755.28125"/>
     <use xlink:href="#DejaVuSans-61" x="818.660156"/>
     <use xlink:href="#DejaVuSans-6d" x="879.939453"/>
     <use xlink:href="#DejaVuSans-6d" x="977.351562"/>
     <use xlink:href="#DejaVuSans-65" x="1074.763672"/>
     <use xlink:href="#DejaVuSans-72" x="1136.287109"/>
     <use xlink:href="#DejaVuSans-20" x="1177.400391"/>
     <use xlink:href="#DejaVuSans-53" x="1209.1875"/>
     <use xlink:href="#DejaVuSans-69" x="1272.664062"/>
     <use xlink:href="#DejaVuSans-64" x="1300.447266"/>
     <use xlink:href="#DejaVuSans-65" x="1363.923828"/>
     <use xlink:href="#DejaVuSans-20" x="1425.447266"/>
     <use xlink:href="#DejaVuSans-56" x="1457.234375"/>
     <use xlink:href="#DejaVuSans-69" x="1523.392578"/>
     <use xlink:href="#DejaVuSans-65" x="1551.175781"/>
     <use xlink:href="#DejaVuSans-77" x="1612.699219"/>
    </g>
   </g>
  </g>
  <g id="axes_3">
   <g id="patch_8">
    <path d="M 56.73 489.66 
L 367.92 489.66 
L 367.92 303.56 
L 56.73 303.56 
z
" style="fill: #ffffff"/>
   </g>
   <g id="line2d_45">
    <path d="M 56.73 481.200909 
L 367.92 481.200909 
" clip-path="url(#pef7cf52df1)" style="fill: none; stroke: #d9e2ec; stroke-width: 1.2; stroke-linecap: square"/>
   </g>
   <g id="matplotlib.axis_5">
    <g id="xtick_15">
     <g id="line2d_46">
      <path d="M 56.73 489.66 
L 56.73 303.56 
" clip-path="url(#pef7cf52df1)" style="fill: none; stroke: #e6dfd5; stroke-opacity: 0.9; stroke-width: 0.8; stroke-linecap: square"/>
     </g>
     <g id="line2d_47"/>
     <g id="text_31">
      <!-- 0.0 -->
      <g style="fill: #334e68" transform="translate(47.983281 501.518281) scale(0.11 -0.11)">
       <use xlink:href="#DejaVuSans-30"/>
       <use xlink:href="#DejaVuSans-2e" x="63.623047"/>
       <use xlink:href="#DejaVuSans-30" x="95.410156"/>
      </g>
     </g>
    </g>
    <g id="xtick_16">
     <g id="line2d_48">
      <path d="M 118.968 489.66 
L 118.968 303.56 
" clip-path="url(#pef7cf52df1)" style="fill: none; stroke: #e6dfd5; stroke-opacity: 0.9; stroke-width: 0.8; stroke-linecap: square"/>
     </g>
     <g id="line2d_49"/>
     <g id="text_32">
      <!-- 0.2 -->
      <g style="fill: #334e68" transform="translate(110.221281 501.518281) scale(0.11 -0.11)">
       <use xlink:href="#DejaVuSans-30"/>
       <use xlink:href="#DejaVuSans-2e" x="63.623047"/>
       <use xlink:href="#DejaVuSans-32" x="95.410156"/>
      </g>
     </g>
    </g>
    <g id="xtick_17">
     <g id="line2d_50">
      <path d="M 181.206 489.66 
L 181.206 303.56 
" clip-path="url(#pef7cf52df1)" style="fill: none; stroke: #e6dfd5; stroke-opacity: 0.9; stroke-width: 0.8; stroke-linecap: square"/>
     </g>
     <g id="line2d_51"/>
     <g id="text_33">
      <!-- 0.4 -->
      <g style="fill: #334e68" transform="translate(172.459281 501.518281) scale(0.11 -0.11)">
       <use xlink:href="#DejaVuSans-30"/>
       <use xlink:href="#DejaVuSans-2e" x="63.623047"/>
       <use xlink:href="#DejaVuSans-34" x="95.410156"/>
      </g>
     </g>
    </g>
    <g id="xtick_18">
     <g id="line2d_52">
      <path d="M 243.444 489.66 
L 243.444 303.56 
" clip-path="url(#pef7cf52df1)" style="fill: none; stroke: #e6dfd5; stroke-opacity: 0.9; stroke-width: 0.8; stroke-linecap: square"/>
     </g>
     <g id="line2d_53"/>
     <g id="text_34">
      <!-- 0.6 -->
      <g style="fill: #334e68" transform="translate(234.697281 501.518281) scale(0.11 -0.11)">
       <use xlink:href="#DejaVuSans-30"/>
       <use xlink:href="#DejaVuSans-2e" x="63.623047"/>
       <use xlink:href="#DejaVuSans-36" x="95.410156"/>
      </g>
     </g>
    </g>
    <g id="xtick_19">
     <g id="line2d_54">
      <path d="M 305.682 489.66 
L 305.682 303.56 
" clip-path="url(#pef7cf52df1)" style="fill: none; stroke: #e6dfd5; stroke-opacity: 0.9; stroke-width: 0.8; stroke-linecap: square"/>
     </g>
     <g id="line2d_55"/>
     <g id="text_35">
      <!-- 0.8 -->
      <g style="fill: #334e68" transform="translate(296.935281 501.518281) scale(0.11 -0.11)">
       <use xlink:href="#DejaVuSans-30"/>
       <use xlink:href="#DejaVuSans-2e" x="63.623047"/>
       <use xlink:href="#DejaVuSans-38" x="95.410156"/>
      </g>
     </g>
    </g>
    <g id="xtick_20">
     <g id="line2d_56">
      <path d="M 367.92 489.66 
L 367.92 303.56 
" clip-path="url(#pef7cf52df1)" style="fill: none; stroke: #e6dfd5; stroke-opacity: 0.9; stroke-width: 0.8; stroke-linecap: square"/>
     </g>
     <g id="line2d_57"/>
     <g id="text_36">
      <!-- 1.0 -->
      <g style="fill: #334e68" transform="translate(359.173281 501.518281) scale(0.11 -0.11)">
       <use xlink:href="#DejaVuSans-31"/>
       <use xlink:href="#DejaVuSans-2e" x="63.623047"/>
       <use xlink:href="#DejaVuSans-30" x="95.410156"/>
      </g>
     </g>
    </g>
    <g id="text_37">
     <!-- Normalized Progress -->
     <g transform="translate(150.792188 516.924062) scale(0.12 -0.12)">
      <defs>
       <path id="DejaVuSans-4e" d="M 628 4666 
L 1478 4666 
L 3547 763 
L 3547 4666 
L 4159 4666 
L 4159 0 
L 3309 0 
L 1241 3903 
L 1241 0 
L 628 0 
L 628 4666 
z
" transform="scale(0.015625)"/>
       <path id="DejaVuSans-7a" d="M 353 3500 
L 3084 3500 
L 3084 2975 
L 922 459 
L 3084 459 
L 3084 0 
L 275 0 
L 275 525 
L 2438 3041 
L 353 3041 
L 353 3500 
z
" transform="scale(0.015625)"/>
       <path id="DejaVuSans-50" d="M 1259 4147 
L 1259 2394 
L 2053 2394 
Q 2494 2394 2734 2622 
Q 2975 2850 2975 3272 
Q 2975 3691 2734 3919 
Q 2494 4147 2053 4147 
L 1259 4147 
z
M 628 4666 
L 2053 4666 
Q 2838 4666 3239 4311 
Q 3641 3956 3641 3272 
Q 3641 2581 3239 2228 
Q 2838 1875 2053 1875 
L 1259 1875 
L 1259 0 
L 628 0 
L 628 4666 
z
" transform="scale(0.015625)"/>
       <path id="DejaVuSans-67" d="M 2906 1791 
Q 2906 2416 2648 2759 
Q 2391 3103 1925 3103 
Q 1463 3103 1205 2759 
Q 947 2416 947 1791 
Q 947 1169 1205 825 
Q 1463 481 1925 481 
Q 2391 481 2648 825 
Q 2906 1169 2906 1791 
z
M 3481 434 
Q 3481 -459 3084 -895 
Q 2688 -1331 1869 -1331 
Q 1566 -1331 1297 -1286 
Q 1028 -1241 775 -1147 
L 775 -588 
Q 1028 -725 1275 -790 
Q 1522 -856 1778 -856 
Q 2344 -856 2625 -561 
Q 2906 -266 2906 331 
L 2906 616 
Q 2728 306 2450 153 
Q 2172 0 1784 0 
Q 1141 0 747 490 
Q 353 981 353 1791 
Q 353 2603 747 3093 
Q 1141 3584 1784 3584 
Q 2172 3584 2450 3431 
Q 2728 3278 2906 2969 
L 2906 3500 
L 3481 3500 
L 3481 434 
z
" transform="scale(0.015625)"/>
       <path id="DejaVuSans-73" d="M 2834 3397 
L 2834 2853 
Q 2591 2978 2328 3040 
Q 2066 3103 1784 3103 
Q 1356 3103 1142 2972 
Q 928 2841 928 2578 
Q 928 2378 1081 2264 
Q 1234 2150 1697 2047 
L 1894 2003 
Q 2506 1872 2764 1633 
Q 3022 1394 3022 966 
Q 3022 478 2636 193 
Q 2250 -91 1575 -91 
Q 1294 -91 989 -36 
Q 684 19 347 128 
L 347 722 
Q 666 556 975 473 
Q 1284 391 1588 391 
Q 1994 391 2212 530 
Q 2431 669 2431 922 
Q 2431 1156 2273 1281 
Q 2116 1406 1581 1522 
L 1381 1569 
Q 847 1681 609 1914 
Q 372 2147 372 2553 
Q 372 3047 722 3315 
Q 1072 3584 1716 3584 
Q 2034 3584 2315 3537 
Q 2597 3491 2834 3397 
z
" transform="scale(0.015625)"/>
      </defs>
      <use xlink:href="#DejaVuSans-4e"/>
      <use xlink:href="#DejaVuSans-6f" x="74.804688"/>
      <use xlink:href="#DejaVuSans-72" x="135.986328"/>
      <use xlink:href="#DejaVuSans-6d" x="175.349609"/>
      <use xlink:href="#DejaVuSans-61" x="272.761719"/>
      <use xlink:href="#DejaVuSans-6c" x="334.041016"/>
      <use xlink:href="#DejaVuSans-69" x="361.824219"/>
      <use xlink:href="#DejaVuSans-7a" x="389.607422"/>
      <use xlink:href="#DejaVuSans-65" x="442.097656"/>
      <use xlink:href="#DejaVuSans-64" x="503.621094"/>
      <use xlink:href="#DejaVuSans-20" x="567.097656"/>
      <use xlink:href="#DejaVuSans-50" x="598.884766"/>
      <use xlink:href="#DejaVuSans-72" x="657.4375"/>
      <use xlink:href="#DejaVuSans-6f" x="696.300781"/>
      <use xlink:href="#DejaVuSans-67" x="757.482422"/>
      <use xlink:href="#DejaVuSans-72" x="820.958984"/>
      <use xlink:href="#DejaVuSans-65" x="859.822266"/>
      <use xlink:href="#DejaVuSans-73" x="921.345703"/>
      <use xlink:href="#DejaVuSans-73" x="973.445312"/>
     </g>
    </g>
   </g>
   <g id="matplotlib.axis_6">
    <g id="ytick_11">
     <g id="line2d_58"/>
     <g id="text_38">
      <!-- 0 -->
      <g style="fill: #334e68" transform="translate(46.23125 485.38005) scale(0.11 -0.11)">
       <use xlink:href="#DejaVuSans-30"/>
      </g>
     </g>
    </g>
    <g id="ytick_12">
     <g id="line2d_59"/>
     <g id="text_39">
      <!-- 20 -->
      <g style="fill: #334e68" transform="translate(39.2325 447.707427) scale(0.11 -0.11)">
       <use xlink:href="#DejaVuSans-32"/>
       <use xlink:href="#DejaVuSans-30" x="63.623047"/>
      </g>
     </g>
    </g>
    <g id="ytick_13">
     <g id="line2d_60"/>
     <g id="text_40">
      <!-- 40 -->
      <g style="fill: #334e68" transform="translate(39.2325 410.034805) scale(0.11 -0.11)">
       <use xlink:href="#DejaVuSans-34"/>
       <use xlink:href="#DejaVuSans-30" x="63.623047"/>
      </g>
     </g>
    </g>
    <g id="ytick_14">
     <g id="line2d_61"/>
     <g id="text_41">
      <!-- 60 -->
      <g style="fill: #334e68" transform="translate(39.2325 372.362182) scale(0.11 -0.11)">
       <use xlink:href="#DejaVuSans-36"/>
       <use xlink:href="#DejaVuSans-30" x="63.623047"/>
      </g>
     </g>
    </g>
    <g id="ytick_15">
     <g id="line2d_62"/>
     <g id="text_42">
      <!-- 80 -->
      <g style="fill: #334e68" transform="translate(39.2325 334.68956) scale(0.11 -0.11)">
       <use xlink:href="#DejaVuSans-38"/>
       <use xlink:href="#DejaVuSans-30" x="63.623047"/>
      </g>
     </g>
    </g>
    <g id="text_43">
     <!-- Tilt From Vertical (deg) -->
     <g transform="translate(32.736875 464.808438) rotate(-90) scale(0.12 -0.12)">
      <defs>
       <path id="DejaVuSans-74" d="M 1172 4494 
L 1172 3500 
L 2356 3500 
L 2356 3053 
L 1172 3053 
L 1172 1153 
Q 1172 725 1289 603 
Q 1406 481 1766 481 
L 2356 481 
L 2356 0 
L 1766 0 
Q 1100 0 847 248 
Q 594 497 594 1153 
L 594 3053 
L 172 3053 
L 172 3500 
L 594 3500 
L 594 4494 
L 1172 4494 
z
" transform="scale(0.015625)"/>
       <path id="DejaVuSans-46" d="M 628 4666 
L 3309 4666 
L 3309 4134 
L 1259 4134 
L 1259 2759 
L 3109 2759 
L 3109 2228 
L 1259 2228 
L 1259 0 
L 628 0 
L 628 4666 
z
" transform="scale(0.015625)"/>
      </defs>
      <use xlink:href="#DejaVuSans-54"/>
      <use xlink:href="#DejaVuSans-69" x="57.958984"/>
      <use xlink:href="#DejaVuSans-6c" x="85.742188"/>
      <use xlink:href="#DejaVuSans-74" x="113.525391"/>
      <use xlink:href="#DejaVuSans-20" x="152.734375"/>
      <use xlink:href="#DejaVuSans-46" x="184.521484"/>
      <use xlink:href="#DejaVuSans-72" x="234.791016"/>
      <use xlink:href="#DejaVuSans-6f" x="273.654297"/>
      <use xlink:href="#DejaVuSans-6d" x="334.835938"/>
      <use xlink:href="#DejaVuSans-20" x="432.248047"/>
      <use xlink:href="#DejaVuSans-56" x="464.035156"/>
      <use xlink:href="#DejaVuSans-65" x="524.693359"/>
      <use xlink:href="#DejaVuSans-72" x="586.216797"/>
      <use xlink:href="#DejaVuSans-74" x="627.330078"/>
      <use xlink:href="#DejaVuSans-69" x="666.539062"/>
      <use xlink:href="#DejaVuSans-63" x="694.322266"/>
      <use xlink:href="#DejaVuSans-61" x="749.302734"/>
      <use xlink:href="#DejaVuSans-6c" x="810.582031"/>
      <use xlink:href="#DejaVuSans-20" x="838.365234"/>
      <use xlink:href="#DejaVuSans-28" x="870.152344"/>
      <use xlink:href="#DejaVuSans-64" x="909.166016"/>
      <use xlink:href="#DejaVuSans-65" x="972.642578"/>
      <use xlink:href="#DejaVuSans-67" x="1034.166016"/>
      <use xlink:href="#DejaVuSans-29" x="1097.642578"/>
     </g>
    </g>
   </g>
   <g id="PathCollection_14">
    <g clip-path="url(#pef7cf52df1)">
     <use xlink:href="#mfc63553d08" x="56.73" y="326.7529" style="fill: #355070; fill-opacity: 0.7; stroke: #355070; stroke-opacity: 0.7"/>
    </g>
   </g>
   <g id="PathCollection_15">
    <g clip-path="url(#pef7cf52df1)">
     <use xlink:href="#m308523570d" x="56.73" y="481.200909" style="fill: #e56b6f; fill-opacity: 0.7; stroke: #e56b6f; stroke-opacity: 0.7"/>
    </g>
   </g>
   <g id="PathCollection_16">
    <g clip-path="url(#pef7cf52df1)">
     <use xlink:href="#mec99dccd3a" x="56.73" y="315.957927" style="fill: #6d597a; fill-opacity: 0.7; stroke: #6d597a; stroke-opacity: 0.7"/>
    </g>
   </g>
   <g id="line2d_63">
    <path d="M 56.73 326.7529 
L 59.873333 323.103566 
L 63.016667 314.263625 
L 66.16 313.309274 
L 69.303333 312.019091 
L 72.446667 312.067888 
L 75.59 312.078331 
L 78.733333 318.060553 
L 81.876667 334.995931 
L 85.02 348.390119 
L 88.163333 369.473913 
L 91.306667 382.240522 
L 94.45 395.851979 
L 97.593333 407.256915 
L 100.736667 421.96092 
L 103.88 441.435588 
L 107.023333 456.635255 
L 110.166667 466.955775 
L 113.31 468.750145 
L 116.453333 473.065612 
L 119.596667 473.226762 
L 122.74 474.015197 
L 125.883333 475.014547 
L 129.026667 473.870807 
L 132.17 476.068924 
L 135.313333 473.906896 
L 138.456667 472.579233 
L 141.6 471.91841 
L 144.743333 477.112826 
L 147.886667 476.548224 
L 151.03 473.939652 
L 154.173333 473.04815 
L 157.316667 477.722426 
L 160.46 478.318705 
L 163.603333 474.731844 
L 166.746667 474.481236 
L 169.89 473.409783 
L 173.033333 472.64182 
L 176.176667 471.899872 
L 179.32 471.61171 
L 182.463333 471.057035 
L 185.606667 471.97493 
L 188.75 469.622432 
L 191.893333 466.270938 
L 195.036667 467.793116 
L 198.18 469.819321 
L 201.323333 471.409953 
L 204.466667 470.942331 
L 207.61 470.517032 
L 210.753333 468.559039 
L 213.896667 466.53196 
L 217.04 470.063194 
L 220.183333 470.990512 
L 223.326667 469.763021 
L 226.47 468.011368 
L 229.613333 470.81894 
L 232.756667 468.440659 
L 235.9 470.290088 
L 239.043333 470.238612 
L 242.186667 473.538448 
L 245.33 471.758601 
L 248.473333 475.087233 
L 251.616667 473.948801 
L 254.76 474.649131 
L 257.903333 474.081491 
L 261.046667 472.995877 
L 264.19 469.562988 
L 267.333333 473.344554 
L 270.476667 474.818969 
L 273.62 475.569747 
L 276.763333 474.936192 
L 279.906667 476.321515 
L 283.05 475.351864 
L 286.193333 474.399186 
L 289.336667 472.560223 
L 292.48 472.215466 
L 295.623333 471.6302 
L 298.766667 471.343107 
L 301.91 471.796933 
L 305.053333 470.876466 
L 308.196667 473.465812 
L 311.34 473.722134 
L 314.483333 473.214254 
L 317.626667 475.35616 
L 320.77 474.511862 
L 323.913333 474.642532 
L 327.056667 477.063609 
L 330.2 477.486127 
L 333.343333 476.795448 
L 336.486667 473.510763 
L 339.63 472.164255 
L 342.773333 473.41425 
L 345.916667 471.941664 
L 349.06 475.896679 
L 352.203333 476.19758 
L 355.346667 474.297228 
L 358.49 475.163146 
L 361.633333 474.288358 
L 364.776667 475.295684 
L 367.92 476.449422 
" clip-path="url(#pef7cf52df1)" style="fill: none; stroke: #355070; stroke-width: 2.4; stroke-linecap: square"/>
   </g>
   <g id="line2d_64">
    <path d="M 56.73 481.200909 
L 95.62875 481.200909 
L 134.5275 481.200909 
L 173.42625 481.200909 
L 212.325 481.200909 
L 251.22375 481.200909 
L 290.1225 481.200909 
L 329.02125 481.200909 
L 367.92 481.200909 
" clip-path="url(#pef7cf52df1)" style="fill: none; stroke: #e56b6f; stroke-width: 2.4; stroke-linecap: square"/>
   </g>
   <g id="line2d_65">
    <path d="M 56.73 315.957927 
L 367.92 315.957927 
" clip-path="url(#pef7cf52df1)" style="fill: none; stroke: #6d597a; stroke-width: 2.4; stroke-linecap: square"/>
   </g>
   <g id="patch_9">
    <path d="M 56.73 489.66 
L 56.73 303.56 
" style="fill: none; stroke: #cfd8dc; stroke-width: 0.8; stroke-linejoin: miter; stroke-linecap: square"/>
   </g>
   <g id="patch_10">
    <path d="M 56.73 489.66 
L 367.92 489.66 
" style="fill: none; stroke: #cfd8dc; stroke-width: 0.8; stroke-linejoin: miter; stroke-linecap: square"/>
   </g>
   <g id="PathCollection_17">
    <g clip-path="url(#pef7cf52df1)">
     <use xlink:href="#m6028466d79" x="367.92" y="476.449422" style="fill: #355070; stroke: #ffffff; stroke-width: 0.8"/>
    </g>
   </g>
   <g id="PathCollection_18">
    <g clip-path="url(#pef7cf52df1)">
     <use xlink:href="#m55ef55a91d" x="367.92" y="481.200909" style="fill: #e56b6f; stroke: #ffffff; stroke-width: 0.8"/>
    </g>
   </g>
   <g id="PathCollection_19">
    <g clip-path="url(#pef7cf52df1)">
     <use xlink:href="#m018e48514a" x="367.92" y="315.957927" style="fill: #6d597a; stroke: #ffffff; stroke-width: 0.8"/>
    </g>
   </g>
   <g id="text_44">
    <!-- Screwdriver: long screwdriver Axis Tilt -->
    <g style="fill: #243b53" transform="translate(56.73 295.56) scale(0.12 -0.12)">
     <defs>
      <path id="DejaVuSans-76" d="M 191 3500 
L 800 3500 
L 1894 563 
L 2988 3500 
L 3597 3500 
L 2284 0 
L 1503 0 
L 191 3500 
z
" transform="scale(0.015625)"/>
      <path id="DejaVuSans-6e" d="M 3513 2113 
L 3513 0 
L 2938 0 
L 2938 2094 
Q 2938 2591 2744 2837 
Q 2550 3084 2163 3084 
Q 1697 3084 1428 2787 
Q 1159 2491 1159 1978 
L 1159 0 
L 581 0 
L 581 3500 
L 1159 3500 
L 1159 2956 
Q 1366 3272 1645 3428 
Q 1925 3584 2291 3584 
Q 2894 3584 3203 3211 
Q 3513 2838 3513 2113 
z
" transform="scale(0.015625)"/>
      <path id="DejaVuSans-41" d="M 2188 4044 
L 1331 1722 
L 3047 1722 
L 2188 4044 
z
M 1831 4666 
L 2547 4666 
L 4325 0 
L 3669 0 
L 3244 1197 
L 1141 1197 
L 716 0 
L 50 0 
L 1831 4666 
z
" transform="scale(0.015625)"/>
      <path id="DejaVuSans-78" d="M 3513 3500 
L 2247 1797 
L 3578 0 
L 2900 0 
L 1881 1375 
L 863 0 
L 184 0 
L 1544 1831 
L 300 3500 
L 978 3500 
L 1906 2253 
L 2834 3500 
L 3513 3500 
z
" transform="scale(0.015625)"/>
     </defs>
     <use xlink:href="#DejaVuSans-53"/>
     <use xlink:href="#DejaVuSans-63" x="63.476562"/>
     <use xlink:href="#DejaVuSans-72" x="118.457031"/>
     <use xlink:href="#DejaVuSans-65" x="157.320312"/>
     <use xlink:href="#DejaVuSans-77" x="218.84375"/>
     <use xlink:href="#DejaVuSans-64" x="300.630859"/>
     <use xlink:href="#DejaVuSans-72" x="364.107422"/>
     <use xlink:href="#DejaVuSans-69" x="405.220703"/>
     <use xlink:href="#DejaVuSans-76" x="433.003906"/>
     <use xlink:href="#DejaVuSans-65" x="492.183594"/>
     <use xlink:href="#DejaVuSans-72" x="553.707031"/>
     <use xlink:href="#DejaVuSans-3a" x="593.070312"/>
     <use xlink:href="#DejaVuSans-20" x="626.761719"/>
     <use xlink:href="#DejaVuSans-6c" x="658.548828"/>
     <use xlink:href="#DejaVuSans-6f" x="686.332031"/>
     <use xlink:href="#DejaVuSans-6e" x="747.513672"/>
     <use xlink:href="#DejaVuSans-67" x="810.892578"/>
     <use xlink:href="#DejaVuSans-20" x="874.369141"/>
     <use xlink:href="#DejaVuSans-73" x="906.15625"/>
     <use xlink:href="#DejaVuSans-63" x="958.255859"/>
     <use xlink:href="#DejaVuSans-72" x="1013.236328"/>
     <use xlink:href="#DejaVuSans-65" x="1052.099609"/>
     <use xlink:href="#DejaVuSans-77" x="1113.623047"/>
     <use xlink:href="#DejaVuSans-64" x="1195.410156"/>
     <use xlink:href="#DejaVuSans-72" x="1258.886719"/>
     <use xlink:href="#DejaVuSans-69" x="1300"/>
     <use xlink:href="#DejaVuSans-76" x="1327.783203"/>
     <use xlink:href="#DejaVuSans-65" x="1386.962891"/>
     <use xlink:href="#DejaVuSans-72" x="1448.486328"/>
     <use xlink:href="#DejaVuSans-20" x="1489.599609"/>
     <use xlink:href="#DejaVuSans-41" x="1521.386719"/>
     <use xlink:href="#DejaVuSans-78" x="1589.794922"/>
     <use xlink:href="#DejaVuSans-69" x="1648.974609"/>
     <use xlink:href="#DejaVuSans-73" x="1676.757812"/>
     <use xlink:href="#DejaVuSans-20" x="1728.857422"/>
     <use xlink:href="#DejaVuSans-54" x="1760.644531"/>
     <use xlink:href="#DejaVuSans-69" x="1818.603516"/>
     <use xlink:href="#DejaVuSans-6c" x="1846.386719"/>
     <use xlink:href="#DejaVuSans-74" x="1874.169922"/>
    </g>
   </g>
  </g>
  <g id="axes_4">
   <g id="patch_11">
    <path d="M 445.845 489.66 
L 757.035 489.66 
L 757.035 303.56 
L 445.845 303.56 
z
" style="fill: #ffffff"/>
   </g>
   <g id="line2d_66">
    <path d="M 445.845 318.190883 
L 757.035 318.190883 
" clip-path="url(#pd2cd223e38)" style="fill: none; stroke: #d9e2ec; stroke-width: 1.2; stroke-linecap: square"/>
   </g>
   <g id="matplotlib.axis_7">
    <g id="xtick_21">
     <g id="line2d_67">
      <path d="M 445.845 489.66 
L 445.845 303.56 
" clip-path="url(#pd2cd223e38)" style="fill: none; stroke: #e6dfd5; stroke-opacity: 0.9; stroke-width: 0.8; stroke-linecap: square"/>
     </g>
     <g id="line2d_68"/>
     <g id="text_45">
      <!-- 0.0 -->
      <g style="fill: #334e68" transform="translate(437.098281 501.518281) scale(0.11 -0.11)">
       <use xlink:href="#DejaVuSans-30"/>
       <use xlink:href="#DejaVuSans-2e" x="63.623047"/>
       <use xlink:href="#DejaVuSans-30" x="95.410156"/>
      </g>
     </g>
    </g>
    <g id="xtick_22">
     <g id="line2d_69">
      <path d="M 508.083 489.66 
L 508.083 303.56 
" clip-path="url(#pd2cd223e38)" style="fill: none; stroke: #e6dfd5; stroke-opacity: 0.9; stroke-width: 0.8; stroke-linecap: square"/>
     </g>
     <g id="line2d_70"/>
     <g id="text_46">
      <!-- 0.2 -->
      <g style="fill: #334e68" transform="translate(499.336281 501.518281) scale(0.11 -0.11)">
       <use xlink:href="#DejaVuSans-30"/>
       <use xlink:href="#DejaVuSans-2e" x="63.623047"/>
       <use xlink:href="#DejaVuSans-32" x="95.410156"/>
      </g>
     </g>
    </g>
    <g id="xtick_23">
     <g id="line2d_71">
      <path d="M 570.321 489.66 
L 570.321 303.56 
" clip-path="url(#pd2cd223e38)" style="fill: none; stroke: #e6dfd5; stroke-opacity: 0.9; stroke-width: 0.8; stroke-linecap: square"/>
     </g>
     <g id="line2d_72"/>
     <g id="text_47">
      <!-- 0.4 -->
      <g style="fill: #334e68" transform="translate(561.574281 501.518281) scale(0.11 -0.11)">
       <use xlink:href="#DejaVuSans-30"/>
       <use xlink:href="#DejaVuSans-2e" x="63.623047"/>
       <use xlink:href="#DejaVuSans-34" x="95.410156"/>
      </g>
     </g>
    </g>
    <g id="xtick_24">
     <g id="line2d_73">
      <path d="M 632.559 489.66 
L 632.559 303.56 
" clip-path="url(#pd2cd223e38)" style="fill: none; stroke: #e6dfd5; stroke-opacity: 0.9; stroke-width: 0.8; stroke-linecap: square"/>
     </g>
     <g id="line2d_74"/>
     <g id="text_48">
      <!-- 0.6 -->
      <g style="fill: #334e68" transform="translate(623.812281 501.518281) scale(0.11 -0.11)">
       <use xlink:href="#DejaVuSans-30"/>
       <use xlink:href="#DejaVuSans-2e" x="63.623047"/>
       <use xlink:href="#DejaVuSans-36" x="95.410156"/>
      </g>
     </g>
    </g>
    <g id="xtick_25">
     <g id="line2d_75">
      <path d="M 694.797 489.66 
L 694.797 303.56 
" clip-path="url(#pd2cd223e38)" style="fill: none; stroke: #e6dfd5; stroke-opacity: 0.9; stroke-width: 0.8; stroke-linecap: square"/>
     </g>
     <g id="line2d_76"/>
     <g id="text_49">
      <!-- 0.8 -->
      <g style="fill: #334e68" transform="translate(686.050281 501.518281) scale(0.11 -0.11)">
       <use xlink:href="#DejaVuSans-30"/>
       <use xlink:href="#DejaVuSans-2e" x="63.623047"/>
       <use xlink:href="#DejaVuSans-38" x="95.410156"/>
      </g>
     </g>
    </g>
    <g id="xtick_26">
     <g id="line2d_77">
      <path d="M 757.035 489.66 
L 757.035 303.56 
" clip-path="url(#pd2cd223e38)" style="fill: none; stroke: #e6dfd5; stroke-opacity: 0.9; stroke-width: 0.8; stroke-linecap: square"/>
     </g>
     <g id="line2d_78"/>
     <g id="text_50">
      <!-- 1.0 -->
      <g style="fill: #334e68" transform="translate(748.288281 501.518281) scale(0.11 -0.11)">
       <use xlink:href="#DejaVuSans-31"/>
       <use xlink:href="#DejaVuSans-2e" x="63.623047"/>
       <use xlink:href="#DejaVuSans-30" x="95.410156"/>
      </g>
     </g>
    </g>
    <g id="text_51">
     <!-- Normalized Progress -->
     <g transform="translate(539.907188 516.924062) scale(0.12 -0.12)">
      <use xlink:href="#DejaVuSans-4e"/>
      <use xlink:href="#DejaVuSans-6f" x="74.804688"/>
      <use xlink:href="#DejaVuSans-72" x="135.986328"/>
      <use xlink:href="#DejaVuSans-6d" x="175.349609"/>
      <use xlink:href="#DejaVuSans-61" x="272.761719"/>
      <use xlink:href="#DejaVuSans-6c" x="334.041016"/>
      <use xlink:href="#DejaVuSans-69" x="361.824219"/>
      <use xlink:href="#DejaVuSans-7a" x="389.607422"/>
      <use xlink:href="#DejaVuSans-65" x="442.097656"/>
      <use xlink:href="#DejaVuSans-64" x="503.621094"/>
      <use xlink:href="#DejaVuSans-20" x="567.097656"/>
      <use xlink:href="#DejaVuSans-50" x="598.884766"/>
      <use xlink:href="#DejaVuSans-72" x="657.4375"/>
      <use xlink:href="#DejaVuSans-6f" x="696.300781"/>
      <use xlink:href="#DejaVuSans-67" x="757.482422"/>
      <use xlink:href="#DejaVuSans-72" x="820.958984"/>
      <use xlink:href="#DejaVuSans-65" x="859.822266"/>
      <use xlink:href="#DejaVuSans-73" x="921.345703"/>
      <use xlink:href="#DejaVuSans-73" x="973.445312"/>
     </g>
    </g>
   </g>
   <g id="matplotlib.axis_8">
    <g id="ytick_16">
     <g id="line2d_79"/>
     <g id="text_52">
      <!-- −1750 -->
      <g style="fill: #334e68" transform="translate(405.132344 476.293876) scale(0.11 -0.11)">
       <use xlink:href="#DejaVuSans-2212"/>
       <use xlink:href="#DejaVuSans-31" x="83.789062"/>
       <use xlink:href="#DejaVuSans-37" x="147.412109"/>
       <use xlink:href="#DejaVuSans-35" x="211.035156"/>
       <use xlink:href="#DejaVuSans-30" x="274.658203"/>
      </g>
     </g>
    </g>
    <g id="ytick_17">
     <g id="line2d_80"/>
     <g id="text_53">
      <!-- −1500 -->
      <g style="fill: #334e68" transform="translate(405.132344 454.304754) scale(0.11 -0.11)">
       <use xlink:href="#DejaVuSans-2212"/>
       <use xlink:href="#DejaVuSans-31" x="83.789062"/>
       <use xlink:href="#DejaVuSans-35" x="147.412109"/>
       <use xlink:href="#DejaVuSans-30" x="211.035156"/>
       <use xlink:href="#DejaVuSans-30" x="274.658203"/>
      </g>
     </g>
    </g>
    <g id="ytick_18">
     <g id="line2d_81"/>
     <g id="text_54">
      <!-- −1250 -->
      <g style="fill: #334e68" transform="translate(405.132344 432.315632) scale(0.11 -0.11)">
       <use xlink:href="#DejaVuSans-2212"/>
       <use xlink:href="#DejaVuSans-31" x="83.789062"/>
       <use xlink:href="#DejaVuSans-32" x="147.412109"/>
       <use xlink:href="#DejaVuSans-35" x="211.035156"/>
       <use xlink:href="#DejaVuSans-30" x="274.658203"/>
      </g>
     </g>
    </g>
    <g id="ytick_19">
     <g id="line2d_82"/>
     <g id="text_55">
      <!-- −1000 -->
      <g style="fill: #334e68" transform="translate(405.132344 410.326511) scale(0.11 -0.11)">
       <use xlink:href="#DejaVuSans-2212"/>
       <use xlink:href="#DejaVuSans-31" x="83.789062"/>
       <use xlink:href="#DejaVuSans-30" x="147.412109"/>
       <use xlink:href="#DejaVuSans-30" x="211.035156"/>
       <use xlink:href="#DejaVuSans-30" x="274.658203"/>
      </g>
     </g>
    </g>
    <g id="ytick_20">
     <g id="line2d_83"/>
     <g id="text_56">
      <!-- −750 -->
      <g style="fill: #334e68" transform="translate(412.131094 388.337389) scale(0.11 -0.11)">
       <use xlink:href="#DejaVuSans-2212"/>
       <use xlink:href="#DejaVuSans-37" x="83.789062"/>
       <use xlink:href="#DejaVuSans-35" x="147.412109"/>
       <use xlink:href="#DejaVuSans-30" x="211.035156"/>
      </g>
     </g>
    </g>
    <g id="ytick_21">
     <g id="line2d_84"/>
     <g id="text_57">
      <!-- −500 -->
      <g style="fill: #334e68" transform="translate(412.131094 366.348267) scale(0.11 -0.11)">
       <use xlink:href="#DejaVuSans-2212"/>
       <use xlink:href="#DejaVuSans-35" x="83.789062"/>
       <use xlink:href="#DejaVuSans-30" x="147.412109"/>
       <use xlink:href="#DejaVuSans-30" x="211.035156"/>
      </g>
     </g>
    </g>
    <g id="ytick_22">
     <g id="line2d_85"/>
     <g id="text_58">
      <!-- −250 -->
      <g style="fill: #334e68" transform="translate(412.131094 344.359145) scale(0.11 -0.11)">
       <use xlink:href="#DejaVuSans-2212"/>
       <use xlink:href="#DejaVuSans-32" x="83.789062"/>
       <use xlink:href="#DejaVuSans-35" x="147.412109"/>
       <use xlink:href="#DejaVuSans-30" x="211.035156"/>
      </g>
     </g>
    </g>
    <g id="ytick_23">
     <g id="line2d_86"/>
     <g id="text_59">
      <!-- 0 -->
      <g style="fill: #334e68" transform="translate(435.34625 322.370023) scale(0.11 -0.11)">
       <use xlink:href="#DejaVuSans-30"/>
      </g>
     </g>
    </g>
    <g id="text_60">
     <!-- Relative Twist (deg) -->
     <g transform="translate(398.636719 455.33875) rotate(-90) scale(0.12 -0.12)">
      <defs>
       <path id="DejaVuSans-52" d="M 2841 2188 
Q 3044 2119 3236 1894 
Q 3428 1669 3622 1275 
L 4263 0 
L 3584 0 
L 2988 1197 
Q 2756 1666 2539 1819 
Q 2322 1972 1947 1972 
L 1259 1972 
L 1259 0 
L 628 0 
L 628 4666 
L 2053 4666 
Q 2853 4666 3247 4331 
Q 3641 3997 3641 3322 
Q 3641 2881 3436 2590 
Q 3231 2300 2841 2188 
z
M 1259 4147 
L 1259 2491 
L 2053 2491 
Q 2509 2491 2742 2702 
Q 2975 2913 2975 3322 
Q 2975 3731 2742 3939 
Q 2509 4147 2053 4147 
L 1259 4147 
z
" transform="scale(0.015625)"/>
      </defs>
      <use xlink:href="#DejaVuSans-52"/>
      <use xlink:href="#DejaVuSans-65" x="64.982422"/>
      <use xlink:href="#DejaVuSans-6c" x="126.505859"/>
      <use xlink:href="#DejaVuSans-61" x="154.289062"/>
      <use xlink:href="#DejaVuSans-74" x="215.568359"/>
      <use xlink:href="#DejaVuSans-69" x="254.777344"/>
      <use xlink:href="#DejaVuSans-76" x="282.560547"/>
      <use xlink:href="#DejaVuSans-65" x="341.740234"/>
      <use xlink:href="#DejaVuSans-20" x="403.263672"/>
      <use xlink:href="#DejaVuSans-54" x="435.050781"/>
      <use xlink:href="#DejaVuSans-77" x="479.634766"/>
      <use xlink:href="#DejaVuSans-69" x="561.421875"/>
      <use xlink:href="#DejaVuSans-73" x="589.205078"/>
      <use xlink:href="#DejaVuSans-74" x="641.304688"/>
      <use xlink:href="#DejaVuSans-20" x="680.513672"/>
      <use xlink:href="#DejaVuSans-28" x="712.300781"/>
      <use xlink:href="#DejaVuSans-64" x="751.314453"/>
      <use xlink:href="#DejaVuSans-65" x="814.791016"/>
      <use xlink:href="#DejaVuSans-67" x="876.314453"/>
      <use xlink:href="#DejaVuSans-29" x="939.791016"/>
     </g>
    </g>
   </g>
   <g id="PathCollection_20">
    <g clip-path="url(#pd2cd223e38)">
     <use xlink:href="#mfc63553d08" x="445.845" y="318.190883" style="fill: #355070; fill-opacity: 0.7; stroke: #355070; stroke-opacity: 0.7"/>
    </g>
   </g>
   <g id="PathCollection_21">
    <g clip-path="url(#pd2cd223e38)">
     <use xlink:href="#m308523570d" x="445.845" y="318.190883" style="fill: #e56b6f; fill-opacity: 0.7; stroke: #e56b6f; stroke-opacity: 0.7"/>
    </g>
   </g>
   <g id="PathCollection_22">
    <g clip-path="url(#pd2cd223e38)">
     <use xlink:href="#mec99dccd3a" x="445.845" y="318.190883" style="fill: #6d597a; fill-opacity: 0.7; stroke: #6d597a; stroke-opacity: 0.7"/>
    </g>
   </g>
   <g id="line2d_87">
    <path d="M 445.845 318.190883 
L 448.988333 324.301476 
L 452.131667 313.255446 
L 455.275 312.241355 
L 458.418333 312.054336 
L 461.561667 312.089793 
L 464.705 312.019091 
L 467.848333 312.382719 
L 470.991667 314.43453 
L 474.135 317.283395 
L 477.278333 321.787199 
L 480.421667 319.676725 
L 483.565 319.055832 
L 486.708333 319.174043 
L 489.851667 319.680779 
L 492.995 320.273439 
L 496.138333 321.21754 
L 499.281667 320.744724 
L 502.425 320.667622 
L 505.568333 320.645463 
L 508.711667 320.908428 
L 511.855 320.856187 
L 514.998333 320.98966 
L 518.141667 321.945441 
L 521.285 324.098505 
L 524.428333 329.292504 
L 527.571667 336.791302 
L 530.715 338.068076 
L 533.858333 337.603351 
L 537.001667 338.661664 
L 540.145 339.246657 
L 543.288333 340.750051 
L 546.431667 353.66487 
L 549.575 363.367806 
L 552.718333 373.927385 
L 555.861667 385.852875 
L 559.005 387.513876 
L 562.148333 387.392664 
L 565.291667 387.148164 
L 568.435 388.589754 
L 571.578333 391.37227 
L 574.721667 391.275239 
L 577.865 393.344991 
L 581.008333 395.108052 
L 584.151667 395.976954 
L 587.295 397.656105 
L 590.438333 399.348814 
L 593.581667 400.101219 
L 596.725 402.122253 
L 599.868333 404.291823 
L 603.011667 404.13413 
L 606.155 403.892763 
L 609.298333 405.789555 
L 612.441667 407.361854 
L 615.585 409.572204 
L 618.728333 410.441069 
L 621.871667 412.452155 
L 625.015 414.237756 
L 628.158333 415.928187 
L 631.301667 418.172036 
L 634.445 418.739754 
L 637.588333 418.837542 
L 640.731667 419.708798 
L 643.875 422.182562 
L 647.018333 422.391234 
L 650.161667 424.739544 
L 653.305 426.53195 
L 656.448333 428.666645 
L 659.591667 429.330791 
L 662.735 433.765915 
L 665.878333 434.288967 
L 669.021667 434.78637 
L 672.165 435.54254 
L 675.308333 436.47819 
L 678.451667 440.46746 
L 681.595 441.367158 
L 684.738333 443.626427 
L 687.881667 444.787722 
L 691.025 445.146548 
L 694.168333 449.294022 
L 697.311667 450.432511 
L 700.455 451.161736 
L 703.598333 453.851871 
L 706.741667 454.921684 
L 709.885 458.879331 
L 713.028333 460.54633 
L 716.171667 462.890259 
L 719.315 465.614857 
L 722.458333 466.073925 
L 725.601667 469.393155 
L 728.745 471.817538 
L 731.888333 474.051016 
L 735.031667 475.859527 
L 738.175 477.107499 
L 741.318333 480.250963 
L 744.461667 481.200909 
L 747.605 480.964883 
L 750.748333 480.996112 
L 753.891667 480.979495 
L 757.035 481.135102 
" clip-path="url(#pd2cd223e38)" style="fill: none; stroke: #355070; stroke-width: 2.4; stroke-linecap: square"/>
   </g>
   <g id="line2d_88">
    <path d="M 445.845 318.190883 
L 484.74375 322.148925 
L 523.6425 326.106966 
L 562.54125 330.065008 
L 601.44 334.02305 
L 640.33875 337.981092 
L 679.2375 341.939134 
L 718.13625 345.897176 
L 757.035 349.855218 
" clip-path="url(#pd2cd223e38)" style="fill: none; stroke: #e56b6f; stroke-width: 2.4; stroke-linecap: square"/>
   </g>
   <g id="line2d_89">
    <path d="M 445.845 318.190883 
L 757.035 318.190883 
" clip-path="url(#pd2cd223e38)" style="fill: none; stroke: #6d597a; stroke-width: 2.4; stroke-linecap: square"/>
   </g>
   <g id="patch_12">
    <path d="M 445.845 489.66 
L 445.845 303.56 
" style="fill: none; stroke: #cfd8dc; stroke-width: 0.8; stroke-linejoin: miter; stroke-linecap: square"/>
   </g>
   <g id="patch_13">
    <path d="M 445.845 489.66 
L 757.035 489.66 
" style="fill: none; stroke: #cfd8dc; stroke-width: 0.8; stroke-linejoin: miter; stroke-linecap: square"/>
   </g>
   <g id="PathCollection_23">
    <g clip-path="url(#pd2cd223e38)">
     <use xlink:href="#m6028466d79" x="757.035" y="481.135102" style="fill: #355070; stroke: #ffffff; stroke-width: 0.8"/>
    </g>
   </g>
   <g id="PathCollection_24">
    <g clip-path="url(#pd2cd223e38)">
     <use xlink:href="#m55ef55a91d" x="757.035" y="349.855218" style="fill: #e56b6f; stroke: #ffffff; stroke-width: 0.8"/>
    </g>
   </g>
   <g id="PathCollection_25">
    <g clip-path="url(#pd2cd223e38)">
     <use xlink:href="#m018e48514a" x="757.035" y="318.190883" style="fill: #6d597a; stroke: #ffffff; stroke-width: 0.8"/>
    </g>
   </g>
   <g id="text_61">
    <!-- Screwdriver: long screwdriver Twist Angle -->
    <g style="fill: #243b53" transform="translate(445.845 295.56) scale(0.12 -0.12)">
     <use xlink:href="#DejaVuSans-53"/>
     <use xlink:href="#DejaVuSans-63" x="63.476562"/>
     <use xlink:href="#DejaVuSans-72" x="118.457031"/>
     <use xlink:href="#DejaVuSans-65" x="157.320312"/>
     <use xlink:href="#DejaVuSans-77" x="218.84375"/>
     <use xlink:href="#DejaVuSans-64" x="300.630859"/>
     <use xlink:href="#DejaVuSans-72" x="364.107422"/>
     <use xlink:href="#DejaVuSans-69" x="405.220703"/>
     <use xlink:href="#DejaVuSans-76" x="433.003906"/>
     <use xlink:href="#DejaVuSans-65" x="492.183594"/>
     <use xlink:href="#DejaVuSans-72" x="553.707031"/>
     <use xlink:href="#DejaVuSans-3a" x="593.070312"/>
     <use xlink:href="#DejaVuSans-20" x="626.761719"/>
     <use xlink:href="#DejaVuSans-6c" x="658.548828"/>
     <use xlink:href="#DejaVuSans-6f" x="686.332031"/>
     <use xlink:href="#DejaVuSans-6e" x="747.513672"/>
     <use xlink:href="#DejaVuSans-67" x="810.892578"/>
     <use xlink:href="#DejaVuSans-20" x="874.369141"/>
     <use xlink:href="#DejaVuSans-73" x="906.15625"/>
     <use xlink:href="#DejaVuSans-63" x="958.255859"/>
     <use xlink:href="#DejaVuSans-72" x="1013.236328"/>
     <use xlink:href="#DejaVuSans-65" x="1052.099609"/>
     <use xlink:href="#DejaVuSans-77" x="1113.623047"/>
     <use xlink:href="#DejaVuSans-64" x="1195.410156"/>
     <use xlink:href="#DejaVuSans-72" x="1258.886719"/>
     <use xlink:href="#DejaVuSans-69" x="1300"/>
     <use xlink:href="#DejaVuSans-76" x="1327.783203"/>
     <use xlink:href="#DejaVuSans-65" x="1386.962891"/>
     <use xlink:href="#DejaVuSans-72" x="1448.486328"/>
     <use xlink:href="#DejaVuSans-20" x="1489.599609"/>
     <use xlink:href="#DejaVuSans-54" x="1521.386719"/>
     <use xlink:href="#DejaVuSans-77" x="1565.970703"/>
     <use xlink:href="#DejaVuSans-69" x="1647.757812"/>
     <use xlink:href="#DejaVuSans-73" x="1675.541016"/>
     <use xlink:href="#DejaVuSans-74" x="1727.640625"/>
     <use xlink:href="#DejaVuSans-20" x="1766.849609"/>
     <use xlink:href="#DejaVuSans-41" x="1798.636719"/>
     <use xlink:href="#DejaVuSans-6e" x="1867.044922"/>
     <use xlink:href="#DejaVuSans-67" x="1930.423828"/>
     <use xlink:href="#DejaVuSans-6c" x="1993.900391"/>
     <use xlink:href="#DejaVuSans-65" x="2021.683594"/>
    </g>
   </g>
  </g>
  <g id="text_62">
   <!-- Target-A Trajectory Comparison -->
   <g style="fill: #243b53" transform="translate(46.656 17.4855) scale(0.16 -0.16)">
    <defs>
     <path id="DejaVuSans-2d" d="M 313 2009 
L 1997 2009 
L 1997 1497 
L 313 1497 
L 313 2009 
z
" transform="scale(0.015625)"/>
     <path id="DejaVuSans-6a" d="M 603 3500 
L 1178 3500 
L 1178 -63 
Q 1178 -731 923 -1031 
Q 669 -1331 103 -1331 
L -116 -1331 
L -116 -844 
L 38 -844 
Q 366 -844 484 -692 
Q 603 -541 603 -63 
L 603 3500 
z
M 603 4863 
L 1178 4863 
L 1178 4134 
L 603 4134 
L 603 4863 
z
" transform="scale(0.015625)"/>
     <path id="DejaVuSans-79" d="M 2059 -325 
Q 1816 -950 1584 -1140 
Q 1353 -1331 966 -1331 
L 506 -1331 
L 506 -850 
L 844 -850 
Q 1081 -850 1212 -737 
Q 1344 -625 1503 -206 
L 1606 56 
L 191 3500 
L 800 3500 
L 1894 763 
L 2988 3500 
L 3597 3500 
L 2059 -325 
z
" transform="scale(0.015625)"/>
     <path id="DejaVuSans-43" d="M 4122 4306 
L 4122 3641 
Q 3803 3938 3442 4084 
Q 3081 4231 2675 4231 
Q 1875 4231 1450 3742 
Q 1025 3253 1025 2328 
Q 1025 1406 1450 917 
Q 1875 428 2675 428 
Q 3081 428 3442 575 
Q 3803 722 4122 1019 
L 4122 359 
Q 3791 134 3420 21 
Q 3050 -91 2638 -91 
Q 1578 -91 968 557 
Q 359 1206 359 2328 
Q 359 3453 968 4101 
Q 1578 4750 2638 4750 
Q 3056 4750 3426 4639 
Q 3797 4528 4122 4306 
z
" transform="scale(0.015625)"/>
    </defs>
    <use xlink:href="#DejaVuSans-54"/>
    <use xlink:href="#DejaVuSans-61" x="44.583984"/>
    <use xlink:href="#DejaVuSans-72" x="105.863281"/>
    <use xlink:href="#DejaVuSans-67" x="145.226562"/>
    <use xlink:href="#DejaVuSans-65" x="208.703125"/>
    <use xlink:href="#DejaVuSans-74" x="270.226562"/>
    <use xlink:href="#DejaVuSans-2d" x="309.435547"/>
    <use xlink:href="#DejaVuSans-41" x="343.269531"/>
    <use xlink:href="#DejaVuSans-20" x="411.677734"/>
    <use xlink:href="#DejaVuSans-54" x="443.464844"/>
    <use xlink:href="#DejaVuSans-72" x="489.798828"/>
    <use xlink:href="#DejaVuSans-61" x="530.912109"/>
    <use xlink:href="#DejaVuSans-6a" x="592.191406"/>
    <use xlink:href="#DejaVuSans-65" x="619.974609"/>
    <use xlink:href="#DejaVuSans-63" x="681.498047"/>
    <use xlink:href="#DejaVuSans-74" x="736.478516"/>
    <use xlink:href="#DejaVuSans-6f" x="775.6875"/>
    <use xlink:href="#DejaVuSans-72" x="836.869141"/>
    <use xlink:href="#DejaVuSans-79" x="877.982422"/>
    <use xlink:href="#DejaVuSans-20" x="937.162109"/>
    <use xlink:href="#DejaVuSans-43" x="968.949219"/>
    <use xlink:href="#DejaVuSans-6f" x="1038.773438"/>
    <use xlink:href="#DejaVuSans-6d" x="1099.955078"/>
    <use xlink:href="#DejaVuSans-70" x="1197.367188"/>
    <use xlink:href="#DejaVuSans-61" x="1260.84375"/>
    <use xlink:href="#DejaVuSans-72" x="1322.123047"/>
    <use xlink:href="#DejaVuSans-69" x="1363.236328"/>
    <use xlink:href="#DejaVuSans-73" x="1391.019531"/>
    <use xlink:href="#DejaVuSans-6f" x="1443.119141"/>
    <use xlink:href="#DejaVuSans-6e" x="1504.300781"/>
   </g>
  </g>
  <g id="legend_1">
   <g id="line2d_90">
    <path d="M 241.470469 3.752281 
L 252.470469 3.752281 
L 263.470469 3.752281 
" style="fill: none; stroke: #355070; stroke-width: 2.4; stroke-linecap: square"/>
   </g>
   <g id="text_63">
    <!-- Predefined -->
    <g transform="translate(272.270469 7.602281) scale(0.11 -0.11)">
     <defs>
      <path id="DejaVuSans-66" d="M 2375 4863 
L 2375 4384 
L 1825 4384 
Q 1516 4384 1395 4259 
Q 1275 4134 1275 3809 
L 1275 3500 
L 2222 3500 
L 2222 3053 
L 1275 3053 
L 1275 0 
L 697 0 
L 697 3053 
L 147 3053 
L 147 3500 
L 697 3500 
L 697 3744 
Q 697 4328 969 4595 
Q 1241 4863 1831 4863 
L 2375 4863 
z
" transform="scale(0.015625)"/>
     </defs>
     <use xlink:href="#DejaVuSans-50"/>
     <use xlink:href="#DejaVuSans-72" x="58.552734"/>
     <use xlink:href="#DejaVuSans-65" x="97.416016"/>
     <use xlink:href="#DejaVuSans-64" x="158.939453"/>
     <use xlink:href="#DejaVuSans-65" x="222.416016"/>
     <use xlink:href="#DejaVuSans-66" x="283.939453"/>
     <use xlink:href="#DejaVuSans-69" x="319.144531"/>
     <use xlink:href="#DejaVuSans-6e" x="346.927734"/>
     <use xlink:href="#DejaVuSans-65" x="410.306641"/>
     <use xlink:href="#DejaVuSans-64" x="471.830078"/>
    </g>
   </g>
   <g id="line2d_91">
    <path d="M 353.156563 3.752281 
L 364.156563 3.752281 
L 375.156563 3.752281 
" style="fill: none; stroke: #e56b6f; stroke-width: 2.4; stroke-linecap: square"/>
   </g>
   <g id="text_64">
    <!-- LLM Lie -->
    <g transform="translate(383.956563 7.602281) scale(0.11 -0.11)">
     <defs>
      <path id="DejaVuSans-4c" d="M 628 4666 
L 1259 4666 
L 1259 531 
L 3531 531 
L 3531 0 
L 628 0 
L 628 4666 
z
" transform="scale(0.015625)"/>
      <path id="DejaVuSans-4d" d="M 628 4666 
L 1569 4666 
L 2759 1491 
L 3956 4666 
L 4897 4666 
L 4897 0 
L 4281 0 
L 4281 4097 
L 3078 897 
L 2444 897 
L 1241 4097 
L 1241 0 
L 628 0 
L 628 4666 
z
" transform="scale(0.015625)"/>
     </defs>
     <use xlink:href="#DejaVuSans-4c"/>
     <use xlink:href="#DejaVuSans-4c" x="55.712891"/>
     <use xlink:href="#DejaVuSans-4d" x="111.425781"/>
     <use xlink:href="#DejaVuSans-20" x="197.705078"/>
     <use xlink:href="#DejaVuSans-4c" x="229.492188"/>
     <use xlink:href="#DejaVuSans-69" x="285.205078"/>
     <use xlink:href="#DejaVuSans-65" x="312.988281"/>
    </g>
   </g>
   <g id="line2d_92">
    <path d="M 447.155 3.752281 
L 458.155 3.752281 
L 469.155 3.752281 
" style="fill: none; stroke: #6d597a; stroke-width: 2.4; stroke-linecap: square"/>
   </g>
   <g id="text_65">
    <!-- LLM Direct -->
    <g transform="translate(477.955 7.602281) scale(0.11 -0.11)">
     <defs>
      <path id="DejaVuSans-44" d="M 1259 4147 
L 1259 519 
L 2022 519 
Q 2988 519 3436 956 
Q 3884 1394 3884 2338 
Q 3884 3275 3436 3711 
Q 2988 4147 2022 4147 
L 1259 4147 
z
M 628 4666 
L 1925 4666 
Q 3281 4666 3915 4102 
Q 4550 3538 4550 2338 
Q 4550 1131 3912 565 
Q 3275 0 1925 0 
L 628 0 
L 628 4666 
z
" transform="scale(0.015625)"/>
     </defs>
     <use xlink:href="#DejaVuSans-4c"/>
     <use xlink:href="#DejaVuSans-4c" x="55.712891"/>
     <use xlink:href="#DejaVuSans-4d" x="111.425781"/>
     <use xlink:href="#DejaVuSans-20" x="197.705078"/>
     <use xlink:href="#DejaVuSans-44" x="229.492188"/>
     <use xlink:href="#DejaVuSans-69" x="306.494141"/>
     <use xlink:href="#DejaVuSans-72" x="334.277344"/>
     <use xlink:href="#DejaVuSans-65" x="373.140625"/>
     <use xlink:href="#DejaVuSans-63" x="434.664062"/>
     <use xlink:href="#DejaVuSans-74" x="489.644531"/>
    </g>
   </g>
  </g>
 </g>
 <defs>
  <clipPath id="pff6fbff898">
   <rect x="56.73" y="56.24" width="311.19" height="186.1"/>
  </clipPath>
  <clipPath id="p354154b4db">
   <rect x="445.845" y="56.24" width="311.19" height="186.1"/>
  </clipPath>
  <clipPath id="pef7cf52df1">
   <rect x="56.73" y="303.56" width="311.19" height="186.1"/>
  </clipPath>
  <clipPath id="pd2cd223e38">
   <rect x="445.845" y="303.56" width="311.19" height="186.1"/>
  </clipPath>
 </defs>
</svg>
