<?xml version="1.0" encoding="utf-8" standalone="no"?>
<!DOCTYPE svg PUBLIC "-//W3C//DTD SVG 1.1//EN"
  "http://www.w3.org/Graphics/SVG/1.1/DTD/svg11.dtd">
<svg xmlns:xlink="http://www.w3.org/1999/xlink" width="835.2pt" height="316.8pt" viewBox="0 0 835.2 316.8" xmlns="http://www.w3.org/2000/svg" version="1.1">
 <metadata>
  <rdf:RDF xmlns:dc="http://purl.org/dc/elements/1.1/" xmlns:cc="http://creativecommons.org/ns#" xmlns:rdf="http://www.w3.org/1999/02/22-rdf-syntax-ns#">
   <cc:Work>
    <dc:type rdf:resource="http://purl.org/dc/dcmitype/StillImage"/>
    <dc:date>2026-04-24T07:33:31.865237</dc:date>
    <dc:format>image/svg+xml</dc:format>
    <dc:creator>
     <cc:Agent>
      <dc:title>Matplotlib v3.8.4, https://matplotlib.org/</dc:title>
     </cc:Agent>
    </dc:creator>
   </cc:Work>
  </rdf:RDF>
 </metadata>
 <defs>
  <style type="text/css">*{stroke-linejoin: round; stroke-linecap: butt}</style>
 </defs>
 <g id="figure_1">
  <g id="patch_1">
   <path d="M 0 316.8 
L 835.2 316.8 
L 835.2 0 
L 0 0 
z
" style="fill: #ffffff"/>
  </g>
  <g id="axes_1">
   <g id="patch_2">
    <path d="M 234.3 273.66 
L 463.995 273.66 
L 463.995 57.68 
L 234.3 57.68 
z
" style="fill: #ffffff"/>
   </g>
   <g id="matplotlib.axis_1">
    <g id="xtick_1">
     <g id="line2d_1">
      <path d="M 234.3 273.66 
L 234.3 57.68 
" clip-path="url(#pfbd8b627a4)" style="fill: none; stroke: #e6dfd5; stroke-opacity: 0.9; stroke-width: 0.8; stroke-linecap: square"/>
     </g>
     <g id="line2d_2"/>
     <g id="text_1">
      <!-- 0% -->
      <g style="fill: #334e68" transform="translate(225.574766 285.518281) scale(0.11 -0.11)">
       <defs>
        <path id="DejaVuSans-30" d="M 2034 4250 
Q 1547 4250 1301 3770 
Q 1056 3291 1056 2328 
Q 1056 1369 1301 889 
Q 1547 409 2034 409 
Q 2525 409 2770 889 
Q 3016 1369 3016 2328 
Q 3016 3291 2770 3770 
Q 2525 4250 2034 4250 
z
M 2034 4750 
Q 2819 4750 3233 4129 
Q 3647 3509 3647 2328 
Q 3647 1150 3233 529 
Q 2819 -91 2034 -91 
Q 1250 -91 836 529 
Q 422 1150 422 2328 
Q 422 3509 836 4129 
Q 1250 4750 2034 4750 
z
" transform="scale(0.015625)"/>
        <path id="DejaVuSans-25" d="M 4653 2053 
Q 4381 2053 4226 1822 
Q 4072 1591 4072 1178 
Q 4072 772 4226 539 
Q 4381 306 4653 306 
Q 4919 306 5073 539 
Q 5228 772 5228 1178 
Q 5228 1588 5073 1820 
Q 4919 2053 4653 2053 
z
M 4653 2450 
Q 5147 2450 5437 2106 
Q 5728 1763 5728 1178 
Q 5728 594 5436 251 
Q 5144 -91 4653 -91 
Q 4153 -91 3862 251 
Q 3572 594 3572 1178 
Q 3572 1766 3864 2108 
Q 4156 2450 4653 2450 
z
M 1428 4353 
Q 1159 4353 1004 4120 
Q 850 3888 850 3481 
Q 850 3069 1003 2837 
Q 1156 2606 1428 2606 
Q 1700 2606 1854 2837 
Q 2009 3069 2009 3481 
Q 2009 3884 1853 4118 
Q 1697 4353 1428 4353 
z
M 4250 4750 
L 4750 4750 
L 1831 -91 
L 1331 -91 
L 4250 4750 
z
M 1428 4750 
Q 1922 4750 2215 4408 
Q 2509 4066 2509 3481 
Q 2509 2891 2217 2550 
Q 1925 2209 1428 2209 
Q 931 2209 642 2551 
Q 353 2894 353 3481 
Q 353 4063 643 4406 
Q 934 4750 1428 4750 
z
" transform="scale(0.015625)"/>
       </defs>
       <use xlink:href="#DejaVuSans-30"/>
       <use xlink:href="#DejaVuSans-25" x="63.623047"/>
      </g>
     </g>
    </g>
    <g id="xtick_2">
     <g id="line2d_3">
      <path d="M 280.239 273.66 
L 280.239 57.68 
" clip-path="url(#pfbd8b627a4)" style="fill: none; stroke: #e6dfd5; stroke-opacity: 0.9; stroke-width: 0.8; stroke-linecap: square"/>
     </g>
     <g id="line2d_4"/>
     <g id="text_2">
      <!-- 20% -->
      <g style="fill: #334e68" transform="translate(268.014391 285.518281) scale(0.11 -0.11)">
       <defs>
        <path id="DejaVuSans-32" d="M 1228 531 
L 3431 531 
L 3431 0 
L 469 0 
L 469 531 
Q 828 903 1448 1529 
Q 2069 2156 2228 2338 
Q 2531 2678 2651 2914 
Q 2772 3150 2772 3378 
Q 2772 3750 2511 3984 
Q 2250 4219 1831 4219 
Q 1534 4219 1204 4116 
Q 875 4013 500 3803 
L 500 4441 
Q 881 4594 1212 4672 
Q 1544 4750 1819 4750 
Q 2544 4750 2975 4387 
Q 3406 4025 3406 3419 
Q 3406 3131 3298 2873 
Q 3191 2616 2906 2266 
Q 2828 2175 2409 1742 
Q 1991 1309 1228 531 
z
" transform="scale(0.015625)"/>
       </defs>
       <use xlink:href="#DejaVuSans-32"/>
       <use xlink:href="#DejaVuSans-30" x="63.623047"/>
       <use xlink:href="#DejaVuSans-25" x="127.246094"/>
      </g>
     </g>
    </g>
    <g id="xtick_3">
     <g id="line2d_5">
      <path d="M 326.178 273.66 
L 326.178 57.68 
" clip-path="url(#pfbd8b627a4)" style="fill: none; stroke: #e6dfd5; stroke-opacity: 0.9; stroke-width: 0.8; stroke-linecap: square"/>
     </g>
     <g id="line2d_6"/>
     <g id="text_3">
      <!-- 40% -->
      <g style="fill: #334e68" transform="translate(313.953391 285.518281) scale(0.11 -0.11)">
       <defs>
        <path id="DejaVuSans-34" d="M 2419 4116 
L 825 1625 
L 2419 1625 
L 2419 4116 
z
M 2253 4666 
L 3047 4666 
L 3047 1625 
L 3713 1625 
L 3713 1100 
L 3047 1100 
L 3047 0 
L 2419 0 
L 2419 1100 
L 313 1100 
L 313 1709 
L 2253 4666 
z
" transform="scale(0.015625)"/>
       </defs>
       <use xlink:href="#DejaVuSans-34"/>
       <use xlink:href="#DejaVuSans-30" x="63.623047"/>
       <use xlink:href="#DejaVuSans-25" x="127.246094"/>
      </g>
     </g>
    </g>
    <g id="xtick_4">
     <g id="line2d_7">
      <path d="M 372.117 273.66 
L 372.117 57.68 
" clip-path="url(#pfbd8b627a4)" style="fill: none; stroke: #e6dfd5; stroke-opacity: 0.9; stroke-width: 0.8; stroke-linecap: square"/>
     </g>
     <g id="line2d_8"/>
     <g id="text_4">
      <!-- 60% -->
      <g style="fill: #334e68" transform="translate(359.892391 285.518281) scale(0.11 -0.11)">
       <defs>
        <path id="DejaVuSans-36" d="M 2113 2584 
Q 1688 2584 1439 2293 
Q 1191 2003 1191 1497 
Q 1191 994 1439 701 
Q 1688 409 2113 409 
Q 2538 409 2786 701 
Q 3034 994 3034 1497 
Q 3034 2003 2786 2293 
Q 2538 2584 2113 2584 
z
M 3366 4563 
L 3366 3988 
Q 3128 4100 2886 4159 
Q 2644 4219 2406 4219 
Q 1781 4219 1451 3797 
Q 1122 3375 1075 2522 
Q 1259 2794 1537 2939 
Q 1816 3084 2150 3084 
Q 2853 3084 3261 2657 
Q 3669 2231 3669 1497 
Q 3669 778 3244 343 
Q 2819 -91 2113 -91 
Q 1303 -91 875 529 
Q 447 1150 447 2328 
Q 447 3434 972 4092 
Q 1497 4750 2381 4750 
Q 2619 4750 2861 4703 
Q 3103 4656 3366 4563 
z
" transform="scale(0.015625)"/>
       </defs>
       <use xlink:href="#DejaVuSans-36"/>
       <use xlink:href="#DejaVuSans-30" x="63.623047"/>
       <use xlink:href="#DejaVuSans-25" x="127.246094"/>
      </g>
     </g>
    </g>
    <g id="xtick_5">
     <g id="line2d_9">
      <path d="M 418.056 273.66 
L 418.056 57.68 
" clip-path="url(#pfbd8b627a4)" style="fill: none; stroke: #e6dfd5; stroke-opacity: 0.9; stroke-width: 0.8; stroke-linecap: square"/>
     </g>
     <g id="line2d_10"/>
     <g id="text_5">
      <!-- 80% -->
      <g style="fill: #334e68" transform="translate(405.831391 285.518281) scale(0.11 -0.11)">
       <defs>
        <path id="DejaVuSans-38" d="M 2034 2216 
Q 1584 2216 1326 1975 
Q 1069 1734 1069 1313 
Q 1069 891 1326 650 
Q 1584 409 2034 409 
Q 2484 409 2743 651 
Q 3003 894 3003 1313 
Q 3003 1734 2745 1975 
Q 2488 2216 2034 2216 
z
M 1403 2484 
Q 997 2584 770 2862 
Q 544 3141 544 3541 
Q 544 4100 942 4425 
Q 1341 4750 2034 4750 
Q 2731 4750 3128 4425 
Q 3525 4100 3525 3541 
Q 3525 3141 3298 2862 
Q 3072 2584 2669 2484 
Q 3125 2378 3379 2068 
Q 3634 1759 3634 1313 
Q 3634 634 3220 271 
Q 2806 -91 2034 -91 
Q 1263 -91 848 271 
Q 434 634 434 1313 
Q 434 1759 690 2068 
Q 947 2378 1403 2484 
z
M 1172 3481 
Q 1172 3119 1398 2916 
Q 1625 2713 2034 2713 
Q 2441 2713 2670 2916 
Q 2900 3119 2900 3481 
Q 2900 3844 2670 4047 
Q 2441 4250 2034 4250 
Q 1625 4250 1398 4047 
Q 1172 3844 1172 3481 
z
" transform="scale(0.015625)"/>
       </defs>
       <use xlink:href="#DejaVuSans-38"/>
       <use xlink:href="#DejaVuSans-30" x="63.623047"/>
       <use xlink:href="#DejaVuSans-25" x="127.246094"/>
      </g>
     </g>
    </g>
    <g id="xtick_6">
     <g id="line2d_11">
      <path d="M 463.995 273.66 
L 463.995 57.68 
" clip-path="url(#pfbd8b627a4)" style="fill: none; stroke: #e6dfd5; stroke-opacity: 0.9; stroke-width: 0.8; stroke-linecap: square"/>
     </g>
     <g id="line2d_12"/>
     <g id="text_6">
      <!-- 100% -->
      <g style="fill: #334e68" transform="translate(448.271016 285.518281) scale(0.11 -0.11)">
       <defs>
        <path id="DejaVuSans-31" d="M 794 531 
L 1825 531 
L 1825 4091 
L 703 3866 
L 703 4441 
L 1819 4666 
L 2450 4666 
L 2450 531 
L 3481 531 
L 3481 0 
L 794 0 
L 794 531 
z
" transform="scale(0.015625)"/>
       </defs>
       <use xlink:href="#DejaVuSans-31"/>
       <use xlink:href="#DejaVuSans-30" x="63.623047"/>
       <use xlink:href="#DejaVuSans-30" x="127.246094"/>
       <use xlink:href="#DejaVuSans-25" x="190.869141"/>
      </g>
     </g>
    </g>
    <g id="text_7">
     <!-- Exact-Match Accuracy -->
     <g transform="translate(282.704062 300.924062) scale(0.12 -0.12)">
      <defs>
       <path id="DejaVuSans-45" d="M 628 4666 
L 3578 4666 
L 3578 4134 
L 1259 4134 
L 1259 2753 
L 3481 2753 
L 3481 2222 
L 1259 2222 
L 1259 531 
L 3634 531 
L 3634 0 
L 628 0 
L 628 4666 
z
" transform="scale(0.015625)"/>
       <path id="DejaVuSans-78" d="M 3513 3500 
L 2247 1797 
L 3578 0 
L 2900 0 
L 1881 1375 
L 863 0 
L 184 0 
L 1544 1831 
L 300 3500 
L 978 3500 
L 1906 2253 
L 2834 3500 
L 3513 3500 
z
" transform="scale(0.015625)"/>
       <path id="DejaVuSans-61" d="M 2194 1759 
Q 1497 1759 1228 1600 
Q 959 1441 959 1056 
Q 959 750 1161 570 
Q 1363 391 1709 391 
Q 2188 391 2477 730 
Q 2766 1069 2766 1631 
L 2766 1759 
L 2194 1759 
z
M 3341 1997 
L 3341 0 
L 2766 0 
L 2766 531 
Q 2569 213 2275 61 
Q 1981 -91 1556 -91 
Q 1019 -91 701 211 
Q 384 513 384 1019 
Q 384 1609 779 1909 
Q 1175 2209 1959 2209 
L 2766 2209 
L 2766 2266 
Q 2766 2663 2505 2880 
Q 2244 3097 1772 3097 
Q 1472 3097 1187 3025 
Q 903 2953 641 2809 
L 641 3341 
Q 956 3463 1253 3523 
Q 1550 3584 1831 3584 
Q 2591 3584 2966 3190 
Q 3341 2797 3341 1997 
z
" transform="scale(0.015625)"/>
       <path id="DejaVuSans-63" d="M 3122 3366 
L 3122 2828 
Q 2878 2963 2633 3030 
Q 2388 3097 2138 3097 
Q 1578 3097 1268 2742 
Q 959 2388 959 1747 
Q 959 1106 1268 751 
Q 1578 397 2138 397 
Q 2388 397 2633 464 
Q 2878 531 3122 666 
L 3122 134 
Q 2881 22 2623 -34 
Q 2366 -91 2075 -91 
Q 1284 -91 818 406 
Q 353 903 353 1747 
Q 353 2603 823 3093 
Q 1294 3584 2113 3584 
Q 2378 3584 2631 3529 
Q 2884 3475 3122 3366 
z
" transform="scale(0.015625)"/>
       <path id="DejaVuSans-74" d="M 1172 4494 
L 1172 3500 
L 2356 3500 
L 2356 3053 
L 1172 3053 
L 1172 1153 
Q 1172 725 1289 603 
Q 1406 481 1766 481 
L 2356 481 
L 2356 0 
L 1766 0 
Q 1100 0 847 248 
Q 594 497 594 1153 
L 594 3053 
L 172 3053 
L 172 3500 
L 594 3500 
L 594 4494 
L 1172 4494 
z
" transform="scale(0.015625)"/>
       <path id="DejaVuSans-2d" d="M 313 2009 
L 1997 2009 
L 1997 1497 
L 313 1497 
L 313 2009 
z
" transform="scale(0.015625)"/>
       <path id="DejaVuSans-4d" d="M 628 4666 
L 1569 4666 
L 2759 1491 
L 3956 4666 
L 4897 4666 
L 4897 0 
L 4281 0 
L 4281 4097 
L 3078 897 
L 2444 897 
L 1241 4097 
L 1241 0 
L 628 0 
L 628 4666 
z
" transform="scale(0.015625)"/>
       <path id="DejaVuSans-68" d="M 3513 2113 
L 3513 0 
L 2938 0 
L 2938 2094 
Q 2938 2591 2744 2837 
Q 2550 3084 2163 3084 
Q 1697 3084 1428 2787 
Q 1159 2491 1159 1978 
L 1159 0 
L 581 0 
L 581 4863 
L 1159 4863 
L 1159 2956 
Q 1366 3272 1645 3428 
Q 1925 3584 2291 3584 
Q 2894 3584 3203 3211 
Q 3513 2838 3513 2113 
z
" transform="scale(0.015625)"/>
       <path id="DejaVuSans-20" transform="scale(0.015625)"/>
       <path id="DejaVuSans-41" d="M 2188 4044 
L 1331 1722 
L 3047 1722 
L 2188 4044 
z
M 1831 4666 
L 2547 4666 
L 4325 0 
L 3669 0 
L 3244 1197 
L 1141 1197 
L 716 0 
L 50 0 
L 1831 4666 
z
" transform="scale(0.015625)"/>
       <path id="DejaVuSans-75" d="M 544 1381 
L 544 3500 
L 1119 3500 
L 1119 1403 
Q 1119 906 1312 657 
Q 1506 409 1894 409 
Q 2359 409 2629 706 
Q 2900 1003 2900 1516 
L 2900 3500 
L 3475 3500 
L 3475 0 
L 2900 0 
L 2900 538 
Q 2691 219 2414 64 
Q 2138 -91 1772 -91 
Q 1169 -91 856 284 
Q 544 659 544 1381 
z
M 1991 3584 
L 1991 3584 
z
" transform="scale(0.015625)"/>
       <path id="DejaVuSans-72" d="M 2631 2963 
Q 2534 3019 2420 3045 
Q 2306 3072 2169 3072 
Q 1681 3072 1420 2755 
Q 1159 2438 1159 1844 
L 1159 0 
L 581 0 
L 581 3500 
L 1159 3500 
L 1159 2956 
Q 1341 3275 1631 3429 
Q 1922 3584 2338 3584 
Q 2397 3584 2469 3576 
Q 2541 3569 2628 3553 
L 2631 2963 
z
" transform="scale(0.015625)"/>
       <path id="DejaVuSans-79" d="M 2059 -325 
Q 1816 -950 1584 -1140 
Q 1353 -1331 966 -1331 
L 506 -1331 
L 506 -850 
L 844 -850 
Q 1081 -850 1212 -737 
Q 1344 -625 1503 -206 
L 1606 56 
L 191 3500 
L 800 3500 
L 1894 763 
L 2988 3500 
L 3597 3500 
L 2059 -325 
z
" transform="scale(0.015625)"/>
      </defs>
      <use xlink:href="#DejaVuSans-45"/>
      <use xlink:href="#DejaVuSans-78" x="63.183594"/>
      <use xlink:href="#DejaVuSans-61" x="122.363281"/>
      <use xlink:href="#DejaVuSans-63" x="183.642578"/>
      <use xlink:href="#DejaVuSans-74" x="238.623047"/>
      <use xlink:href="#DejaVuSans-2d" x="277.832031"/>
      <use xlink:href="#DejaVuSans-4d" x="313.916016"/>
      <use xlink:href="#DejaVuSans-61" x="400.195312"/>
      <use xlink:href="#DejaVuSans-74" x="461.474609"/>
      <use xlink:href="#DejaVuSans-63" x="500.683594"/>
      <use xlink:href="#DejaVuSans-68" x="555.664062"/>
      <use xlink:href="#DejaVuSans-20" x="619.042969"/>
      <use xlink:href="#DejaVuSans-41" x="650.830078"/>
      <use xlink:href="#DejaVuSans-63" x="717.488281"/>
      <use xlink:href="#DejaVuSans-63" x="772.46875"/>
      <use xlink:href="#DejaVuSans-75" x="827.449219"/>
      <use xlink:href="#DejaVuSans-72" x="890.828125"/>
      <use xlink:href="#DejaVuSans-61" x="931.941406"/>
      <use xlink:href="#DejaVuSans-63" x="993.220703"/>
      <use xlink:href="#DejaVuSans-79" x="1048.201172"/>
     </g>
    </g>
   </g>
   <g id="matplotlib.axis_2">
    <g id="ytick_1">
     <g id="line2d_13"/>
     <g id="text_8">
      <!-- Clarification Or Ambiguity -->
      <g style="fill: #334e68" transform="translate(88.671406 71.676413) scale(0.11 -0.11)">
       <defs>
        <path id="DejaVuSans-43" d="M 4122 4306 
L 4122 3641 
Q 3803 3938 3442 4084 
Q 3081 4231 2675 4231 
Q 1875 4231 1450 3742 
Q 1025 3253 1025 2328 
Q 1025 1406 1450 917 
Q 1875 428 2675 428 
Q 3081 428 3442 575 
Q 3803 722 4122 1019 
L 4122 359 
Q 3791 134 3420 21 
Q 3050 -91 2638 -91 
Q 1578 -91 968 557 
Q 359 1206 359 2328 
Q 359 3453 968 4101 
Q 1578 4750 2638 4750 
Q 3056 4750 3426 4639 
Q 3797 4528 4122 4306 
z
" transform="scale(0.015625)"/>
        <path id="DejaVuSans-6c" d="M 603 4863 
L 1178 4863 
L 1178 0 
L 603 0 
L 603 4863 
z
" transform="scale(0.015625)"/>
        <path id="DejaVuSans-69" d="M 603 3500 
L 1178 3500 
L 1178 0 
L 603 0 
L 603 3500 
z
M 603 4863 
L 1178 4863 
L 1178 4134 
L 603 4134 
L 603 4863 
z
" transform="scale(0.015625)"/>
        <path id="DejaVuSans-66" d="M 2375 4863 
L 2375 4384 
L 1825 4384 
Q 1516 4384 1395 4259 
Q 1275 4134 1275 3809 
L 1275 3500 
L 2222 3500 
L 2222 3053 
L 1275 3053 
L 1275 0 
L 697 0 
L 697 3053 
L 147 3053 
L 147 3500 
L 697 3500 
L 697 3744 
Q 697 4328 969 4595 
Q 1241 4863 1831 4863 
L 2375 4863 
z
" transform="scale(0.015625)"/>
        <path id="DejaVuSans-6f" d="M 1959 3097 
Q 1497 3097 1228 2736 
Q 959 2375 959 1747 
Q 959 1119 1226 758 
Q 1494 397 1959 397 
Q 2419 397 2687 759 
Q 2956 1122 2956 1747 
Q 2956 2369 2687 2733 
Q 2419 3097 1959 3097 
z
M 1959 3584 
Q 2709 3584 3137 3096 
Q 3566 2609 3566 1747 
Q 3566 888 3137 398 
Q 2709 -91 1959 -91 
Q 1206 -91 779 398 
Q 353 888 353 1747 
Q 353 2609 779 3096 
Q 1206 3584 1959 3584 
z
" transform="scale(0.015625)"/>
        <path id="DejaVuSans-6e" d="M 3513 2113 
L 3513 0 
L 2938 0 
L 2938 2094 
Q 2938 2591 2744 2837 
Q 2550 3084 2163 3084 
Q 1697 3084 1428 2787 
Q 1159 2491 1159 1978 
L 1159 0 
L 581 0 
L 581 3500 
L 1159 3500 
L 1159 2956 
Q 1366 3272 1645 3428 
Q 1925 3584 2291 3584 
Q 2894 3584 3203 3211 
Q 3513 2838 3513 2113 
z
" transform="scale(0.015625)"/>
        <path id="DejaVuSans-4f" d="M 2522 4238 
Q 1834 4238 1429 3725 
Q 1025 3213 1025 2328 
Q 1025 1447 1429 934 
Q 1834 422 2522 422 
Q 3209 422 3611 934 
Q 4013 1447 4013 2328 
Q 4013 3213 3611 3725 
Q 3209 4238 2522 4238 
z
M 2522 4750 
Q 3503 4750 4090 4092 
Q 4678 3434 4678 2328 
Q 4678 1225 4090 567 
Q 3503 -91 2522 -91 
Q 1538 -91 948 565 
Q 359 1222 359 2328 
Q 359 3434 948 4092 
Q 1538 4750 2522 4750 
z
" transform="scale(0.015625)"/>
        <path id="DejaVuSans-6d" d="M 3328 2828 
Q 3544 3216 3844 3400 
Q 4144 3584 4550 3584 
Q 5097 3584 5394 3201 
Q 5691 2819 5691 2113 
L 5691 0 
L 5113 0 
L 5113 2094 
Q 5113 2597 4934 2840 
Q 4756 3084 4391 3084 
Q 3944 3084 3684 2787 
Q 3425 2491 3425 1978 
L 3425 0 
L 2847 0 
L 2847 2094 
Q 2847 2600 2669 2842 
Q 2491 3084 2119 3084 
Q 1678 3084 1418 2786 
Q 1159 2488 1159 1978 
L 1159 0 
L 581 0 
L 581 3500 
L 1159 3500 
L 1159 2956 
Q 1356 3278 1631 3431 
Q 1906 3584 2284 3584 
Q 2666 3584 2933 3390 
Q 3200 3197 3328 2828 
z
" transform="scale(0.015625)"/>
        <path id="DejaVuSans-62" d="M 3116 1747 
Q 3116 2381 2855 2742 
Q 2594 3103 2138 3103 
Q 1681 3103 1420 2742 
Q 1159 2381 1159 1747 
Q 1159 1113 1420 752 
Q 1681 391 2138 391 
Q 2594 391 2855 752 
Q 3116 1113 3116 1747 
z
M 1159 2969 
Q 1341 3281 1617 3432 
Q 1894 3584 2278 3584 
Q 2916 3584 3314 3078 
Q 3713 2572 3713 1747 
Q 3713 922 3314 415 
Q 2916 -91 2278 -91 
Q 1894 -91 1617 61 
Q 1341 213 1159 525 
L 1159 0 
L 581 0 
L 581 4863 
L 1159 4863 
L 1159 2969 
z
" transform="scale(0.015625)"/>
        <path id="DejaVuSans-67" d="M 2906 1791 
Q 2906 2416 2648 2759 
Q 2391 3103 1925 3103 
Q 1463 3103 1205 2759 
Q 947 2416 947 1791 
Q 947 1169 1205 825 
Q 1463 481 1925 481 
Q 2391 481 2648 825 
Q 2906 1169 2906 1791 
z
M 3481 434 
Q 3481 -459 3084 -895 
Q 2688 -1331 1869 -1331 
Q 1566 -1331 1297 -1286 
Q 1028 -1241 775 -1147 
L 775 -588 
Q 1028 -725 1275 -790 
Q 1522 -856 1778 -856 
Q 2344 -856 2625 -561 
Q 2906 -266 2906 331 
L 2906 616 
Q 2728 306 2450 153 
Q 2172 0 1784 0 
Q 1141 0 747 490 
Q 353 981 353 1791 
Q 353 2603 747 3093 
Q 1141 3584 1784 3584 
Q 2172 3584 2450 3431 
Q 2728 3278 2906 2969 
L 2906 3500 
L 3481 3500 
L 3481 434 
z
" transform="scale(0.015625)"/>
       </defs>
       <use xlink:href="#DejaVuSans-43"/>
       <use xlink:href="#DejaVuSans-6c" x="69.824219"/>
       <use xlink:href="#DejaVuSans-61" x="97.607422"/>
       <use xlink:href="#DejaVuSans-72" x="158.886719"/>
       <use xlink:href="#DejaVuSans-69" x="200"/>
       <use xlink:href="#DejaVuSans-66" x="227.783203"/>
       <use xlink:href="#DejaVuSans-69" x="262.988281"/>
       <use xlink:href="#DejaVuSans-63" x="290.771484"/>
       <use xlink:href="#DejaVuSans-61" x="345.751953"/>
       <use xlink:href="#DejaVuSans-74" x="407.03125"/>
       <use xlink:href="#DejaVuSans-69" x="446.240234"/>
       <use xlink:href="#DejaVuSans-6f" x="474.023438"/>
       <use xlink:href="#DejaVuSans-6e" x="535.205078"/>
       <use xlink:href="#DejaVuSans-20" x="598.583984"/>
       <use xlink:href="#DejaVuSans-4f" x="630.371094"/>
       <use xlink:href="#DejaVuSans-72" x="709.082031"/>
       <use xlink:href="#DejaVuSans-20" x="750.195312"/>
       <use xlink:href="#DejaVuSans-41" x="781.982422"/>
       <use xlink:href="#DejaVuSans-6d" x="850.390625"/>
       <use xlink:href="#DejaVuSans-62" x="947.802734"/>
       <use xlink:href="#DejaVuSans-69" x="1011.279297"/>
       <use xlink:href="#DejaVuSans-67" x="1039.0625"/>
       <use xlink:href="#DejaVuSans-75" x="1102.539062"/>
       <use xlink:href="#DejaVuSans-69" x="1165.917969"/>
       <use xlink:href="#DejaVuSans-74" x="1193.701172"/>
       <use xlink:href="#DejaVuSans-79" x="1232.910156"/>
      </g>
     </g>
    </g>
    <g id="ytick_2">
     <g id="line2d_14"/>
     <g id="text_9">
      <!-- Default Family Selection -->
      <g style="fill: #334e68" transform="translate(97.52125 99.725764) scale(0.11 -0.11)">
       <defs>
        <path id="DejaVuSans-44" d="M 1259 4147 
L 1259 519 
L 2022 519 
Q 2988 519 3436 956 
Q 3884 1394 3884 2338 
Q 3884 3275 3436 3711 
Q 2988 4147 2022 4147 
L 1259 4147 
z
M 628 4666 
L 1925 4666 
Q 3281 4666 3915 4102 
Q 4550 3538 4550 2338 
Q 4550 1131 3912 565 
Q 3275 0 1925 0 
L 628 0 
L 628 4666 
z
" transform="scale(0.015625)"/>
        <path id="DejaVuSans-65" d="M 3597 1894 
L 3597 1613 
L 953 1613 
Q 991 1019 1311 708 
Q 1631 397 2203 397 
Q 2534 397 2845 478 
Q 3156 559 3463 722 
L 3463 178 
Q 3153 47 2828 -22 
Q 2503 -91 2169 -91 
Q 1331 -91 842 396 
Q 353 884 353 1716 
Q 353 2575 817 3079 
Q 1281 3584 2069 3584 
Q 2775 3584 3186 3129 
Q 3597 2675 3597 1894 
z
M 3022 2063 
Q 3016 2534 2758 2815 
Q 2500 3097 2075 3097 
Q 1594 3097 1305 2825 
Q 1016 2553 972 2059 
L 3022 2063 
z
" transform="scale(0.015625)"/>
        <path id="DejaVuSans-46" d="M 628 4666 
L 3309 4666 
L 3309 4134 
L 1259 4134 
L 1259 2759 
L 3109 2759 
L 3109 2228 
L 1259 2228 
L 1259 0 
L 628 0 
L 628 4666 
z
" transform="scale(0.015625)"/>
        <path id="DejaVuSans-53" d="M 3425 4513 
L 3425 3897 
Q 3066 4069 2747 4153 
Q 2428 4238 2131 4238 
Q 1616 4238 1336 4038 
Q 1056 3838 1056 3469 
Q 1056 3159 1242 3001 
Q 1428 2844 1947 2747 
L 2328 2669 
Q 3034 2534 3370 2195 
Q 3706 1856 3706 1288 
Q 3706 609 3251 259 
Q 2797 -91 1919 -91 
Q 1588 -91 1214 -16 
Q 841 59 441 206 
L 441 856 
Q 825 641 1194 531 
Q 1563 422 1919 422 
Q 2459 422 2753 634 
Q 3047 847 3047 1241 
Q 3047 1584 2836 1778 
Q 2625 1972 2144 2069 
L 1759 2144 
Q 1053 2284 737 2584 
Q 422 2884 422 3419 
Q 422 4038 858 4394 
Q 1294 4750 2059 4750 
Q 2388 4750 2728 4690 
Q 3069 4631 3425 4513 
z
" transform="scale(0.015625)"/>
       </defs>
       <use xlink:href="#DejaVuSans-44"/>
       <use xlink:href="#DejaVuSans-65" x="77.001953"/>
       <use xlink:href="#DejaVuSans-66" x="138.525391"/>
       <use xlink:href="#DejaVuSans-61" x="173.730469"/>
       <use xlink:href="#DejaVuSans-75" x="235.009766"/>
       <use xlink:href="#DejaVuSans-6c" x="298.388672"/>
       <use xlink:href="#DejaVuSans-74" x="326.171875"/>
       <use xlink:href="#DejaVuSans-20" x="365.380859"/>
       <use xlink:href="#DejaVuSans-46" x="397.167969"/>
       <use xlink:href="#DejaVuSans-61" x="445.5625"/>
       <use xlink:href="#DejaVuSans-6d" x="506.841797"/>
       <use xlink:href="#DejaVuSans-69" x="604.253906"/>
       <use xlink:href="#DejaVuSans-6c" x="632.037109"/>
       <use xlink:href="#DejaVuSans-79" x="659.820312"/>
       <use xlink:href="#DejaVuSans-20" x="719"/>
       <use xlink:href="#DejaVuSans-53" x="750.787109"/>
       <use xlink:href="#DejaVuSans-65" x="814.263672"/>
       <use xlink:href="#DejaVuSans-6c" x="875.787109"/>
       <use xlink:href="#DejaVuSans-65" x="903.570312"/>
       <use xlink:href="#DejaVuSans-63" x="965.09375"/>
       <use xlink:href="#DejaVuSans-74" x="1020.074219"/>
       <use xlink:href="#DejaVuSans-69" x="1059.283203"/>
       <use xlink:href="#DejaVuSans-6f" x="1087.066406"/>
       <use xlink:href="#DejaVuSans-6e" x="1148.248047"/>
      </g>
     </g>
    </g>
    <g id="ytick_3">
     <g id="line2d_15"/>
     <g id="text_10">
      <!-- Explicit Object Switching -->
      <g style="fill: #334e68" transform="translate(94.630313 127.775115) scale(0.11 -0.11)">
       <defs>
        <path id="DejaVuSans-70" d="M 1159 525 
L 1159 -1331 
L 581 -1331 
L 581 3500 
L 1159 3500 
L 1159 2969 
Q 1341 3281 1617 3432 
Q 1894 3584 2278 3584 
Q 2916 3584 3314 3078 
Q 3713 2572 3713 1747 
Q 3713 922 3314 415 
Q 2916 -91 2278 -91 
Q 1894 -91 1617 61 
Q 1341 213 1159 525 
z
M 3116 1747 
Q 3116 2381 2855 2742 
Q 2594 3103 2138 3103 
Q 1681 3103 1420 2742 
Q 1159 2381 1159 1747 
Q 1159 1113 1420 752 
Q 1681 391 2138 391 
Q 2594 391 2855 752 
Q 3116 1113 3116 1747 
z
" transform="scale(0.015625)"/>
        <path id="DejaVuSans-6a" d="M 603 3500 
L 1178 3500 
L 1178 -63 
Q 1178 -731 923 -1031 
Q 669 -1331 103 -1331 
L -116 -1331 
L -116 -844 
L 38 -844 
Q 366 -844 484 -692 
Q 603 -541 603 -63 
L 603 3500 
z
M 603 4863 
L 1178 4863 
L 1178 4134 
L 603 4134 
L 603 4863 
z
" transform="scale(0.015625)"/>
        <path id="DejaVuSans-77" d="M 269 3500 
L 844 3500 
L 1563 769 
L 2278 3500 
L 2956 3500 
L 3675 769 
L 4391 3500 
L 4966 3500 
L 4050 0 
L 3372 0 
L 2619 2869 
L 1863 0 
L 1184 0 
L 269 3500 
z
" transform="scale(0.015625)"/>
       </defs>
       <use xlink:href="#DejaVuSans-45"/>
       <use xlink:href="#DejaVuSans-78" x="63.183594"/>
       <use xlink:href="#DejaVuSans-70" x="122.363281"/>
       <use xlink:href="#DejaVuSans-6c" x="185.839844"/>
       <use xlink:href="#DejaVuSans-69" x="213.623047"/>
       <use xlink:href="#DejaVuSans-63" x="241.40625"/>
       <use xlink:href="#DejaVuSans-69" x="296.386719"/>
       <use xlink:href="#DejaVuSans-74" x="324.169922"/>
       <use xlink:href="#DejaVuSans-20" x="363.378906"/>
       <use xlink:href="#DejaVuSans-4f" x="395.166016"/>
       <use xlink:href="#DejaVuSans-62" x="473.876953"/>
       <use xlink:href="#DejaVuSans-6a" x="537.353516"/>
       <use xlink:href="#DejaVuSans-65" x="565.136719"/>
       <use xlink:href="#DejaVuSans-63" x="626.660156"/>
       <use xlink:href="#DejaVuSans-74" x="681.640625"/>
       <use xlink:href="#DejaVuSans-20" x="720.849609"/>
       <use xlink:href="#DejaVuSans-53" x="752.636719"/>
       <use xlink:href="#DejaVuSans-77" x="816.113281"/>
       <use xlink:href="#DejaVuSans-69" x="897.900391"/>
       <use xlink:href="#DejaVuSans-74" x="925.683594"/>
       <use xlink:href="#DejaVuSans-63" x="964.892578"/>
       <use xlink:href="#DejaVuSans-68" x="1019.873047"/>
       <use xlink:href="#DejaVuSans-69" x="1083.251953"/>
       <use xlink:href="#DejaVuSans-6e" x="1111.035156"/>
       <use xlink:href="#DejaVuSans-67" x="1174.414062"/>
      </g>
     </g>
    </g>
    <g id="ytick_4">
     <g id="line2d_16"/>
     <g id="text_11">
      <!-- Lifecycle And Predefined Commands -->
      <g style="fill: #334e68" transform="translate(29.422656 155.824465) scale(0.11 -0.11)">
       <defs>
        <path id="DejaVuSans-4c" d="M 628 4666 
L 1259 4666 
L 1259 531 
L 3531 531 
L 3531 0 
L 628 0 
L 628 4666 
z
" transform="scale(0.015625)"/>
        <path id="DejaVuSans-64" d="M 2906 2969 
L 2906 4863 
L 3481 4863 
L 3481 0 
L 2906 0 
L 2906 525 
Q 2725 213 2448 61 
Q 2172 -91 1784 -91 
Q 1150 -91 751 415 
Q 353 922 353 1747 
Q 353 2572 751 3078 
Q 1150 3584 1784 3584 
Q 2172 3584 2448 3432 
Q 2725 3281 2906 2969 
z
M 947 1747 
Q 947 1113 1208 752 
Q 1469 391 1925 391 
Q 2381 391 2643 752 
Q 2906 1113 2906 1747 
Q 2906 2381 2643 2742 
Q 2381 3103 1925 3103 
Q 1469 3103 1208 2742 
Q 947 2381 947 1747 
z
" transform="scale(0.015625)"/>
        <path id="DejaVuSans-50" d="M 1259 4147 
L 1259 2394 
L 2053 2394 
Q 2494 2394 2734 2622 
Q 2975 2850 2975 3272 
Q 2975 3691 2734 3919 
Q 2494 4147 2053 4147 
L 1259 4147 
z
M 628 4666 
L 2053 4666 
Q 2838 4666 3239 4311 
Q 3641 3956 3641 3272 
Q 3641 2581 3239 2228 
Q 2838 1875 2053 1875 
L 1259 1875 
L 1259 0 
L 628 0 
L 628 4666 
z
" transform="scale(0.015625)"/>
        <path id="DejaVuSans-73" d="M 2834 3397 
L 2834 2853 
Q 2591 2978 2328 3040 
Q 2066 3103 1784 3103 
Q 1356 3103 1142 2972 
Q 928 2841 928 2578 
Q 928 2378 1081 2264 
Q 1234 2150 1697 2047 
L 1894 2003 
Q 2506 1872 2764 1633 
Q 3022 1394 3022 966 
Q 3022 478 2636 193 
Q 2250 -91 1575 -91 
Q 1294 -91 989 -36 
Q 684 19 347 128 
L 347 722 
Q 666 556 975 473 
Q 1284 391 1588 391 
Q 1994 391 2212 530 
Q 2431 669 2431 922 
Q 2431 1156 2273 1281 
Q 2116 1406 1581 1522 
L 1381 1569 
Q 847 1681 609 1914 
Q 372 2147 372 2553 
Q 372 3047 722 3315 
Q 1072 3584 1716 3584 
Q 2034 3584 2315 3537 
Q 2597 3491 2834 3397 
z
" transform="scale(0.015625)"/>
       </defs>
       <use xlink:href="#DejaVuSans-4c"/>
       <use xlink:href="#DejaVuSans-69" x="55.712891"/>
       <use xlink:href="#DejaVuSans-66" x="83.496094"/>
       <use xlink:href="#DejaVuSans-65" x="118.701172"/>
       <use xlink:href="#DejaVuSans-63" x="180.224609"/>
       <use xlink:href="#DejaVuSans-79" x="235.205078"/>
       <use xlink:href="#DejaVuSans-63" x="294.384766"/>
       <use xlink:href="#DejaVuSans-6c" x="349.365234"/>
       <use xlink:href="#DejaVuSans-65" x="377.148438"/>
       <use xlink:href="#DejaVuSans-20" x="438.671875"/>
       <use xlink:href="#DejaVuSans-41" x="470.458984"/>
       <use xlink:href="#DejaVuSans-6e" x="538.867188"/>
       <use xlink:href="#DejaVuSans-64" x="602.246094"/>
       <use xlink:href="#DejaVuSans-20" x="665.722656"/>
       <use xlink:href="#DejaVuSans-50" x="697.509766"/>
       <use xlink:href="#DejaVuSans-72" x="756.0625"/>
       <use xlink:href="#DejaVuSans-65" x="794.925781"/>
       <use xlink:href="#DejaVuSans-64" x="856.449219"/>
       <use xlink:href="#DejaVuSans-65" x="919.925781"/>
       <use xlink:href="#DejaVuSans-66" x="981.449219"/>
       <use xlink:href="#DejaVuSans-69" x="1016.654297"/>
       <use xlink:href="#DejaVuSans-6e" x="1044.4375"/>
       <use xlink:href="#DejaVuSans-65" x="1107.816406"/>
       <use xlink:href="#DejaVuSans-64" x="1169.339844"/>
       <use xlink:href="#DejaVuSans-20" x="1232.816406"/>
       <use xlink:href="#DejaVuSans-43" x="1264.603516"/>
       <use xlink:href="#DejaVuSans-6f" x="1334.427734"/>
       <use xlink:href="#DejaVuSans-6d" x="1395.609375"/>
       <use xlink:href="#DejaVuSans-6d" x="1493.021484"/>
       <use xlink:href="#DejaVuSans-61" x="1590.433594"/>
       <use xlink:href="#DejaVuSans-6e" x="1651.712891"/>
       <use xlink:href="#DejaVuSans-64" x="1715.091797"/>
       <use xlink:href="#DejaVuSans-73" x="1778.568359"/>
      </g>
     </g>
    </g>
    <g id="ytick_5">
     <g id="line2d_17"/>
     <g id="text_12">
      <!-- Paraphrase Robustness -->
      <g style="fill: #334e68" transform="translate(102.369844 183.873816) scale(0.11 -0.11)">
       <defs>
        <path id="DejaVuSans-52" d="M 2841 2188 
Q 3044 2119 3236 1894 
Q 3428 1669 3622 1275 
L 4263 0 
L 3584 0 
L 2988 1197 
Q 2756 1666 2539 1819 
Q 2322 1972 1947 1972 
L 1259 1972 
L 1259 0 
L 628 0 
L 628 4666 
L 2053 4666 
Q 2853 4666 3247 4331 
Q 3641 3997 3641 3322 
Q 3641 2881 3436 2590 
Q 3231 2300 2841 2188 
z
M 1259 4147 
L 1259 2491 
L 2053 2491 
Q 2509 2491 2742 2702 
Q 2975 2913 2975 3322 
Q 2975 3731 2742 3939 
Q 2509 4147 2053 4147 
L 1259 4147 
z
" transform="scale(0.015625)"/>
       </defs>
       <use xlink:href="#DejaVuSans-50"/>
       <use xlink:href="#DejaVuSans-61" x="55.802734"/>
       <use xlink:href="#DejaVuSans-72" x="117.082031"/>
       <use xlink:href="#DejaVuSans-61" x="158.195312"/>
       <use xlink:href="#DejaVuSans-70" x="219.474609"/>
       <use xlink:href="#DejaVuSans-68" x="282.951172"/>
       <use xlink:href="#DejaVuSans-72" x="346.330078"/>
       <use xlink:href="#DejaVuSans-61" x="387.443359"/>
       <use xlink:href="#DejaVuSans-73" x="448.722656"/>
       <use xlink:href="#DejaVuSans-65" x="500.822266"/>
       <use xlink:href="#DejaVuSans-20" x="562.345703"/>
       <use xlink:href="#DejaVuSans-52" x="594.132812"/>
       <use xlink:href="#DejaVuSans-6f" x="659.115234"/>
       <use xlink:href="#DejaVuSans-62" x="720.296875"/>
       <use xlink:href="#DejaVuSans-75" x="783.773438"/>
       <use xlink:href="#DejaVuSans-73" x="847.152344"/>
       <use xlink:href="#DejaVuSans-74" x="899.251953"/>
       <use xlink:href="#DejaVuSans-6e" x="938.460938"/>
       <use xlink:href="#DejaVuSans-65" x="1001.839844"/>
       <use xlink:href="#DejaVuSans-73" x="1063.363281"/>
       <use xlink:href="#DejaVuSans-73" x="1115.462891"/>
      </g>
     </g>
    </g>
    <g id="ytick_6">
     <g id="line2d_18"/>
     <g id="text_13">
      <!-- Semantic Pose Edits -->
      <g style="fill: #334e68" transform="translate(119.717188 211.923167) scale(0.11 -0.11)">
       <use xlink:href="#DejaVuSans-53"/>
       <use xlink:href="#DejaVuSans-65" x="63.476562"/>
       <use xlink:href="#DejaVuSans-6d" x="125"/>
       <use xlink:href="#DejaVuSans-61" x="222.412109"/>
       <use xlink:href="#DejaVuSans-6e" x="283.691406"/>
       <use xlink:href="#DejaVuSans-74" x="347.070312"/>
       <use xlink:href="#DejaVuSans-69" x="386.279297"/>
       <use xlink:href="#DejaVuSans-63" x="414.0625"/>
       <use xlink:href="#DejaVuSans-20" x="469.042969"/>
       <use xlink:href="#DejaVuSans-50" x="500.830078"/>
       <use xlink:href="#DejaVuSans-6f" x="557.507812"/>
       <use xlink:href="#DejaVuSans-73" x="618.689453"/>
       <use xlink:href="#DejaVuSans-65" x="670.789062"/>
       <use xlink:href="#DejaVuSans-20" x="732.3125"/>
       <use xlink:href="#DejaVuSans-45" x="764.099609"/>
       <use xlink:href="#DejaVuSans-64" x="827.283203"/>
       <use xlink:href="#DejaVuSans-69" x="890.759766"/>
       <use xlink:href="#DejaVuSans-74" x="918.542969"/>
       <use xlink:href="#DejaVuSans-73" x="957.751953"/>
      </g>
     </g>
    </g>
    <g id="ytick_7">
     <g id="line2d_19"/>
     <g id="text_14">
      <!-- Target Grounding -->
      <g style="fill: #334e68" transform="translate(135.80125 239.972517) scale(0.11 -0.11)">
       <defs>
        <path id="DejaVuSans-54" d="M -19 4666 
L 3928 4666 
L 3928 4134 
L 2272 4134 
L 2272 0 
L 1638 0 
L 1638 4134 
L -19 4134 
L -19 4666 
z
" transform="scale(0.015625)"/>
        <path id="DejaVuSans-47" d="M 3809 666 
L 3809 1919 
L 2778 1919 
L 2778 2438 
L 4434 2438 
L 4434 434 
Q 4069 175 3628 42 
Q 3188 -91 2688 -91 
Q 1594 -91 976 548 
Q 359 1188 359 2328 
Q 359 3472 976 4111 
Q 1594 4750 2688 4750 
Q 3144 4750 3555 4637 
Q 3966 4525 4313 4306 
L 4313 3634 
Q 3963 3931 3569 4081 
Q 3175 4231 2741 4231 
Q 1884 4231 1454 3753 
Q 1025 3275 1025 2328 
Q 1025 1384 1454 906 
Q 1884 428 2741 428 
Q 3075 428 3337 486 
Q 3600 544 3809 666 
z
" transform="scale(0.015625)"/>
       </defs>
       <use xlink:href="#DejaVuSans-54"/>
       <use xlink:href="#DejaVuSans-61" x="44.583984"/>
       <use xlink:href="#DejaVuSans-72" x="105.863281"/>
       <use xlink:href="#DejaVuSans-67" x="145.226562"/>
       <use xlink:href="#DejaVuSans-65" x="208.703125"/>
       <use xlink:href="#DejaVuSans-74" x="270.226562"/>
       <use xlink:href="#DejaVuSans-20" x="309.435547"/>
       <use xlink:href="#DejaVuSans-47" x="341.222656"/>
       <use xlink:href="#DejaVuSans-72" x="418.712891"/>
       <use xlink:href="#DejaVuSans-6f" x="457.576172"/>
       <use xlink:href="#DejaVuSans-75" x="518.757812"/>
       <use xlink:href="#DejaVuSans-6e" x="582.136719"/>
       <use xlink:href="#DejaVuSans-64" x="645.515625"/>
       <use xlink:href="#DejaVuSans-69" x="708.992188"/>
       <use xlink:href="#DejaVuSans-6e" x="736.775391"/>
       <use xlink:href="#DejaVuSans-67" x="800.154297"/>
      </g>
     </g>
    </g>
    <g id="ytick_8">
     <g id="line2d_20"/>
     <g id="text_15">
      <!-- Unsupported Or Out Of Scope -->
      <g style="fill: #334e68" transform="translate(66.640469 268.021868) scale(0.11 -0.11)">
       <defs>
        <path id="DejaVuSans-55" d="M 556 4666 
L 1191 4666 
L 1191 1831 
Q 1191 1081 1462 751 
Q 1734 422 2344 422 
Q 2950 422 3222 751 
Q 3494 1081 3494 1831 
L 3494 4666 
L 4128 4666 
L 4128 1753 
Q 4128 841 3676 375 
Q 3225 -91 2344 -91 
Q 1459 -91 1007 375 
Q 556 841 556 1753 
L 556 4666 
z
" transform="scale(0.015625)"/>
       </defs>
       <use xlink:href="#DejaVuSans-55"/>
       <use xlink:href="#DejaVuSans-6e" x="73.193359"/>
       <use xlink:href="#DejaVuSans-73" x="136.572266"/>
       <use xlink:href="#DejaVuSans-75" x="188.671875"/>
       <use xlink:href="#DejaVuSans-70" x="252.050781"/>
       <use xlink:href="#DejaVuSans-70" x="315.527344"/>
       <use xlink:href="#DejaVuSans-6f" x="379.003906"/>
       <use xlink:href="#DejaVuSans-72" x="440.185547"/>
       <use xlink:href="#DejaVuSans-74" x="481.298828"/>
       <use xlink:href="#DejaVuSans-65" x="520.507812"/>
       <use xlink:href="#DejaVuSans-64" x="582.03125"/>
       <use xlink:href="#DejaVuSans-20" x="645.507812"/>
       <use xlink:href="#DejaVuSans-4f" x="677.294922"/>
       <use xlink:href="#DejaVuSans-72" x="756.005859"/>
       <use xlink:href="#DejaVuSans-20" x="797.119141"/>
       <use xlink:href="#DejaVuSans-4f" x="828.90625"/>
       <use xlink:href="#DejaVuSans-75" x="907.617188"/>
       <use xlink:href="#DejaVuSans-74" x="970.996094"/>
       <use xlink:href="#DejaVuSans-20" x="1010.205078"/>
       <use xlink:href="#DejaVuSans-4f" x="1041.992188"/>
       <use xlink:href="#DejaVuSans-66" x="1120.703125"/>
       <use xlink:href="#DejaVuSans-20" x="1155.908203"/>
       <use xlink:href="#DejaVuSans-53" x="1187.695312"/>
       <use xlink:href="#DejaVuSans-63" x="1251.171875"/>
       <use xlink:href="#DejaVuSans-6f" x="1306.152344"/>
       <use xlink:href="#DejaVuSans-70" x="1367.333984"/>
       <use xlink:href="#DejaVuSans-65" x="1430.810547"/>
      </g>
     </g>
    </g>
    <g id="text_16">
     <!-- Prompt Family -->
     <g transform="translate(22.927031 208.407813) rotate(-90) scale(0.12 -0.12)">
      <use xlink:href="#DejaVuSans-50"/>
      <use xlink:href="#DejaVuSans-72" x="58.552734"/>
      <use xlink:href="#DejaVuSans-6f" x="97.416016"/>
      <use xlink:href="#DejaVuSans-6d" x="158.597656"/>
      <use xlink:href="#DejaVuSans-70" x="256.009766"/>
      <use xlink:href="#DejaVuSans-74" x="319.486328"/>
      <use xlink:href="#DejaVuSans-20" x="358.695312"/>
      <use xlink:href="#DejaVuSans-46" x="390.482422"/>
      <use xlink:href="#DejaVuSans-61" x="438.876953"/>
      <use xlink:href="#DejaVuSans-6d" x="500.15625"/>
      <use xlink:href="#DejaVuSans-69" x="597.568359"/>
      <use xlink:href="#DejaVuSans-6c" x="625.351562"/>
      <use xlink:href="#DejaVuSans-79" x="653.134766"/>
     </g>
    </g>
   </g>
   <g id="LineCollection_1">
    <path d="M 234.3 67.497273 
L 463.995 67.497273 
" clip-path="url(#pfbd8b627a4)" style="fill: none; stroke: #d9e2ec; stroke-width: 2"/>
   </g>
   <g id="LineCollection_2">
    <path d="M 234.3 95.546623 
L 463.995 95.546623 
" clip-path="url(#pfbd8b627a4)" style="fill: none; stroke: #d9e2ec; stroke-width: 2"/>
   </g>
   <g id="LineCollection_3">
    <path d="M 234.3 123.595974 
L 463.995 123.595974 
" clip-path="url(#pfbd8b627a4)" style="fill: none; stroke: #d9e2ec; stroke-width: 2"/>
   </g>
   <g id="LineCollection_4">
    <path d="M 234.3 151.645325 
L 463.995 151.645325 
" clip-path="url(#pfbd8b627a4)" style="fill: none; stroke: #d9e2ec; stroke-width: 2"/>
   </g>
   <g id="LineCollection_5">
    <path d="M 234.3 179.694675 
L 463.995 179.694675 
" clip-path="url(#pfbd8b627a4)" style="fill: none; stroke: #d9e2ec; stroke-width: 2"/>
   </g>
   <g id="LineCollection_6">
    <path d="M 234.3 207.744026 
L 463.995 207.744026 
" clip-path="url(#pfbd8b627a4)" style="fill: none; stroke: #d9e2ec; stroke-width: 2"/>
   </g>
   <g id="LineCollection_7">
    <path d="M 234.3 235.793377 
L 463.995 235.793377 
" clip-path="url(#pfbd8b627a4)" style="fill: none; stroke: #d9e2ec; stroke-width: 2"/>
   </g>
   <g id="LineCollection_8">
    <path d="M 234.3 263.842727 
L 463.995 263.842727 
" clip-path="url(#pfbd8b627a4)" style="fill: none; stroke: #d9e2ec; stroke-width: 2"/>
   </g>
   <g id="LineCollection_9">
    <path d="M 234.3 67.497273 
L 463.995 67.497273 
" clip-path="url(#pfbd8b627a4)" style="fill: none; stroke: #264653; stroke-opacity: 0.3; stroke-width: 3"/>
   </g>
   <g id="LineCollection_10">
    <path d="M 234.3 95.546623 
L 234.3 95.546623 
" clip-path="url(#pfbd8b627a4)" style="fill: none; stroke: #264653; stroke-opacity: 0.3; stroke-width: 3"/>
   </g>
   <g id="LineCollection_11">
    <path d="M 234.3 123.595974 
L 463.995 123.595974 
" clip-path="url(#pfbd8b627a4)" style="fill: none; stroke: #264653; stroke-opacity: 0.3; stroke-width: 3"/>
   </g>
   <g id="LineCollection_12">
    <path d="M 234.3 151.645325 
L 418.056 151.645325 
" clip-path="url(#pfbd8b627a4)" style="fill: none; stroke: #264653; stroke-opacity: 0.3; stroke-width: 3"/>
   </g>
   <g id="LineCollection_13">
    <path d="M 234.3 179.694675 
L 463.995 179.694675 
" clip-path="url(#pfbd8b627a4)" style="fill: none; stroke: #264653; stroke-opacity: 0.3; stroke-width: 3"/>
   </g>
   <g id="LineCollection_14">
    <path d="M 234.3 207.744026 
L 463.995 207.744026 
" clip-path="url(#pfbd8b627a4)" style="fill: none; stroke: #264653; stroke-opacity: 0.3; stroke-width: 3"/>
   </g>
   <g id="LineCollection_15">
    <path d="M 234.3 235.793377 
L 349.1475 235.793377 
" clip-path="url(#pfbd8b627a4)" style="fill: none; stroke: #264653; stroke-opacity: 0.3; stroke-width: 3"/>
   </g>
   <g id="LineCollection_16">
    <path d="M 234.3 263.842727 
L 463.995 263.842727 
" clip-path="url(#pfbd8b627a4)" style="fill: none; stroke: #264653; stroke-opacity: 0.3; stroke-width: 3"/>
   </g>
   <g id="patch_3">
    <path d="M 234.3 273.66 
L 234.3 57.68 
" style="fill: none; stroke: #cfd8dc; stroke-width: 0.8; stroke-linejoin: miter; stroke-linecap: square"/>
   </g>
   <g id="patch_4">
    <path d="M 234.3 273.66 
L 463.995 273.66 
" style="fill: none; stroke: #cfd8dc; stroke-width: 0.8; stroke-linejoin: miter; stroke-linecap: square"/>
   </g>
   <g id="PathCollection_1">
    <defs>
     <path id="C0_0_23d01f0df2" d="M 0 4.609772 
C 1.222526 4.609772 2.395145 4.124058 3.259601 3.259601 
C 4.124058 2.395145 4.609772 1.222526 4.609772 -0 
C 4.609772 -1.222526 4.124058 -2.395145 3.259601 -3.259601 
C 2.395145 -4.124058 1.222526 -4.609772 0 -4.609772 
C -1.222526 -4.609772 -2.395145 -4.124058 -3.259601 -3.259601 
C -4.124058 -2.395145 -4.609772 -1.222526 -4.609772 0 
C -4.609772 1.222526 -4.124058 2.395145 -3.259601 3.259601 
C -2.395145 4.124058 -1.222526 4.609772 0 4.609772 
z
"/>
    </defs>
    <g clip-path="url(#pfbd8b627a4)">
     <use xlink:href="#C0_0_23d01f0df2" x="463.995" y="67.497273" style="fill: #264653; stroke: #264653"/>
    </g>
    <g clip-path="url(#pfbd8b627a4)">
     <use xlink:href="#C0_0_23d01f0df2" x="234.3" y="95.546623" style="fill: #264653; stroke: #264653"/>
    </g>
    <g clip-path="url(#pfbd8b627a4)">
     <use xlink:href="#C0_0_23d01f0df2" x="463.995" y="123.595974" style="fill: #264653; stroke: #264653"/>
    </g>
    <g clip-path="url(#pfbd8b627a4)">
     <use xlink:href="#C0_0_23d01f0df2" x="418.056" y="151.645325" style="fill: #264653; stroke: #264653"/>
    </g>
    <g clip-path="url(#pfbd8b627a4)">
     <use xlink:href="#C0_0_23d01f0df2" x="463.995" y="179.694675" style="fill: #264653; stroke: #264653"/>
    </g>
    <g clip-path="url(#pfbd8b627a4)">
     <use xlink:href="#C0_0_23d01f0df2" x="463.995" y="207.744026" style="fill: #264653; stroke: #264653"/>
    </g>
    <g clip-path="url(#pfbd8b627a4)">
     <use xlink:href="#C0_0_23d01f0df2" x="349.1475" y="235.793377" style="fill: #264653; stroke: #264653"/>
    </g>
    <g clip-path="url(#pfbd8b627a4)">
     <use xlink:href="#C0_0_23d01f0df2" x="463.995" y="263.842727" style="fill: #264653; stroke: #264653"/>
    </g>
   </g>
   <g id="text_17">
    <!-- 2 prompts -->
    <g style="fill: #243b53" transform="translate(397.070981 70.532585) scale(0.11 -0.11)">
     <defs>
      <path id="DejaVuSans-Bold-32" d="M 1844 884 
L 3897 884 
L 3897 0 
L 506 0 
L 506 884 
L 2209 2388 
Q 2438 2594 2547 2791 
Q 2656 2988 2656 3200 
Q 2656 3528 2436 3728 
Q 2216 3928 1850 3928 
Q 1569 3928 1234 3808 
Q 900 3688 519 3450 
L 519 4475 
Q 925 4609 1322 4679 
Q 1719 4750 2100 4750 
Q 2938 4750 3402 4381 
Q 3866 4013 3866 3353 
Q 3866 2972 3669 2642 
Q 3472 2313 2841 1759 
L 1844 884 
z
" transform="scale(0.015625)"/>
      <path id="DejaVuSans-Bold-20" transform="scale(0.015625)"/>
      <path id="DejaVuSans-Bold-70" d="M 1656 506 
L 1656 -1331 
L 538 -1331 
L 538 3500 
L 1656 3500 
L 1656 2988 
Q 1888 3294 2169 3439 
Q 2450 3584 2816 3584 
Q 3463 3584 3878 3070 
Q 4294 2556 4294 1747 
Q 4294 938 3878 423 
Q 3463 -91 2816 -91 
Q 2450 -91 2169 54 
Q 1888 200 1656 506 
z
M 2400 2772 
Q 2041 2772 1848 2508 
Q 1656 2244 1656 1747 
Q 1656 1250 1848 986 
Q 2041 722 2400 722 
Q 2759 722 2948 984 
Q 3138 1247 3138 1747 
Q 3138 2247 2948 2509 
Q 2759 2772 2400 2772 
z
" transform="scale(0.015625)"/>
      <path id="DejaVuSans-Bold-72" d="M 3138 2547 
Q 2991 2616 2845 2648 
Q 2700 2681 2553 2681 
Q 2122 2681 1889 2404 
Q 1656 2128 1656 1613 
L 1656 0 
L 538 0 
L 538 3500 
L 1656 3500 
L 1656 2925 
Q 1872 3269 2151 3426 
Q 2431 3584 2822 3584 
Q 2878 3584 2943 3579 
Q 3009 3575 3134 3559 
L 3138 2547 
z
" transform="scale(0.015625)"/>
      <path id="DejaVuSans-Bold-6f" d="M 2203 2784 
Q 1831 2784 1636 2517 
Q 1441 2250 1441 1747 
Q 1441 1244 1636 976 
Q 1831 709 2203 709 
Q 2569 709 2762 976 
Q 2956 1244 2956 1747 
Q 2956 2250 2762 2517 
Q 2569 2784 2203 2784 
z
M 2203 3584 
Q 3106 3584 3614 3096 
Q 4122 2609 4122 1747 
Q 4122 884 3614 396 
Q 3106 -91 2203 -91 
Q 1297 -91 786 396 
Q 275 884 275 1747 
Q 275 2609 786 3096 
Q 1297 3584 2203 3584 
z
" transform="scale(0.015625)"/>
      <path id="DejaVuSans-Bold-6d" d="M 3781 2919 
Q 3994 3244 4286 3414 
Q 4578 3584 4928 3584 
Q 5531 3584 5847 3212 
Q 6163 2841 6163 2131 
L 6163 0 
L 5038 0 
L 5038 1825 
Q 5041 1866 5042 1909 
Q 5044 1953 5044 2034 
Q 5044 2406 4934 2573 
Q 4825 2741 4581 2741 
Q 4263 2741 4089 2478 
Q 3916 2216 3909 1719 
L 3909 0 
L 2784 0 
L 2784 1825 
Q 2784 2406 2684 2573 
Q 2584 2741 2328 2741 
Q 2006 2741 1831 2477 
Q 1656 2213 1656 1722 
L 1656 0 
L 531 0 
L 531 3500 
L 1656 3500 
L 1656 2988 
Q 1863 3284 2130 3434 
Q 2397 3584 2719 3584 
Q 3081 3584 3359 3409 
Q 3638 3234 3781 2919 
z
" transform="scale(0.015625)"/>
      <path id="DejaVuSans-Bold-74" d="M 1759 4494 
L 1759 3500 
L 2913 3500 
L 2913 2700 
L 1759 2700 
L 1759 1216 
Q 1759 972 1856 886 
Q 1953 800 2241 800 
L 2816 800 
L 2816 0 
L 1856 0 
Q 1194 0 917 276 
Q 641 553 641 1216 
L 641 2700 
L 84 2700 
L 84 3500 
L 641 3500 
L 641 4494 
L 1759 4494 
z
" transform="scale(0.015625)"/>
      <path id="DejaVuSans-Bold-73" d="M 3272 3391 
L 3272 2541 
Q 2913 2691 2578 2766 
Q 2244 2841 1947 2841 
Q 1628 2841 1473 2761 
Q 1319 2681 1319 2516 
Q 1319 2381 1436 2309 
Q 1553 2238 1856 2203 
L 2053 2175 
Q 2913 2066 3209 1816 
Q 3506 1566 3506 1031 
Q 3506 472 3093 190 
Q 2681 -91 1863 -91 
Q 1516 -91 1145 -36 
Q 775 19 384 128 
L 384 978 
Q 719 816 1070 734 
Q 1422 653 1784 653 
Q 2113 653 2278 743 
Q 2444 834 2444 1013 
Q 2444 1163 2330 1236 
Q 2216 1309 1875 1350 
L 1678 1375 
Q 931 1469 631 1722 
Q 331 1975 331 2491 
Q 331 3047 712 3315 
Q 1094 3584 1881 3584 
Q 2191 3584 2531 3537 
Q 2872 3491 3272 3391 
z
" transform="scale(0.015625)"/>
     </defs>
     <use xlink:href="#DejaVuSans-Bold-32"/>
     <use xlink:href="#DejaVuSans-Bold-20" x="69.580078"/>
     <use xlink:href="#DejaVuSans-Bold-70" x="104.394531"/>
     <use xlink:href="#DejaVuSans-Bold-72" x="175.976562"/>
     <use xlink:href="#DejaVuSans-Bold-6f" x="225.292969"/>
     <use xlink:href="#DejaVuSans-Bold-6d" x="293.994141"/>
     <use xlink:href="#DejaVuSans-Bold-70" x="398.193359"/>
     <use xlink:href="#DejaVuSans-Bold-74" x="469.775391"/>
     <use xlink:href="#DejaVuSans-Bold-73" x="517.578125"/>
    </g>
   </g>
   <g id="text_18">
    <!-- 2 prompts -->
    <g style="fill: #243b53" transform="translate(237.745425 98.581936) scale(0.11 -0.11)">
     <use xlink:href="#DejaVuSans-Bold-32"/>
     <use xlink:href="#DejaVuSans-Bold-20" x="69.580078"/>
     <use xlink:href="#DejaVuSans-Bold-70" x="104.394531"/>
     <use xlink:href="#DejaVuSans-Bold-72" x="175.976562"/>
     <use xlink:href="#DejaVuSans-Bold-6f" x="225.292969"/>
     <use xlink:href="#DejaVuSans-Bold-6d" x="293.994141"/>
     <use xlink:href="#DejaVuSans-Bold-70" x="398.193359"/>
     <use xlink:href="#DejaVuSans-Bold-74" x="469.775391"/>
     <use xlink:href="#DejaVuSans-Bold-73" x="517.578125"/>
    </g>
   </g>
   <g id="text_19">
    <!-- 1 prompts -->
    <g style="fill: #243b53" transform="translate(397.070981 126.631287) scale(0.11 -0.11)">
     <defs>
      <path id="DejaVuSans-Bold-31" d="M 750 831 
L 1813 831 
L 1813 3847 
L 722 3622 
L 722 4441 
L 1806 4666 
L 2950 4666 
L 2950 831 
L 4013 831 
L 4013 0 
L 750 0 
L 750 831 
z
" transform="scale(0.015625)"/>
     </defs>
     <use xlink:href="#DejaVuSans-Bold-31"/>
     <use xlink:href="#DejaVuSans-Bold-20" x="69.580078"/>
     <use xlink:href="#DejaVuSans-Bold-70" x="104.394531"/>
     <use xlink:href="#DejaVuSans-Bold-72" x="175.976562"/>
     <use xlink:href="#DejaVuSans-Bold-6f" x="225.292969"/>
     <use xlink:href="#DejaVuSans-Bold-6d" x="293.994141"/>
     <use xlink:href="#DejaVuSans-Bold-70" x="398.193359"/>
     <use xlink:href="#DejaVuSans-Bold-74" x="469.775391"/>
     <use xlink:href="#DejaVuSans-Bold-73" x="517.578125"/>
    </g>
   </g>
   <g id="text_20">
    <!-- 5 prompts -->
    <g style="fill: #243b53" transform="translate(421.501425 154.680637) scale(0.11 -0.11)">
     <defs>
      <path id="DejaVuSans-Bold-35" d="M 678 4666 
L 3669 4666 
L 3669 3781 
L 1638 3781 
L 1638 3059 
Q 1775 3097 1914 3117 
Q 2053 3138 2203 3138 
Q 3056 3138 3531 2711 
Q 4006 2284 4006 1522 
Q 4006 766 3489 337 
Q 2972 -91 2053 -91 
Q 1656 -91 1267 -14 
Q 878 63 494 219 
L 494 1166 
Q 875 947 1217 837 
Q 1559 728 1863 728 
Q 2300 728 2551 942 
Q 2803 1156 2803 1522 
Q 2803 1891 2551 2103 
Q 2300 2316 1863 2316 
Q 1603 2316 1309 2248 
Q 1016 2181 678 2041 
L 678 4666 
z
" transform="scale(0.015625)"/>
     </defs>
     <use xlink:href="#DejaVuSans-Bold-35"/>
     <use xlink:href="#DejaVuSans-Bold-20" x="69.580078"/>
     <use xlink:href="#DejaVuSans-Bold-70" x="104.394531"/>
     <use xlink:href="#DejaVuSans-Bold-72" x="175.976562"/>
     <use xlink:href="#DejaVuSans-Bold-6f" x="225.292969"/>
     <use xlink:href="#DejaVuSans-Bold-6d" x="293.994141"/>
     <use xlink:href="#DejaVuSans-Bold-70" x="398.193359"/>
     <use xlink:href="#DejaVuSans-Bold-74" x="469.775391"/>
     <use xlink:href="#DejaVuSans-Bold-73" x="517.578125"/>
    </g>
   </g>
   <g id="text_21">
    <!-- 1 prompts -->
    <g style="fill: #243b53" transform="translate(397.070981 182.729988) scale(0.11 -0.11)">
     <use xlink:href="#DejaVuSans-Bold-31"/>
     <use xlink:href="#DejaVuSans-Bold-20" x="69.580078"/>
     <use xlink:href="#DejaVuSans-Bold-70" x="104.394531"/>
     <use xlink:href="#DejaVuSans-Bold-72" x="175.976562"/>
     <use xlink:href="#DejaVuSans-Bold-6f" x="225.292969"/>
     <use xlink:href="#DejaVuSans-Bold-6d" x="293.994141"/>
     <use xlink:href="#DejaVuSans-Bold-70" x="398.193359"/>
     <use xlink:href="#DejaVuSans-Bold-74" x="469.775391"/>
     <use xlink:href="#DejaVuSans-Bold-73" x="517.578125"/>
    </g>
   </g>
   <g id="text_22">
    <!-- 2 prompts -->
    <g style="fill: #243b53" transform="translate(397.070981 210.779338) scale(0.11 -0.11)">
     <use xlink:href="#DejaVuSans-Bold-32"/>
     <use xlink:href="#DejaVuSans-Bold-20" x="69.580078"/>
     <use xlink:href="#DejaVuSans-Bold-70" x="104.394531"/>
     <use xlink:href="#DejaVuSans-Bold-72" x="175.976562"/>
     <use xlink:href="#DejaVuSans-Bold-6f" x="225.292969"/>
     <use xlink:href="#DejaVuSans-Bold-6d" x="293.994141"/>
     <use xlink:href="#DejaVuSans-Bold-70" x="398.193359"/>
     <use xlink:href="#DejaVuSans-Bold-74" x="469.775391"/>
     <use xlink:href="#DejaVuSans-Bold-73" x="517.578125"/>
    </g>
   </g>
   <g id="text_23">
    <!-- 2 prompts -->
    <g style="fill: #243b53" transform="translate(352.592925 238.828689) scale(0.11 -0.11)">
     <use xlink:href="#DejaVuSans-Bold-32"/>
     <use xlink:href="#DejaVuSans-Bold-20" x="69.580078"/>
     <use xlink:href="#DejaVuSans-Bold-70" x="104.394531"/>
     <use xlink:href="#DejaVuSans-Bold-72" x="175.976562"/>
     <use xlink:href="#DejaVuSans-Bold-6f" x="225.292969"/>
     <use xlink:href="#DejaVuSans-Bold-6d" x="293.994141"/>
     <use xlink:href="#DejaVuSans-Bold-70" x="398.193359"/>
     <use xlink:href="#DejaVuSans-Bold-74" x="469.775391"/>
     <use xlink:href="#DejaVuSans-Bold-73" x="517.578125"/>
    </g>
   </g>
   <g id="text_24">
    <!-- 2 prompts -->
    <g style="fill: #243b53" transform="translate(397.070981 266.87804) scale(0.11 -0.11)">
     <use xlink:href="#DejaVuSans-Bold-32"/>
     <use xlink:href="#DejaVuSans-Bold-20" x="69.580078"/>
     <use xlink:href="#DejaVuSans-Bold-70" x="104.394531"/>
     <use xlink:href="#DejaVuSans-Bold-72" x="175.976562"/>
     <use xlink:href="#DejaVuSans-Bold-6f" x="225.292969"/>
     <use xlink:href="#DejaVuSans-Bold-6d" x="293.994141"/>
     <use xlink:href="#DejaVuSans-Bold-70" x="398.193359"/>
     <use xlink:href="#DejaVuSans-Bold-74" x="469.775391"/>
     <use xlink:href="#DejaVuSans-Bold-73" x="517.578125"/>
    </g>
   </g>
   <g id="text_25">
    <!-- Exact Match by Prompt Family -->
    <g style="fill: #243b53" transform="translate(234.3 49.68) scale(0.16 -0.16)">
     <use xlink:href="#DejaVuSans-45"/>
     <use xlink:href="#DejaVuSans-78" x="63.183594"/>
     <use xlink:href="#DejaVuSans-61" x="122.363281"/>
     <use xlink:href="#DejaVuSans-63" x="183.642578"/>
     <use xlink:href="#DejaVuSans-74" x="238.623047"/>
     <use xlink:href="#DejaVuSans-20" x="277.832031"/>
     <use xlink:href="#DejaVuSans-4d" x="309.619141"/>
     <use xlink:href="#DejaVuSans-61" x="395.898438"/>
     <use xlink:href="#DejaVuSans-74" x="457.177734"/>
     <use xlink:href="#DejaVuSans-63" x="496.386719"/>
     <use xlink:href="#DejaVuSans-68" x="551.367188"/>
     <use xlink:href="#DejaVuSans-20" x="614.746094"/>
     <use xlink:href="#DejaVuSans-62" x="646.533203"/>
     <use xlink:href="#DejaVuSans-79" x="710.009766"/>
     <use xlink:href="#DejaVuSans-20" x="769.189453"/>
     <use xlink:href="#DejaVuSans-50" x="800.976562"/>
     <use xlink:href="#DejaVuSans-72" x="859.529297"/>
     <use xlink:href="#DejaVuSans-6f" x="898.392578"/>
     <use xlink:href="#DejaVuSans-6d" x="959.574219"/>
     <use xlink:href="#DejaVuSans-70" x="1056.986328"/>
     <use xlink:href="#DejaVuSans-74" x="1120.462891"/>
     <use xlink:href="#DejaVuSans-20" x="1159.671875"/>
     <use xlink:href="#DejaVuSans-46" x="1191.458984"/>
     <use xlink:href="#DejaVuSans-61" x="1239.853516"/>
     <use xlink:href="#DejaVuSans-6d" x="1301.132812"/>
     <use xlink:href="#DejaVuSans-69" x="1398.544922"/>
     <use xlink:href="#DejaVuSans-6c" x="1426.328125"/>
     <use xlink:href="#DejaVuSans-79" x="1454.111328"/>
    </g>
   </g>
  </g>
  <g id="axes_2">
   <g id="patch_5">
    <path d="M 577.965 273.66 
L 807.66 273.66 
L 807.66 57.68 
L 577.965 57.68 
z
" style="fill: #ffffff"/>
   </g>
   <g id="matplotlib.axis_3">
    <g id="xtick_7">
     <g id="line2d_21">
      <path d="M 577.965 273.66 
L 577.965 57.68 
" clip-path="url(#p334d8d59a5)" style="fill: none; stroke: #e6dfd5; stroke-opacity: 0.9; stroke-width: 0.8; stroke-linecap: square"/>
     </g>
     <g id="line2d_22"/>
     <g id="text_26">
      <!-- 0% -->
      <g style="fill: #334e68" transform="translate(569.239766 285.518281) scale(0.11 -0.11)">
       <use xlink:href="#DejaVuSans-30"/>
       <use xlink:href="#DejaVuSans-25" x="63.623047"/>
      </g>
     </g>
    </g>
    <g id="xtick_8">
     <g id="line2d_23">
      <path d="M 623.904 273.66 
L 623.904 57.68 
" clip-path="url(#p334d8d59a5)" style="fill: none; stroke: #e6dfd5; stroke-opacity: 0.9; stroke-width: 0.8; stroke-linecap: square"/>
     </g>
     <g id="line2d_24"/>
     <g id="text_27">
      <!-- 20% -->
      <g style="fill: #334e68" transform="translate(611.679391 285.518281) scale(0.11 -0.11)">
       <use xlink:href="#DejaVuSans-32"/>
       <use xlink:href="#DejaVuSans-30" x="63.623047"/>
       <use xlink:href="#DejaVuSans-25" x="127.246094"/>
      </g>
     </g>
    </g>
    <g id="xtick_9">
     <g id="line2d_25">
      <path d="M 669.843 273.66 
L 669.843 57.68 
" clip-path="url(#p334d8d59a5)" style="fill: none; stroke: #e6dfd5; stroke-opacity: 0.9; stroke-width: 0.8; stroke-linecap: square"/>
     </g>
     <g id="line2d_26"/>
     <g id="text_28">
      <!-- 40% -->
      <g style="fill: #334e68" transform="translate(657.618391 285.518281) scale(0.11 -0.11)">
       <use xlink:href="#DejaVuSans-34"/>
       <use xlink:href="#DejaVuSans-30" x="63.623047"/>
       <use xlink:href="#DejaVuSans-25" x="127.246094"/>
      </g>
     </g>
    </g>
    <g id="xtick_10">
     <g id="line2d_27">
      <path d="M 715.782 273.66 
L 715.782 57.68 
" clip-path="url(#p334d8d59a5)" style="fill: none; stroke: #e6dfd5; stroke-opacity: 0.9; stroke-width: 0.8; stroke-linecap: square"/>
     </g>
     <g id="line2d_28"/>
     <g id="text_29">
      <!-- 60% -->
      <g style="fill: #334e68" transform="translate(703.557391 285.518281) scale(0.11 -0.11)">
       <use xlink:href="#DejaVuSans-36"/>
       <use xlink:href="#DejaVuSans-30" x="63.623047"/>
       <use xlink:href="#DejaVuSans-25" x="127.246094"/>
      </g>
     </g>
    </g>
    <g id="xtick_11">
     <g id="line2d_29">
      <path d="M 761.721 273.66 
L 761.721 57.68 
" clip-path="url(#p334d8d59a5)" style="fill: none; stroke: #e6dfd5; stroke-opacity: 0.9; stroke-width: 0.8; stroke-linecap: square"/>
     </g>
     <g id="line2d_30"/>
     <g id="text_30">
      <!-- 80% -->
      <g style="fill: #334e68" transform="translate(749.496391 285.518281) scale(0.11 -0.11)">
       <use xlink:href="#DejaVuSans-38"/>
       <use xlink:href="#DejaVuSans-30" x="63.623047"/>
       <use xlink:href="#DejaVuSans-25" x="127.246094"/>
      </g>
     </g>
    </g>
    <g id="xtick_12">
     <g id="line2d_31">
      <path d="M 807.66 273.66 
L 807.66 57.68 
" clip-path="url(#p334d8d59a5)" style="fill: none; stroke: #e6dfd5; stroke-opacity: 0.9; stroke-width: 0.8; stroke-linecap: square"/>
     </g>
     <g id="line2d_32"/>
     <g id="text_31">
      <!-- 100% -->
      <g style="fill: #334e68" transform="translate(791.936016 285.518281) scale(0.11 -0.11)">
       <use xlink:href="#DejaVuSans-31"/>
       <use xlink:href="#DejaVuSans-30" x="63.623047"/>
       <use xlink:href="#DejaVuSans-30" x="127.246094"/>
       <use xlink:href="#DejaVuSans-25" x="190.869141"/>
      </g>
     </g>
    </g>
    <g id="text_32">
     <!-- Accuracy -->
     <g transform="translate(665.41875 300.924062) scale(0.12 -0.12)">
      <use xlink:href="#DejaVuSans-41"/>
      <use xlink:href="#DejaVuSans-63" x="66.658203"/>
      <use xlink:href="#DejaVuSans-63" x="121.638672"/>
      <use xlink:href="#DejaVuSans-75" x="176.619141"/>
      <use xlink:href="#DejaVuSans-72" x="239.998047"/>
      <use xlink:href="#DejaVuSans-61" x="281.111328"/>
      <use xlink:href="#DejaVuSans-63" x="342.390625"/>
      <use xlink:href="#DejaVuSans-79" x="397.371094"/>
     </g>
    </g>
   </g>
   <g id="matplotlib.axis_4">
    <g id="ytick_9">
     <g id="line2d_33"/>
     <g id="text_33">
      <!-- Intent -->
      <g style="fill: #334e68" transform="translate(541.884375 71.676413) scale(0.11 -0.11)">
       <defs>
        <path id="DejaVuSans-49" d="M 628 4666 
L 1259 4666 
L 1259 0 
L 628 0 
L 628 4666 
z
" transform="scale(0.015625)"/>
       </defs>
       <use xlink:href="#DejaVuSans-49"/>
       <use xlink:href="#DejaVuSans-6e" x="29.492188"/>
       <use xlink:href="#DejaVuSans-74" x="92.871094"/>
       <use xlink:href="#DejaVuSans-65" x="132.080078"/>
       <use xlink:href="#DejaVuSans-6e" x="193.603516"/>
       <use xlink:href="#DejaVuSans-74" x="256.982422"/>
      </g>
     </g>
    </g>
    <g id="ytick_10">
     <g id="line2d_34"/>
     <g id="text_34">
      <!-- Object -->
      <g style="fill: #334e68" transform="translate(538.637656 137.124898) scale(0.11 -0.11)">
       <use xlink:href="#DejaVuSans-4f"/>
       <use xlink:href="#DejaVuSans-62" x="78.710938"/>
       <use xlink:href="#DejaVuSans-6a" x="142.1875"/>
       <use xlink:href="#DejaVuSans-65" x="169.970703"/>
       <use xlink:href="#DejaVuSans-63" x="231.494141"/>
       <use xlink:href="#DejaVuSans-74" x="286.474609"/>
      </g>
     </g>
    </g>
    <g id="ytick_11">
     <g id="line2d_35"/>
     <g id="text_35">
      <!-- Target -->
      <g style="fill: #334e68" transform="translate(540.426875 202.573383) scale(0.11 -0.11)">
       <use xlink:href="#DejaVuSans-54"/>
       <use xlink:href="#DejaVuSans-61" x="44.583984"/>
       <use xlink:href="#DejaVuSans-72" x="105.863281"/>
       <use xlink:href="#DejaVuSans-67" x="145.226562"/>
       <use xlink:href="#DejaVuSans-65" x="208.703125"/>
       <use xlink:href="#DejaVuSans-74" x="270.226562"/>
      </g>
     </g>
    </g>
    <g id="ytick_12">
     <g id="line2d_36"/>
     <g id="text_36">
      <!-- Clarification -->
      <g style="fill: #334e68" transform="translate(508.621406 268.021868) scale(0.11 -0.11)">
       <use xlink:href="#DejaVuSans-43"/>
       <use xlink:href="#DejaVuSans-6c" x="69.824219"/>
       <use xlink:href="#DejaVuSans-61" x="97.607422"/>
       <use xlink:href="#DejaVuSans-72" x="158.886719"/>
       <use xlink:href="#DejaVuSans-69" x="200"/>
       <use xlink:href="#DejaVuSans-66" x="227.783203"/>
       <use xlink:href="#DejaVuSans-69" x="262.988281"/>
       <use xlink:href="#DejaVuSans-63" x="290.771484"/>
       <use xlink:href="#DejaVuSans-61" x="345.751953"/>
       <use xlink:href="#DejaVuSans-74" x="407.03125"/>
       <use xlink:href="#DejaVuSans-69" x="446.240234"/>
       <use xlink:href="#DejaVuSans-6f" x="474.023438"/>
       <use xlink:href="#DejaVuSans-6e" x="535.205078"/>
      </g>
     </g>
    </g>
    <g id="text_37">
     <!-- Component -->
     <g transform="translate(502.125781 200.504688) rotate(-90) scale(0.12 -0.12)">
      <use xlink:href="#DejaVuSans-43"/>
      <use xlink:href="#DejaVuSans-6f" x="69.824219"/>
      <use xlink:href="#DejaVuSans-6d" x="131.005859"/>
      <use xlink:href="#DejaVuSans-70" x="228.417969"/>
      <use xlink:href="#DejaVuSans-6f" x="291.894531"/>
      <use xlink:href="#DejaVuSans-6e" x="353.076172"/>
      <use xlink:href="#DejaVuSans-65" x="416.455078"/>
      <use xlink:href="#DejaVuSans-6e" x="477.978516"/>
      <use xlink:href="#DejaVuSans-74" x="541.357422"/>
     </g>
    </g>
   </g>
   <g id="LineCollection_17">
    <path d="M 577.965 67.497273 
L 807.66 67.497273 
" clip-path="url(#p334d8d59a5)" style="fill: none; stroke: #d9e2ec; stroke-width: 2"/>
   </g>
   <g id="LineCollection_18">
    <path d="M 577.965 132.945758 
L 807.66 132.945758 
" clip-path="url(#p334d8d59a5)" style="fill: none; stroke: #d9e2ec; stroke-width: 2"/>
   </g>
   <g id="LineCollection_19">
    <path d="M 577.965 198.394242 
L 807.66 198.394242 
" clip-path="url(#p334d8d59a5)" style="fill: none; stroke: #d9e2ec; stroke-width: 2"/>
   </g>
   <g id="LineCollection_20">
    <path d="M 577.965 263.842727 
L 807.66 263.842727 
" clip-path="url(#p334d8d59a5)" style="fill: none; stroke: #d9e2ec; stroke-width: 2"/>
   </g>
   <g id="LineCollection_21">
    <path d="M 577.965 67.497273 
L 794.148529 67.497273 
" clip-path="url(#p334d8d59a5)" style="fill: none; stroke: #264653; stroke-opacity: 0.3; stroke-width: 3"/>
   </g>
   <g id="LineCollection_22">
    <path d="M 577.965 132.945758 
L 807.66 132.945758 
" clip-path="url(#p334d8d59a5)" style="fill: none; stroke: #264653; stroke-opacity: 0.3; stroke-width: 3"/>
   </g>
   <g id="LineCollection_23">
    <path d="M 577.965 198.394242 
L 753.614118 198.394242 
" clip-path="url(#p334d8d59a5)" style="fill: none; stroke: #264653; stroke-opacity: 0.3; stroke-width: 3"/>
   </g>
   <g id="LineCollection_24">
    <path d="M 577.965 263.842727 
L 807.66 263.842727 
" clip-path="url(#p334d8d59a5)" style="fill: none; stroke: #264653; stroke-opacity: 0.3; stroke-width: 3"/>
   </g>
   <g id="patch_6">
    <path d="M 577.965 273.66 
L 577.965 57.68 
" style="fill: none; stroke: #cfd8dc; stroke-width: 0.8; stroke-linejoin: miter; stroke-linecap: square"/>
   </g>
   <g id="patch_7">
    <path d="M 577.965 273.66 
L 807.66 273.66 
" style="fill: none; stroke: #cfd8dc; stroke-width: 0.8; stroke-linejoin: miter; stroke-linecap: square"/>
   </g>
   <g id="PathCollection_2">
    <defs>
     <path id="C1_0_2319af4d73" d="M 0 4.609772 
C 1.222526 4.609772 2.395145 4.124058 3.259601 3.259601 
C 4.124058 2.395145 4.609772 1.222526 4.609772 -0 
C 4.609772 -1.222526 4.124058 -2.395145 3.259601 -3.259601 
C 2.395145 -4.124058 1.222526 -4.609772 0 -4.609772 
C -1.222526 -4.609772 -2.395145 -4.124058 -3.259601 -3.259601 
C -4.124058 -2.395145 -4.609772 -1.222526 -4.609772 0 
C -4.609772 1.222526 -4.124058 2.395145 -3.259601 3.259601 
C -2.395145 4.124058 -1.222526 4.609772 0 4.609772 
z
"/>
    </defs>
    <g clip-path="url(#p334d8d59a5)">
     <use xlink:href="#C1_0_2319af4d73" x="794.148529" y="67.497273" style="fill: #264653; stroke: #264653"/>
    </g>
    <g clip-path="url(#p334d8d59a5)">
     <use xlink:href="#C1_0_2319af4d73" x="807.66" y="132.945758" style="fill: #264653; stroke: #264653"/>
    </g>
    <g clip-path="url(#p334d8d59a5)">
     <use xlink:href="#C1_0_2319af4d73" x="753.614118" y="198.394242" style="fill: #264653; stroke: #264653"/>
    </g>
    <g clip-path="url(#p334d8d59a5)">
     <use xlink:href="#C1_0_2319af4d73" x="807.66" y="263.842727" style="fill: #264653; stroke: #264653"/>
    </g>
   </g>
   <g id="text_38">
    <!-- 94% -->
    <g style="fill: #243b53" transform="translate(764.373573 70.532585) scale(0.11 -0.11)">
     <defs>
      <path id="DejaVuSans-Bold-39" d="M 641 103 
L 641 966 
Q 928 831 1190 764 
Q 1453 697 1709 697 
Q 2247 697 2547 995 
Q 2847 1294 2900 1881 
Q 2688 1725 2447 1647 
Q 2206 1569 1925 1569 
Q 1209 1569 770 1986 
Q 331 2403 331 3084 
Q 331 3838 820 4291 
Q 1309 4744 2131 4744 
Q 3044 4744 3544 4128 
Q 4044 3513 4044 2388 
Q 4044 1231 3459 570 
Q 2875 -91 1856 -91 
Q 1528 -91 1228 -42 
Q 928 6 641 103 
z
M 2125 2350 
Q 2441 2350 2600 2554 
Q 2759 2759 2759 3169 
Q 2759 3575 2600 3781 
Q 2441 3988 2125 3988 
Q 1809 3988 1650 3781 
Q 1491 3575 1491 3169 
Q 1491 2759 1650 2554 
Q 1809 2350 2125 2350 
z
" transform="scale(0.015625)"/>
      <path id="DejaVuSans-Bold-34" d="M 2356 3675 
L 1038 1722 
L 2356 1722 
L 2356 3675 
z
M 2156 4666 
L 3494 4666 
L 3494 1722 
L 4159 1722 
L 4159 850 
L 3494 850 
L 3494 0 
L 2356 0 
L 2356 850 
L 288 850 
L 288 1881 
L 2156 4666 
z
" transform="scale(0.015625)"/>
      <path id="DejaVuSans-Bold-25" d="M 4959 1925 
Q 4738 1925 4616 1733 
Q 4494 1541 4494 1184 
Q 4494 825 4614 633 
Q 4734 441 4959 441 
Q 5184 441 5303 633 
Q 5422 825 5422 1184 
Q 5422 1541 5301 1733 
Q 5181 1925 4959 1925 
z
M 4959 2450 
Q 5541 2450 5875 2112 
Q 6209 1775 6209 1184 
Q 6209 594 5875 251 
Q 5541 -91 4959 -91 
Q 4378 -91 4042 251 
Q 3706 594 3706 1184 
Q 3706 1772 4042 2111 
Q 4378 2450 4959 2450 
z
M 2094 -91 
L 1403 -91 
L 4319 4750 
L 5013 4750 
L 2094 -91 
z
M 1453 4750 
Q 2034 4750 2367 4411 
Q 2700 4072 2700 3481 
Q 2700 2891 2367 2550 
Q 2034 2209 1453 2209 
Q 872 2209 539 2550 
Q 206 2891 206 3481 
Q 206 4072 539 4411 
Q 872 4750 1453 4750 
z
M 1453 4225 
Q 1228 4225 1106 4031 
Q 984 3838 984 3481 
Q 984 3122 1106 2926 
Q 1228 2731 1453 2731 
Q 1678 2731 1798 2926 
Q 1919 3122 1919 3481 
Q 1919 3838 1797 4031 
Q 1675 4225 1453 4225 
z
" transform="scale(0.015625)"/>
     </defs>
     <use xlink:href="#DejaVuSans-Bold-39"/>
     <use xlink:href="#DejaVuSans-Bold-34" x="69.580078"/>
     <use xlink:href="#DejaVuSans-Bold-25" x="139.160156"/>
    </g>
   </g>
   <g id="text_39">
    <!-- 100% -->
    <g style="fill: #243b53" transform="translate(770.23145 135.98107) scale(0.11 -0.11)">
     <defs>
      <path id="DejaVuSans-Bold-30" d="M 2944 2338 
Q 2944 3213 2780 3570 
Q 2616 3928 2228 3928 
Q 1841 3928 1675 3570 
Q 1509 3213 1509 2338 
Q 1509 1453 1675 1090 
Q 1841 728 2228 728 
Q 2613 728 2778 1090 
Q 2944 1453 2944 2338 
z
M 4147 2328 
Q 4147 1169 3647 539 
Q 3147 -91 2228 -91 
Q 1306 -91 806 539 
Q 306 1169 306 2328 
Q 306 3491 806 4120 
Q 1306 4750 2228 4750 
Q 3147 4750 3647 4120 
Q 4147 3491 4147 2328 
z
" transform="scale(0.015625)"/>
     </defs>
     <use xlink:href="#DejaVuSans-Bold-31"/>
     <use xlink:href="#DejaVuSans-Bold-30" x="69.580078"/>
     <use xlink:href="#DejaVuSans-Bold-30" x="139.160156"/>
     <use xlink:href="#DejaVuSans-Bold-25" x="208.740234"/>
    </g>
   </g>
   <g id="text_40">
    <!-- 76% -->
    <g style="fill: #243b53" transform="translate(757.059543 201.429555) scale(0.11 -0.11)">
     <defs>
      <path id="DejaVuSans-Bold-37" d="M 428 4666 
L 3944 4666 
L 3944 3988 
L 2125 0 
L 953 0 
L 2675 3781 
L 428 3781 
L 428 4666 
z
" transform="scale(0.015625)"/>
      <path id="DejaVuSans-Bold-36" d="M 2316 2303 
Q 2000 2303 1842 2098 
Q 1684 1894 1684 1484 
Q 1684 1075 1842 870 
Q 2000 666 2316 666 
Q 2634 666 2792 870 
Q 2950 1075 2950 1484 
Q 2950 1894 2792 2098 
Q 2634 2303 2316 2303 
z
M 3803 4544 
L 3803 3681 
Q 3506 3822 3243 3889 
Q 2981 3956 2731 3956 
Q 2194 3956 1894 3657 
Q 1594 3359 1544 2772 
Q 1750 2925 1990 3001 
Q 2231 3078 2516 3078 
Q 3231 3078 3670 2659 
Q 4109 2241 4109 1563 
Q 4109 813 3618 361 
Q 3128 -91 2303 -91 
Q 1394 -91 895 523 
Q 397 1138 397 2266 
Q 397 3422 980 4083 
Q 1563 4744 2578 4744 
Q 2900 4744 3203 4694 
Q 3506 4644 3803 4544 
z
" transform="scale(0.015625)"/>
     </defs>
     <use xlink:href="#DejaVuSans-Bold-37"/>
     <use xlink:href="#DejaVuSans-Bold-36" x="69.580078"/>
     <use xlink:href="#DejaVuSans-Bold-25" x="139.160156"/>
    </g>
   </g>
   <g id="text_41">
    <!-- 100% -->
    <g style="fill: #243b53" transform="translate(770.23145 266.87804) scale(0.11 -0.11)">
     <use xlink:href="#DejaVuSans-Bold-31"/>
     <use xlink:href="#DejaVuSans-Bold-30" x="69.580078"/>
     <use xlink:href="#DejaVuSans-Bold-30" x="139.160156"/>
     <use xlink:href="#DejaVuSans-Bold-25" x="208.740234"/>
    </g>
   </g>
   <g id="text_42">
    <!-- Overall Component Accuracy -->
    <g style="fill: #243b53" transform="translate(577.965 49.68) scale(0.16 -0.16)">
     <defs>
      <path id="DejaVuSans-76" d="M 191 3500 
L 800 3500 
L 1894 563 
L 2988 3500 
L 3597 3500 
L 2284 0 
L 1503 0 
L 191 3500 
z
" transform="scale(0.015625)"/>
     </defs>
     <use xlink:href="#DejaVuSans-4f"/>
     <use xlink:href="#DejaVuSans-76" x="78.710938"/>
     <use xlink:href="#DejaVuSans-65" x="137.890625"/>
     <use xlink:href="#DejaVuSans-72" x="199.414062"/>
     <use xlink:href="#DejaVuSans-61" x="240.527344"/>
     <use xlink:href="#DejaVuSans-6c" x="301.806641"/>
     <use xlink:href="#DejaVuSans-6c" x="329.589844"/>
     <use xlink:href="#DejaVuSans-20" x="357.373047"/>
     <use xlink:href="#DejaVuSans-43" x="389.160156"/>
     <use xlink:href="#DejaVuSans-6f" x="458.984375"/>
     <use xlink:href="#DejaVuSans-6d" x="520.166016"/>
     <use xlink:href="#DejaVuSans-70" x="617.578125"/>
     <use xlink:href="#DejaVuSans-6f" x="681.054688"/>
     <use xlink:href="#DejaVuSans-6e" x="742.236328"/>
     <use xlink:href="#DejaVuSans-65" x="805.615234"/>
     <use xlink:href="#DejaVuSans-6e" x="867.138672"/>
     <use xlink:href="#DejaVuSans-74" x="930.517578"/>
     <use xlink:href="#DejaVuSans-20" x="969.726562"/>
     <use xlink:href="#DejaVuSans-41" x="1001.513672"/>
     <use xlink:href="#DejaVuSans-63" x="1068.171875"/>
     <use xlink:href="#DejaVuSans-63" x="1123.152344"/>
     <use xlink:href="#DejaVuSans-75" x="1178.132812"/>
     <use xlink:href="#DejaVuSans-72" x="1241.511719"/>
     <use xlink:href="#DejaVuSans-61" x="1282.625"/>
     <use xlink:href="#DejaVuSans-63" x="1343.904297"/>
     <use xlink:href="#DejaVuSans-79" x="1398.884766"/>
    </g>
   </g>
  </g>
  <g id="text_43">
   <!-- Language Grounding by Prompt Family -->
   <g style="fill: #243b53" transform="translate(50.112 15.3255) scale(0.16 -0.16)">
    <use xlink:href="#DejaVuSans-4c"/>
    <use xlink:href="#DejaVuSans-61" x="55.712891"/>
    <use xlink:href="#DejaVuSans-6e" x="116.992188"/>
    <use xlink:href="#DejaVuSans-67" x="180.371094"/>
    <use xlink:href="#DejaVuSans-75" x="243.847656"/>
    <use xlink:href="#DejaVuSans-61" x="307.226562"/>
    <use xlink:href="#DejaVuSans-67" x="368.505859"/>
    <use xlink:href="#DejaVuSans-65" x="431.982422"/>
    <use xlink:href="#DejaVuSans-20" x="493.505859"/>
    <use xlink:href="#DejaVuSans-47" x="525.292969"/>
    <use xlink:href="#DejaVuSans-72" x="602.783203"/>
    <use xlink:href="#DejaVuSans-6f" x="641.646484"/>
    <use xlink:href="#DejaVuSans-75" x="702.828125"/>
    <use xlink:href="#DejaVuSans-6e" x="766.207031"/>
    <use xlink:href="#DejaVuSans-64" x="829.585938"/>
    <use xlink:href="#DejaVuSans-69" x="893.0625"/>
    <use xlink:href="#DejaVuSans-6e" x="920.845703"/>
    <use xlink:href="#DejaVuSans-67" x="984.224609"/>
    <use xlink:href="#DejaVuSans-20" x="1047.701172"/>
    <use xlink:href="#DejaVuSans-62" x="1079.488281"/>
    <use xlink:href="#DejaVuSans-79" x="1142.964844"/>
    <use xlink:href="#DejaVuSans-20" x="1202.144531"/>
    <use xlink:href="#DejaVuSans-50" x="1233.931641"/>
    <use xlink:href="#DejaVuSans-72" x="1292.484375"/>
    <use xlink:href="#DejaVuSans-6f" x="1331.347656"/>
    <use xlink:href="#DejaVuSans-6d" x="1392.529297"/>
    <use xlink:href="#DejaVuSans-70" x="1489.941406"/>
    <use xlink:href="#DejaVuSans-74" x="1553.417969"/>
    <use xlink:href="#DejaVuSans-20" x="1592.626953"/>
    <use xlink:href="#DejaVuSans-46" x="1624.414062"/>
    <use xlink:href="#DejaVuSans-61" x="1672.808594"/>
    <use xlink:href="#DejaVuSans-6d" x="1734.087891"/>
    <use xlink:href="#DejaVuSans-69" x="1831.5"/>
    <use xlink:href="#DejaVuSans-6c" x="1859.283203"/>
    <use xlink:href="#DejaVuSans-79" x="1887.066406"/>
   </g>
  </g>
 </g>
 <defs>
  <clipPath id="pfbd8b627a4">
   <rect x="234.3" y="57.68" width="229.695" height="215.98"/>
  </clipPath>
  <clipPath id="p334d8d59a5">
   <rect x="577.965" y="57.68" width="229.695" height="215.98"/>
  </clipPath>
 </defs>
</svg>
